<svg id="Layer_1" data-name="Layer 1" xmlns="http://www.w3.org/2000/svg" viewBox="0 0 49.42 49.42"><defs><style>.cls-1{fill:#fff;}.cls-2{fill:#034670;}.cls-3{fill:#910303;}</style></defs><title>favicon</title><circle class="cls-1" cx="24.71" cy="24.71" r="24.71"/><path d="M30,34.14h0c0-.08.08-.12.14-.17a5.93,5.93,0,0,0,1.31-1.85A6.35,6.35,0,0,0,32,29.51a13,13,0,0,0-.13-1.65,8.58,8.58,0,0,0-.63-2.28,6,6,0,0,0-1.49-2.08A4.55,4.55,0,0,0,27,22.31H26.8c0,.07,0,.14,0,.21v3.66a.58.58,0,0,0,0,.23l0,0,.11,0a3.39,3.39,0,0,1,1.88.7,4.17,4.17,0,0,1,1.35,1.78,5.24,5.24,0,0,1,.39,2,3.12,3.12,0,0,1-1.84,2.91,4.19,4.19,0,0,1-1.47.41l-.46,0c0,.06,0,.11,0,.16,0,1.83,0,7.41,0,7.63l0,0c0-.05,0-.11.05-.17a17.47,17.47,0,0,1,2.52-5.6,12.72,12.72,0,0,1,3.69-3.58,1,1,0,0,0,.21-.2l3.32-4.06A2.23,2.23,0,0,0,37,28a1.62,1.62,0,0,0,.11-1l0-.08a.52.52,0,0,0-.18.18c-.58.69-1.15,1.38-1.73,2.06l-2.52,3-.12.12a.19.19,0,0,1,0-.11c.08-.19.16-.38.23-.57a1.07,1.07,0,0,1,.22-.37l1.33-1.62c.77-.95,1.54-1.9,2.26-2.89q.28-.39.54-.81a2.25,2.25,0,0,0,.31-1.6,1.12,1.12,0,0,0-.16-.51c-.06.09-.11.15-.15.22l-2.79,4.25-1.06,1.61c0,.05-.05.11-.12.12s0-.05,0-.07c0-.19,0-.38,0-.57a.9.9,0,0,1,.19-.56c1-1.48,2-3,3-4.49.27-.43.52-.87.78-1.3a1.85,1.85,0,0,0,.25-.95,8.06,8.06,0,0,0-.15-1.55s0-.08-.07-.08l-.12.21-3,5.52-.81,1.47s0,.09-.09.07c0-.22-.06-.44-.1-.65a.36.36,0,0,1,.07-.3s0-.05,0-.08c.93-1.67,1.85-3.33,2.73-5,.29-.56.56-1.13.84-1.7a1.69,1.69,0,0,0,.16-.77,6.57,6.57,0,0,0-.23-1.65l-.05-.09c-.16.35-.29.66-.43,1l-.42.95c-.14.31-.28.62-.41.93s-.28.62-.41.93-.29.64-.43.95-.27.62-.41.93l-.41.93-.42.95c-.14.31-.27.63-.43.95a1.14,1.14,0,0,1-.06-.15c0-.16-.09-.32-.15-.47a.6.6,0,0,1,0-.49c.89-2,1.77-4,2.58-6,.23-.55.44-1.1.63-1.67a2.15,2.15,0,0,0,.07-.87,4.54,4.54,0,0,0-.4-1.36.35.35,0,0,0-.06-.09l-.1.24c-.72,1.94-1.43,3.89-2.15,5.83-.35.95-.69,1.9-1,2.84a.51.51,0,0,1-.12.23l-.37-.61c0-.08.05-.14.07-.2l.81-2.33c.53-1.56,1.05-3.13,1.49-4.72a12.44,12.44,0,0,0,.41-1.83,2.67,2.67,0,0,0,0-.4,4.06,4.06,0,0,0-.27-1,2.48,2.48,0,0,0-.32-.6.59.59,0,0,0-.11-.09l-.35,1.31c-.11.42-.23.84-.34,1.26s-.23.86-.35,1.29-.22.85-.34,1.27-.23.86-.35,1.28-.23.86-.35,1.29-.22.85-.34,1.27-.22.86-.35,1.28a2.74,2.74,0,0,1-.55-.5,1,1,0,0,1,0-.14c.57-2.16,1.13-4.32,1.61-6.49.23-1,.46-2,.6-3.09A2.93,2.93,0,0,0,32.54,11a2.46,2.46,0,0,0-.88-1.28l-.15-.08c0,.27-.08.51-.11.76-.15.94-.3,1.89-.44,2.83s-.28,1.9-.43,2.84-.29,1.9-.43,2.84-.25,1.66-.37,2.48a.54.54,0,0,1-.05.11c-.2-.1-.38-.19-.56-.3,0,0,0,0,0-.06.07-.52.13-1,.19-1.57s.11-.9.16-1.35.11-.91.16-1.37.11-1,.16-1.46l.15-1.48c.06-.55.11-1.1.16-1.64s.08-.89.11-1.33c0-.61.07-1.22.1-1.83a3.25,3.25,0,0,0,0-.54,1.14,1.14,0,0,0-.07-.33A2.63,2.63,0,0,0,29.1,6.86s-.05,0-.1,0S29,7,29,7.1c-.05.8-.1,1.61-.14,2.42l-.18,3.16c-.06.94-.11,1.88-.16,2.82,0,.3,0,.6-.05.9l-.12,2c0,.65-.07,1.31-.1,2,0,.16,0,.31,0,.48a2.83,2.83,0,0,1-.58-.11l0-.55c.05-1.18.09-2.36.14-3.55,0-.82.06-1.64.08-2.46,0-1.48.08-3,.11-4.43,0-1.15,0-2.29,0-3.44,0-.26,0-.53,0-.79a1.5,1.5,0,0,0-.06-.29,5.6,5.6,0,0,0-.75-1.38L27,3.65a.38.38,0,0,0-.18.35.65.65,0,0,1,0,.14v17.3a.44.44,0,0,0,0,.1l.16,0a4.55,4.55,0,0,1,1.8.48,5.56,5.56,0,0,1,2,1.73A7.66,7.66,0,0,1,32,26.39a11.59,11.59,0,0,1,.32,3.05,6.2,6.2,0,0,1-.42,2.17A5.92,5.92,0,0,1,30.2,34C30.14,34.06,30.1,34.13,30,34.14Z" transform="translate(-0.29 -0.29)"/><path d="M26.14,3.64h-6a.91.91,0,0,0-.82.8.93.93,0,0,0,.62,1,1.32,1.32,0,0,0,.34,0h1.11a2.25,2.25,0,0,1,0,.26q-.06,1.57-.21,3.15c-.08.87-.18,1.73-.3,2.59-.14,1-.31,2-.52,3a44.11,44.11,0,0,1-1.39,5.19,48.76,48.76,0,0,1-2.08,5.08c-.41.85-.81,1.7-1.21,2.55a14.2,14.2,0,0,0-.73,1.87,6,6,0,0,0-.25,1.45.89.89,0,0,0,.11.48,1.07,1.07,0,0,0,.51.52,23.11,23.11,0,0,1,2.45,1.44A18.6,18.6,0,0,1,24,40c.46.87.86,1.76,1.25,2.66a.17.17,0,0,1,0,.07s0,0,0,0l-.07.06a2.11,2.11,0,0,0-.59.87,2.31,2.31,0,0,0-.1,1.22,2,2,0,0,0,.4.95,1.65,1.65,0,0,0,1,.65.45.45,0,0,0,.28,0c0-.23,0-12,0-12.14l-.2-.06a7.35,7.35,0,0,1-1.21-.46,4.75,4.75,0,0,1-.89-.53,3.36,3.36,0,0,1-1.18-1.67,3.53,3.53,0,0,1,0-2.18,5.13,5.13,0,0,1,1.58-2.38A2.54,2.54,0,0,1,26,26.44h.11a.93.93,0,0,0,0-.14Q26.13,15,26.14,3.64Z" transform="translate(-0.29 -0.29)"/><path class="cls-2" d="M26.14,3.64q0,11.36,0,22.65a.93.93,0,0,1,0,.14H26a2.54,2.54,0,0,0-1.76.66,5.13,5.13,0,0,0-1.58,2.38,3.53,3.53,0,0,0,0,2.18,3.36,3.36,0,0,0,1.18,1.67,4.75,4.75,0,0,0,.89.53,7.35,7.35,0,0,0,1.21.46l.2.06c0,.19,0,11.91,0,12.14a.45.45,0,0,1-.28,0,1.65,1.65,0,0,1-1-.65,2,2,0,0,1-.4-.95,2.31,2.31,0,0,1,.1-1.22,2.11,2.11,0,0,1,.59-.87l.07-.06s0,0,0,0a.17.17,0,0,0,0-.07c-.39-.9-.79-1.79-1.25-2.66a18.6,18.6,0,0,0-6.24-6.91,23.11,23.11,0,0,0-2.45-1.44,1.07,1.07,0,0,1-.51-.52.89.89,0,0,1-.11-.48,6,6,0,0,1,.25-1.45,14.2,14.2,0,0,1,.73-1.87c.4-.85.8-1.7,1.21-2.55a48.76,48.76,0,0,0,2.08-5.08,44.11,44.11,0,0,0,1.39-5.19c.21-1,.38-2,.52-3,.12-.86.22-1.72.3-2.59q.15-1.58.21-3.15a2.25,2.25,0,0,0,0-.26H20.25a1.32,1.32,0,0,1-.34,0,.93.93,0,0,1-.62-1,.91.91,0,0,1,.82-.8h6Z" transform="translate(-0.29 -0.29)"/><path class="cls-3" d="M30,34.14c.1,0,.14-.08.2-.14a5.92,5.92,0,0,0,1.65-2.39,6.2,6.2,0,0,0,.42-2.17A11.59,11.59,0,0,0,32,26.39a7.66,7.66,0,0,0-1.18-2.62,5.56,5.56,0,0,0-2-1.73,4.55,4.55,0,0,0-1.8-.48l-.16,0a.44.44,0,0,1,0-.1V4.14a.65.65,0,0,0,0-.14A.38.38,0,0,1,27,3.65l.14.16a5.6,5.6,0,0,1,.75,1.38,1.5,1.5,0,0,1,.06.29c0,.26,0,.53,0,.79,0,1.15,0,2.29,0,3.44,0,1.48-.07,2.95-.11,4.43,0,.82-.05,1.64-.08,2.46-.05,1.19-.09,2.37-.14,3.55l0,.55a2.83,2.83,0,0,0,.58.11c0-.17,0-.32,0-.48,0-.65.07-1.31.1-2l.12-2c0-.3,0-.6.05-.9.05-.94.1-1.88.16-2.82l.18-3.16c0-.81.09-1.62.14-2.42,0-.09,0-.18,0-.28s.08,0,.1,0a2.63,2.63,0,0,1,1.11,1.33,1.14,1.14,0,0,1,.07.33,3.25,3.25,0,0,1,0,.54c0,.61-.06,1.22-.1,1.83,0,.44-.07.88-.11,1.33s-.1,1.09-.16,1.64l-.15,1.48c-.05.49-.11,1-.16,1.46s-.11.92-.16,1.37-.1.9-.16,1.35-.12,1.05-.19,1.57c0,0,0,0,0,.06.18.11.36.2.56.3a.54.54,0,0,0,.05-.11c.12-.82.25-1.65.37-2.48s.29-1.89.43-2.84.29-1.89.43-2.84.29-1.89.44-2.83c0-.25.07-.49.11-.76l.15.08A2.46,2.46,0,0,1,32.54,11a2.93,2.93,0,0,1,.07,1.25c-.14,1-.37,2.07-.6,3.09-.48,2.17-1,4.33-1.61,6.49a1,1,0,0,0,0,.14,2.74,2.74,0,0,0,.55.5c.13-.42.24-.86.35-1.28s.23-.85.34-1.27.24-.86.35-1.29.24-.85.35-1.28.23-.85.34-1.27.23-.86.35-1.29.23-.84.34-1.26l.35-1.31a.59.59,0,0,1,.11.09,2.48,2.48,0,0,1,.32.6,4.06,4.06,0,0,1,.27,1,2.67,2.67,0,0,1,0,.4A12.44,12.44,0,0,1,34,16.07c-.44,1.59-1,3.16-1.49,4.72l-.81,2.33c0,.06-.05.12-.07.2l.37.61a.51.51,0,0,0,.12-.23c.35-.94.69-1.89,1-2.84.72-1.94,1.43-3.89,2.15-5.83l.1-.24a.35.35,0,0,1,.06.09,4.54,4.54,0,0,1,.4,1.36,2.15,2.15,0,0,1-.07.87c-.19.57-.4,1.12-.63,1.67-.81,2-1.69,4-2.58,6a.6.6,0,0,0,0,.49c.06.15.1.31.15.47a1.14,1.14,0,0,0,.06.15c.16-.32.29-.64.43-.95l.42-.95.41-.93c.14-.31.28-.62.41-.93s.29-.63.43-.95.27-.62.41-.93.27-.62.41-.93l.42-.95c.14-.31.27-.62.43-1l.05.09a6.57,6.57,0,0,1,.23,1.65,1.69,1.69,0,0,1-.16.77c-.28.57-.55,1.14-.84,1.7-.88,1.7-1.8,3.36-2.73,5,0,0,0,.05,0,.08A.36.36,0,0,0,33,27c0,.21.07.43.1.65.06,0,.08,0,.09-.07L34,26.14l3-5.52.12-.21c.06,0,.06.05.07.08A8.06,8.06,0,0,1,37.29,22,1.85,1.85,0,0,1,37,23c-.26.43-.51.87-.78,1.3-.95,1.52-1.95,3-3,4.49a.9.9,0,0,0-.19.56c0,.19,0,.38,0,.57,0,0,0,0,0,.07s.09-.07.12-.12l1.06-1.61L37.06,24c0-.07.09-.13.15-.22a1.12,1.12,0,0,1,.16.51,2.25,2.25,0,0,1-.31,1.6q-.26.42-.54.81c-.72,1-1.49,1.94-2.26,2.89l-1.33,1.62a1.07,1.07,0,0,0-.22.37c-.07.19-.15.38-.23.57a.19.19,0,0,0,0,.11l.12-.12,2.52-3c.58-.68,1.15-1.37,1.73-2.06a.52.52,0,0,1,.18-.18l0,.08A1.62,1.62,0,0,1,37,28a2.23,2.23,0,0,1-.32.5l-3.32,4.06a1,1,0,0,1-.21.2,12.72,12.72,0,0,0-3.69,3.58,17.47,17.47,0,0,0-2.52,5.6c0,.06,0,.12-.05.17l0,0c0-.22,0-5.8,0-7.63,0-.05,0-.1,0-.16l.46,0a4.19,4.19,0,0,0,1.47-.41A3.12,3.12,0,0,0,30.57,31a5.24,5.24,0,0,0-.39-2,4.17,4.17,0,0,0-1.35-1.78,3.39,3.39,0,0,0-1.88-.7l-.11,0,0,0a.58.58,0,0,1,0-.23V22.52c0-.07,0-.14,0-.21H27a4.55,4.55,0,0,1,2.75,1.19,6,6,0,0,1,1.49,2.08,8.58,8.58,0,0,1,.63,2.28A13,13,0,0,1,32,29.51a6.35,6.35,0,0,1-.53,2.61A5.93,5.93,0,0,1,30.15,34c-.06.05-.13.09-.14.17s-.14.09-.19.15S30,34.23,30,34.14Zm-.29.25h0v0Zm-.2.14h0Z" transform="translate(-0.29 -0.29)"/><path d="M30,34.14c0,.09-.1.12-.18.15s.09-.13.19-.15Z" transform="translate(-0.29 -0.29)"/><path d="M29.71,34.39h0v0h0Z" transform="translate(-0.29 -0.29)"/><polygon points="29.22 34.24 29.2 34.24 29.2 34.23 29.22 34.24"/></svg>