<?xml version="1.0" encoding="utf-8"?>
<!-- Generator: Adobe Illustrator 22.0.1, SVG Export Plug-In . SVG Version: 6.00 Build 0)  -->
<svg version="1.1" id="Layer_1" xmlns="http://www.w3.org/2000/svg" xmlns:xlink="http://www.w3.org/1999/xlink" x="0px" y="0px"
	 viewBox="0 0 500 300" style="enable-background:new 0 0 500 300;" xml:space="preserve">
<style type="text/css">
	.st0{fill:#FFFFFF;}
</style>
<title>undercon</title>
<g>
	<path class="st0" d="M197.1,114.9c-1.1,0.8-2.5,1.2-4.2,1.2c-2.5,0-4.5-0.8-6.1-2.5s-2.3-3.8-2.3-6.5s0.8-4.9,2.3-6.5
		s3.5-2.5,6-2.5c1.7,0,3.1,0.4,4.2,1.2c1.1,0.8,1.9,2,2.4,3.6h2.3V96h-2.4v2.1c-0.8-0.8-1.8-1.5-2.9-1.9c-1.2-0.4-2.5-0.7-3.9-0.6
		c-2.8,0-5.2,0.8-7.1,2.5c-0.6-0.5-1.2-1.1-1.8-1.5s-1.3-0.4-1.9-0.4c-3.1,0-6.2,0.1-9.2,0.1c-1.4,0-2.8,0.1-4.3,0.1
		c-0.1,0-0.2,0-0.4,0c0.4,0.3,0.6,0.5,0.9,0.7c0.8,0.6,1.7,1,2.6,1.3c0.3,0.1,0.7,0.1,1,0.2c0.1,0,0.3,0.1,0.4,0.1
		c0.7,0.6,1.4,1.1,2.4,1.2c0.1,0,0.2,0.1,0.2,0.1c0.6,0.7,1.4,1.1,2.4,1.1c0.8,0,1.6,0,2.4-0.1c0.4,0,0.8,0.1,1.1,0.5s0.6,0.8,1,1.2
		c-0.5,1.4-0.8,2.9-0.8,4.4c0,3.4,1.1,6.1,3.2,8.3c2.1,2.2,4.9,3.3,8.2,3.2c2.5,0,4.6-0.6,6.3-2c1.7-1.3,2.8-3.2,3.4-5.5h-2.7
		C199.1,112.9,198.2,114.1,197.1,114.9z M173.2,98.5c1,0,1.9-0.1,2.8-0.1c1.8,0,3.5-0.1,5.3-0.1c0.5,0,1,0.2,1.3,0.7l-0.6,0.9
		c-0.1-0.1-0.3-0.2-0.4-0.3c-0.3-0.3-0.8-0.4-1.2-0.4c-1.6,0.1-3.2,0.1-4.8,0.2C174.7,99.4,173.9,99.1,173.2,98.5z M180.3,100.5
		c-0.7,0-1.5,0.1-2.2,0.1c-0.8,0.1-1.7-0.2-2.2-0.8c1.5,0,3-0.1,4.5-0.1c0.6,0,1.1,0.2,1.4,0.6c-0.2,0.2-0.3,0.4-0.4,0.5
		C181,100.6,180.6,100.6,180.3,100.5L180.3,100.5z M182.3,102.1c-0.1-0.2-0.3-0.3-0.4-0.5c-0.3-0.2-0.3-0.4,0-0.7
		c0.5-0.7,1-1.4,1.4-2.1c-0.6-0.6-1.3-1.1-2.2-1c-1.2,0.1-2.4,0.1-3.6,0.1c-1.5,0-3,0.1-4.5,0.1c-1.1,0.1-2.1-0.2-3-0.9
		c-0.1-0.1-0.2-0.2-0.4-0.3h2c1.9,0,3.7-0.1,5.6-0.1c1.7,0,3.3,0,5,0c0.6,0,1.1,0.2,1.5,0.6s0.8,0.7,1.2,1.1
		c-0.1,0.2-0.3,0.4-0.4,0.6c-0.6,0.7-1.2,1.5-1.7,2.4L182.3,102.1z"/>
	<path class="st0" d="M223.8,111.7c0-1.6-0.2-2.8-0.6-3.5c-0.4-0.7-1.2-1.2-2.3-1.5c1.3-0.6,2.3-1.3,2.9-2.1c0.6-0.9,0.9-2,0.9-3.1
		c0-1.9-0.6-3.3-1.8-4.2s-3.1-1.4-5.7-1.4h-9.6v2.3h2.4V116h-2.4v2.2h7.8V116H213v-8.3h3.6c1.6,0,2.7,0.3,3.3,0.8
		c0.6,0.6,0.9,1.7,0.9,3.5v6.1h5.4v-2.2h-2.5v-4.2H223.8z M220.3,104.7c-0.8,0.6-2.3,0.9-4.2,0.9H213v-7.3h3.2c2,0,3.4,0.3,4.2,0.8
		c0.8,0.6,1.2,1.5,1.2,2.8C221.6,103.2,221.2,104.1,220.3,104.7L220.3,104.7z"/>
	<polygon class="st0" points="296.1,112.2 286.7,96 281.1,96 281.1,98.2 283.7,98.2 283.7,116.1 281.1,116.1 281.1,118.3 
		288.9,118.3 288.9,116.1 286.4,116.1 286.4,101.1 296.4,118.2 298.9,118.2 298.9,107.3 296.1,107.3 	"/>
	<path class="st0" d="M275.1,96.1h-19.8l0.9,2.6h3.8c-0.6,0.4-1.3,0.9-1.8,1.4c-0.9,0.9-1.6,2-2.1,3.2c-1.9,4.5-0.2,9.7,3.9,12.3
		h-3.8l-0.9,2.7h19.8l-0.9-2.7h-3.9c1.8-1.1,3.1-2.7,3.9-4.6c0.5-1.2,0.8-2.5,0.8-3.9c0-2.6-1-5.2-2.9-7c-0.6-0.6-1.1-1-1.8-1.4h3.8
		L275.1,96.1z M272.7,107.3c0,2-0.8,3.9-2.2,5.3c-2.9,2.9-7.6,3-10.5,0.1l0,0l-0.1-0.1c-2.9-3-2.9-7.7,0-10.7
		c2.9-2.9,7.6-3,10.5-0.1l0,0l0.1,0.1C272,103.3,272.8,105.2,272.7,107.3L272.7,107.3z"/>
	<polygon class="st0" points="235.3,84.5 233.7,84.5 233.7,85.9 238.7,85.9 238.7,84.5 237.1,84.5 237.1,73 238.7,73 238.7,71.5 
		234.3,71.5 230.1,79.7 225.9,71.5 221.3,71.5 221.3,73 222.9,73 222.9,84.5 221.3,84.5 221.3,85.9 226.3,85.9 226.3,84.5 
		224.7,84.5 224.7,73.3 229.5,82.6 230.6,82.6 235.3,73.3 	"/>
	<polygon class="st0" points="246.8,84.5 245.2,84.5 245.2,73 246.8,73 246.8,71.5 241.8,71.5 241.8,73 243.3,73 243.3,84.5 
		241.8,84.5 241.8,85.9 246.8,85.9 	"/>
	<polygon class="st0" points="252.6,84.5 252.6,85.9 257.7,85.9 257.7,84.5 256.1,84.5 256.1,73 258.8,73 258.8,75.5 260.5,75.5 
		260.5,71.5 249.8,71.5 249.8,75.5 251.5,75.5 251.5,73 254.2,73 254.2,84.5 	"/>
	<path class="st0" d="M246.6,95.9c-3.2-0.7-5.5-2.4-6.9-5.3c-0.1-0.2-0.2-0.5-0.3-0.8c-1.5,3.6-4,5.6-7.7,6.2h-0.9v2.3h2.4v17.8
		h-2.4v2.2H248v-6.6h-2.6v4.4h-9.2v-8.3h7.7v-2.4h-7.7v-7.1h9.3v3.8h2.6V96h-1C246.9,96,246.7,95.9,246.6,95.9z M238.2,96
		c0.1-0.3,0.2-0.6,0.3-1c0.1-0.1,0.1-0.4-0.1-0.4l0,0l0,0c-0.3-0.2-0.6-0.4-0.8-0.6v-0.1c0.3,0,0.6,0,0.9,0c0.3,0,0.4-0.1,0.5-0.4
		s0.2-0.6,0.4-0.9c0.1,0.3,0.2,0.6,0.3,1c0,0.2,0.2,0.3,0.4,0.3h0.1c0.3,0,0.6,0,1,0V94c-0.3,0.2-0.5,0.4-0.8,0.6
		c-0.2,0.1-0.3,0.3-0.2,0.5l0,0l0,0c0.1,0.3,0.2,0.6,0.2,0.9l0,0c-0.3-0.2-0.5-0.4-0.8-0.6c-0.1-0.1-0.3-0.1-0.5,0l0,0l0,0
		C238.9,95.6,238.6,95.8,238.2,96L238.2,96L238.2,96L238.2,96z"/>
	<path class="st0" d="M292.5,95.4h9.8c0-3,0-6,0.1-9h-9.8C292.6,89.4,292.5,92.4,292.5,95.4z"/>
	<path class="st0" d="M304,88c0-0.1,0-0.3-0.1-0.4c-0.3-0.4-0.6-0.8-1-1.1c0,3,0,5.9-0.1,9c0.2-0.3,0.5-0.6,0.8-0.9
		c0.2-0.2,0.4-0.6,0.3-0.9C304,91.8,304,89.9,304,88z"/>
	<path class="st0" d="M292,95.4c0-3,0-5.9,0-9c-0.3,0.4-0.6,0.6-0.8,0.9c-0.1,0.2-0.2,0.4-0.2,0.6c0,2,0,4,0,6c0,0.1,0,0.3,0.1,0.3
		C291.3,94.6,291.6,95,292,95.4z"/>
	<path class="st0" d="M298.9,98.7c0-0.1-0.1-0.2-0.2-0.3c-0.8-0.5-1.7-0.9-2.5-1.4c0,0.1,0,0.1,0,0.1c-0.1,1.1-0.1,1.1,0.9,1.6l2,1
		C298.9,99.3,298.9,99,298.9,98.7z"/>
	<path class="st0" d="M298.9,100.3c0-0.1-0.1-0.1-0.1-0.1l-2.6-1.4c0,0.4,0,0.7,0,1c0,0.1,0.1,0.2,0.2,0.3c0.8,0.5,1.7,0.9,2.6,1.4
		C298.9,101,298.9,100.6,298.9,100.3z"/>
	<path class="st0" d="M298.9,101.8c0-0.1-0.1-0.1-0.1-0.1l-2.6-1.4c0,0.4,0,0.7,0,1c0,0.1,0.1,0.2,0.2,0.3c0.8,0.5,1.7,0.9,2.6,1.4
		C298.9,102.5,298.9,102.2,298.9,101.8z"/>
	<path class="st0" d="M298.9,103.5c0-0.1-0.1-0.1-0.1-0.1l-2.6-1.4c0,0.4,0,0.7,0,1c0,0.1,0.1,0.2,0.2,0.3c0.8,0.5,1.7,0.9,2.6,1.4
		C298.9,104.2,298.9,103.8,298.9,103.5z"/>
	<path class="st0" d="M298.8,96.6h-2.7l2.7,1.4C298.8,97.5,298.8,97,298.8,96.6z"/>
	<path class="st0" d="M296.1,104.9h2.7l-2.7-1.4C296.1,104,296.1,104.4,296.1,104.9z"/>
	<path class="st0" d="M298.9,85.5h-2.7c0,0.1,0,0.3,0,0.4h2.7C298.9,85.8,298.9,85.7,298.9,85.5z"/>
	
		<rect x="296.6" y="104.2" transform="matrix(2.094417e-03 -1 1 2.094417e-03 190.8705 403.2917)" class="st0" width="1.8" height="3.7"/>
	<rect x="295.9" y="95.7" class="st0" width="3.3" height="0.5"/>
	<path class="st0" d="M208.3,92.3c0.2,0.1,0.4,0.3,0.5,0.5c0.2,0.3,0.3,0.6,0.3,0.8v0.1l0.1-0.1c0.3-0.4,0.6-0.6,1.1-0.7
		c0.2,0,0.5-0.1,0.7,0c0.3,0,0.6,0.1,0.9,0.2c0.2,0.1,0.4,0.1,0.6,0.2h0.1l0,0c0-0.1,0-0.2,0-0.3c0.1-0.2,0.2-0.4,0.4-0.6
		c0.2-0.1,0.4-0.3,0.6-0.4c0.2-0.1,0.5-0.1,0.8-0.1l0,0l0,0l-2.9-0.9l0,0l0,0c0,0.1-0.1,0.1-0.1,0.2c-0.1,0.2-0.3,0.3-0.5,0.2
		c-0.1,0-0.3,0-0.5-0.1c-0.1,0-0.1,0-0.2-0.1c0,0-0.1,0,0-0.1c0,0,0,0,0-0.1s0-0.2,0.1-0.3c0-0.1,0-0.1,0-0.2l0,0l-0.2,0.3
		c-0.1-0.1-0.2-0.1-0.4-0.1c0-0.1,0-0.2,0-0.4l0,0l-0.1,0.2l-0.1,0.3l-0.1,0.1c-0.1,0-0.1,0-0.2-0.1c-0.1-0.1-0.2-0.1-0.4-0.2
		s-0.3-0.2-0.3-0.4c0-0.1,0-0.2,0-0.4l0,0l-2.9-0.9l0,0l0,0c0.1,0.1,0.3,0.3,0.4,0.4c0.2,0.2,0.3,0.4,0.4,0.6c0.1,0.3,0.1,0.6,0,0.9
		c0,0.1-0.1,0.1-0.1,0.1l0,0l0.2,0.1c0.4,0.1,0.8,0.2,1.1,0.4C207.9,92.1,208.1,92.2,208.3,92.3z"/>
	<path class="st0" d="M214.7,88.1c-0.1-0.1-0.1-0.2-0.1-0.2l0,0V88C214.6,88.1,214.6,88.1,214.7,88.1v0.2c0,0-0.1,0-0.1,0.1
		c-0.1,0-0.2,0-0.3,0.1c-0.1,0-0.3,0-0.4-0.1c-0.1-0.1-0.1-0.1-0.1-0.2l0,0l0,0l-2.3,0.7l0,0c0.2,0,0.3,0,0.5,0.1s0.4,0.1,0.6,0.3
		c0.2,0.1,0.4,0.4,0.4,0.6c0,0.1,0,0.1,0,0.1l0,0l0.1-0.1c0.3-0.1,0.6-0.2,0.9-0.3c0.2,0,0.4-0.1,0.6,0c0.2,0,0.4,0.1,0.6,0.1
		c0.2,0.1,0.4,0.3,0.6,0.4l0.1,0.1v-0.1c0-0.4,0.2-0.7,0.4-1c0.1-0.1,0.3-0.3,0.5-0.4s0.5-0.2,0.7-0.3c0.2-0.1,0.3-0.1,0.5-0.1h0.1
		l0,0c0-0.1-0.1-0.1-0.1-0.2c-0.1-0.2-0.1-0.4,0-0.6s0.1-0.4,0.3-0.5c0.1-0.2,0.3-0.3,0.5-0.4l0,0l0,0l-2.4,0.7l0,0
		c0,0.1,0,0.1,0,0.2c0,0.2-0.1,0.3-0.3,0.4c-0.1,0.1-0.2,0.1-0.4,0.1c-0.1,0-0.1,0-0.1,0h-0.1c0,0,0,0,0-0.1l-0.1-0.2
		c0-0.1,0-0.1-0.1-0.1l0,0c0,0.1,0,0.2,0,0.3C214.8,88,214.8,88.1,214.7,88.1z"/>
	<path class="st0" d="M208.4,84c0.1,0.1,0.3,0.3,0.4,0.4c0.1,0.2,0.1,0.4,0.1,0.7v0.1h0.1c0.3,0,0.6,0.1,0.9,0.1
		c0.2,0,0.4,0.1,0.5,0.2s0.3,0.2,0.4,0.3c0.1,0.2,0.3,0.4,0.3,0.6v0.1v-0.1c0.1-0.3,0.4-0.5,0.7-0.6c0.2-0.1,0.4-0.1,0.5-0.1
		c0.2,0,0.5,0,0.7,0c0.1,0,0.3,0,0.5,0.1h0.1l0,0c0-0.1,0-0.1,0-0.2c0-0.2,0.1-0.4,0.2-0.5c0.1-0.1,0.2-0.3,0.4-0.3
		c0.2-0.1,0.4-0.2,0.5-0.2l0,0l-2.2-0.2l0,0c0,0.1,0,0.1-0.1,0.2s-0.2,0.2-0.4,0.3c-0.1,0-0.2,0-0.4,0h-0.1c0,0,0,0,0-0.1v-0.4
		c0,0.1-0.1,0.2-0.1,0.2c-0.1,0-0.2,0-0.3,0c0-0.1,0-0.2,0-0.3l0,0v0.1v0.2c0,0,0,0.1-0.1,0.1s-0.1,0-0.1,0c-0.1,0-0.2-0.1-0.3-0.1
		s-0.3-0.1-0.3-0.3c0-0.1-0.1-0.2-0.1-0.2l0,0l-2.2-0.2l0,0l0,0C208.1,83.8,208.2,83.9,208.4,84z"/>
	<path class="st0" d="M229.5,88l-4.2,1.9c0,0,0,0,0,0.1s0.1,0.3,0.1,0.4c0,0.3-0.1,0.6-0.4,0.8c-0.2,0.1-0.4,0.3-0.6,0.4
		c-0.1,0-0.2,0.1-0.3,0.1s-0.1,0-0.1-0.1c0,0,0-0.1-0.1-0.1c-0.1-0.1-0.1-0.2-0.2-0.4c-0.1-0.1-0.1-0.1-0.1-0.2l0,0
		c0,0.2,0.1,0.4,0.1,0.5c-0.2,0.1-0.4,0.1-0.6,0.2l-0.4-0.4v0.1c0,0.1,0.1,0.2,0.1,0.3c0.1,0.1,0.1,0.3,0.1,0.4s0,0.1-0.1,0.1
		c-0.1,0.1-0.1,0.1-0.2,0.1c-0.2,0.1-0.4,0.1-0.6,0.2c-0.3,0.1-0.6,0-0.8-0.2c-0.1-0.1-0.3-0.2-0.4-0.4c0,0,0,0-0.1,0l-4.2,1.9l0,0
		l0,0c0.3,0,0.6,0,0.9,0c0.4,0,0.8,0.1,1.1,0.3c0.4,0.2,0.7,0.6,0.9,1.1c0,0.1,0.1,0.2,0.1,0.3l0,0l0.3-0.1c0.5-0.3,1.1-0.5,1.7-0.7
		c0.4-0.1,0.7-0.2,1.1-0.2c0.4,0,0.7,0,1.1,0.1c0.4,0.1,0.8,0.4,1.2,0.7l0.1,0.1c0-0.1,0-0.1,0-0.2c-0.1-0.7,0.1-1.3,0.6-1.9
		c0.2-0.3,0.5-0.6,0.8-0.8c0.4-0.3,0.8-0.5,1.3-0.7c0.3-0.1,0.6-0.3,0.9-0.4l0.2-0.1l0,0c-0.1-0.1-0.1-0.2-0.2-0.4
		c-0.2-0.3-0.3-0.7-0.2-1.1s0.2-0.7,0.4-1C229,88.6,229.3,88.3,229.5,88L229.5,88L229.5,88L229.5,88z"/>
</g>
<g>
	<path class="st0" d="M90.9,188.6v-43.5h-7.5v-7.3h47.7v17.4H124v-10.2H99.5v17.3h21.4v7.3H99.5v19H124V178h7.1v17.9H83.4v-7.3H90.9
		z"/>
	<path class="st0" d="M160.1,196.5l-19.2-51.4h-7.1v-7.3h22.7v7.3l-6.7,0l14.6,39l14.3-39l-6.7,0v-7.3h22.1v7.3h-7l-19,51.4
		L160.1,196.5z"/>
	<path class="st0" d="M203.7,188.6v-43.5h-7.5v-7.3h47.7v17.4h-7.1v-10.2h-24.5v17.3h21.4v7.3h-21.4v19h24.5V178h7.1v17.9h-47.7
		v-7.3H203.7z"/>
	<path class="st0" d="M255.4,188.6v-43.5h-8.2v-7.3h19.6l24.9,45.2l0.2,0v-37.9h-8.1v-7.3h23.6v7.3H299v51.4l-9.1,0l-27.2-49.6h-0.2
		v41.8h8.3v7.3h-23.7v-7.3H255.4z"/>
	<path class="st0" d="M355.2,137.8v22.1h-7.1v-14.8h-11.9v43.5h7.5v7.3h-23.7v-7.3h7.5v-43.5h-11.8v14.8h-7.1v-22.1H355.2z"/>
	<path class="st0" d="M359.2,195.9v-21h7.1v5.1c1.2,2,2.5,3.8,3.8,5.3c1.3,1.4,2.8,2.4,4.4,3.1c1.6,0.7,3.3,1.1,5.1,1.1
		c1.9,0,3.6-0.4,5.2-1.2c1.5-0.8,2.8-2,3.7-3.5c0.9-1.5,1.3-3.2,1.3-5c0-2.6-0.8-4.6-2.5-5.8c-1.7-1.2-4.6-2.5-8.9-3.7
		c-4.2-1.2-7.4-2.2-9.5-3c-2.1-0.8-4.1-2.1-6.1-4.1c-2.5-2.5-3.8-6-3.8-10.5c0-3.4,0.8-6.3,2.3-8.7c1.5-2.4,3.6-4.2,6.2-5.4
		c2.6-1.2,5.3-1.8,8.2-1.8c4.7,0,9,1.5,12.9,4.5v-3.9h7.1v17.5h-7.1v-4c-3-4.5-7-6.8-12.2-6.8c-1.9,0-3.5,0.3-5,0.9
		c-1.5,0.6-2.6,1.5-3.4,2.6c-0.8,1.1-1.2,2.5-1.2,3.9c0,2,0.6,3.6,1.9,4.9c1,1,2.3,1.7,3.8,2.3c1.5,0.5,3.9,1.2,7.3,2
		c3.3,0.8,6.1,1.7,8.4,2.6c2.2,0.9,4.1,2.2,5.6,3.7c1.5,1.5,2.7,3.4,3.6,5.6c0.9,2.2,1.3,4.5,1.3,6.8c0,4.9-1.7,8.9-5.2,12.2
		c-3.5,3.3-7.8,4.9-13,4.9c-5.3,0-10-1.9-14.1-5.8v4.8H359.2z"/>
</g>
</svg>
