<?xml version="1.0" encoding="utf-8"?>
<!-- Generator: Adobe Illustrator 22.0.1, SVG Export Plug-In . SVG Version: 6.00 Build 0)  -->
<svg version="1.1" id="Layer_1" xmlns="http://www.w3.org/2000/svg" xmlns:xlink="http://www.w3.org/1999/xlink" x="0px" y="0px"
	 viewBox="0 0 500 300" style="enable-background:new 0 0 500 300;" xml:space="preserve">
<title>undercon</title>
<path d="M105.7,218.8c-3.9,2.8-8.6,4.2-14.3,4.2c-8.5,0-15.4-2.8-20.8-8.5s-8-13.1-8-22.2c0-9.3,2.6-16.8,7.7-22.3
	c5.1-5.6,12-8.4,20.6-8.4c5.9,0,10.7,1.3,14.5,4c3.8,2.7,6.5,6.7,8.3,12.2h7.9v-23.7h-8.3v7.1c-2.7-2.9-6-5.1-9.8-6.4
	c-4.2-1.5-8.7-2.3-13.2-2.2c-9.6,0-17.7,2.9-24.4,8.6c-2.1-1.8-4.1-3.6-6.3-5.1c-1.9-1.4-4.3-1.3-6.5-1.3
	c-10.5,0.1-21.1,0.3-31.6,0.5c-4.9,0.1-9.7,0.2-14.6,0.3c-0.3,0-0.6,0-1.2,0.1c1.2,0.9,2.2,1.7,3.2,2.3c2.7,1.9,5.8,3.4,8.9,4.4
	c1.1,0.3,2.3,0.4,3.4,0.6c0.4,0.1,0.9,0.2,1.3,0.5c2.4,2,4.9,3.7,8.2,4c0.3,0.1,0.6,0.2,0.8,0.5c1.9,2.5,4.9,3.8,8.1,3.6
	c2.7-0.1,5.4-0.1,8.1-0.2c1.5-0.1,2.9,0.5,3.8,1.8c1,1.3,2.2,2.6,3.4,4c-1.7,4.9-2.6,10-2.6,15.1c0,11.5,3.6,21,10.9,28.4
	c7.3,7.5,16.6,11.2,27.9,11.1c8.5,0,15.7-2.2,21.5-6.7c5.8-4.5,9.7-10.8,11.7-18.8h-9.4C112.6,211.9,109.6,216.1,105.7,218.8z
	 M24.1,162.5c3.5-0.1,6.6-0.2,9.7-0.3c6-0.1,12-0.3,18-0.4c1.8,0,3.5,0.8,4.5,2.3l-2.2,3.1c-0.5-0.3-0.9-0.6-1.3-1
	c-1.1-1-2.6-1.5-4.1-1.3c-5.5,0.2-11,0.5-16.4,0.7C29.3,165.7,26.3,164.6,24.1,162.5z M48.2,169.5c-2.5,0-5.1,0.2-7.6,0.3
	c-2.8,0.2-5.7-0.8-7.6-2.9c5.3-0.1,10.4-0.2,15.5-0.4c1.9-0.1,3.7,0.7,4.9,2.1c-0.6,0.7-1.1,1.4-1.3,1.7
	C50.7,169.9,49.4,169.7,48.2,169.5L48.2,169.5z M55.1,175c-0.5-0.6-1-1.1-1.5-1.7c-0.9-0.8-0.9-1.4-0.1-2.4c1.7-2.3,3.3-4.7,4.9-7.1
	c-2.1-2.2-4.3-3.7-7.5-3.5c-4,0.2-8.1,0.3-12.2,0.4c-5.2,0.1-10.3,0.3-15.5,0.4c-3.7,0.2-7.3-0.8-10.4-3c-0.4-0.3-0.7-0.6-1.3-1.1
	l6.9,0c6.4-0.1,12.7-0.2,19-0.2c5.7,0,11.3,0,17,0c1.9,0,3.8,0.7,5.2,2c1.3,1.2,2.7,2.4,4,3.7c-0.5,0.8-1.1,1.5-1.5,2.2
	c-2.2,2.4-4.1,5.2-5.7,8.1L55.1,175z"/>
<path d="M197,207.9c0-5.6-0.7-9.6-2.1-11.9s-4-4-7.8-5c4.6-2,7.9-4.5,10-7.3c2.1-3.1,3.2-6.8,3.1-10.5c0-6.5-2.1-11.3-6.3-14.4
	s-10.6-4.7-19.4-4.7h-32.7v7.7h8.3v61h-8.3v7.6h26.7v-7.6h-8.3v-28.3h12.3c5.6,0,9.4,1,11.4,2.9s3.1,5.9,3.1,12v21h18.4v-7.6H197
	V207.9z M185.3,183.8c-2.9,2-7.7,3-14.2,3h-10.9v-25.1h10.9c6.8,0,11.6,1,14.4,2.9s4.2,5.1,4.2,9.7
	C189.7,178.6,188.3,181.8,185.3,183.8L185.3,183.8z"/>
<polygon points="444.6,209.6 412.4,154.1 393.3,154.1 393.3,161.7 401.9,161.7 401.9,222.8 393.3,222.8 393.3,230.4 419.7,230.4 
	419.7,222.8 411.3,222.8 411.3,171.6 445.4,230.2 454,230.2 454,192.6 444.6,192.6 "/>
<path d="M372.6,154.5H305l3,9h13.1c-2.2,1.4-4.3,3-6.2,4.9c-3.1,3.1-5.5,6.8-7.2,10.9c-6.5,15.5-0.8,33.3,13.4,42.2H308l-3,9.1h67.7
	l-3-9.1h-13.2c6-3.7,10.7-9.2,13.4-15.8c1.8-4.2,2.7-8.7,2.6-13.2c0.1-9-3.4-17.8-9.9-24.1c-1.9-1.9-3.9-3.5-6.2-4.9h13.1
	L372.6,154.5z M364.5,192.6c0.1,6.9-2.6,13.5-7.5,18.3c-9.8,10-26,10.2-36,0.3c0,0,0,0,0,0l-0.3-0.3c-10-10.1-10-26.5,0-36.6
	c9.8-10,25.9-10.1,35.9-0.3c0,0,0,0,0,0l0.3,0.3C361.9,179.1,364.6,185.7,364.5,192.6L364.5,192.6z"/>
<polygon points="236.4,114.8 231.1,114.8 231.1,119.7 248.1,119.7 248.1,114.8 242.5,114.8 242.5,75.3 248.1,75.3 248.1,70.4 
	233.1,70.4 218.8,98.2 204.4,70.4 188.6,70.4 188.6,75.3 194.1,75.3 194.1,114.8 188.6,114.8 188.6,119.7 205.6,119.7 205.6,114.8 
	200.2,114.8 200.2,76.6 216.6,108.1 220.5,108.1 236.4,76.6 "/>
<polygon points="275.9,114.8 270.5,114.8 270.5,75.3 275.9,75.3 275.9,70.4 258.6,70.4 258.6,75.3 263.9,75.3 263.9,114.8 
	258.6,114.8 258.6,119.7 275.9,119.7 "/>
<polygon points="295.8,114.8 295.8,119.7 313.1,119.7 313.1,114.8 307.7,114.8 307.7,75.3 317,75.3 317,84.1 322.6,84.1 322.6,70.4 
	286.2,70.4 286.2,84.1 291.8,84.1 291.8,75.3 301.2,75.3 301.2,114.8 "/>
<path d="M275,153.8c-10.8-2.3-18.8-8.2-23.6-18.3c-0.4-0.8-0.7-1.6-1.1-2.6c-5,12.2-13.8,19.1-26.3,21.1h-3.1v7.7h8.3v61h-8.3v7.6
	h59v-22.5h-9v14.9h-31.6v-28.4h26.5V186h-26.5v-24.3h31.7v13h9V154h-3.3C276,154,275.5,153.9,275,153.8z M246.5,154
	c0.4-1.1,0.6-2.2,1.1-3.3c0.3-0.5,0.2-1.2-0.4-1.5c0,0,0,0,0,0l-0.1-0.1c-1-0.6-1.9-1.4-2.8-2l0.1-0.3c1.1,0,2.1-0.1,3.2,0
	s1.5-0.2,1.7-1.2c0.3-1.1,0.7-2.2,1.2-3.1c0.4,1.1,0.8,2.2,1.1,3.3c0.1,0.6,0.6,1.1,1.2,1h0.2c1.1-0.1,2.2,0,3.3,0l0.1,0.3
	c-0.9,0.7-1.7,1.3-2.6,1.9c-0.6,0.3-0.9,1-0.6,1.6c0,0,0,0,0,0l0.1,0.1c0.4,1,0.7,2.1,0.8,3.2h-0.1c-0.9-0.6-1.8-1.2-2.6-1.9
	c-0.4-0.5-1.1-0.5-1.6-0.1c0,0,0,0,0,0c0,0-0.1,0.1-0.1,0.1c-0.8,0.7-1.7,1.3-2.6,1.9H246.5z"/>
<path d="M432.3,151.9h33.6c0.1-10.1,0.1-20.4,0.2-30.6h-33.6C432.4,131.4,432.3,141.7,432.3,151.9z"/>
<path d="M471.6,126.7c0-0.5,0.1-1.1-0.2-1.4c-1-1.3-2.2-2.6-3.4-3.9c0,10.3-0.1,20.3-0.2,30.8c0.8-1,1.7-2,2.6-3
	c0.8-0.8,1.2-1.9,1.1-3C471.6,139.6,471.6,133.2,471.6,126.7z"/>
<path d="M430.4,151.9c0-10.3,0.1-20.3,0.1-30.7c-1.1,1.2-2.1,2.1-2.9,3.2c-0.5,0.6-0.7,1.3-0.8,2c-0.1,6.8-0.1,13.6-0.1,20.4
	c0,0.4,0,0.9,0.2,1.1C428.1,149.3,429.2,150.6,430.4,151.9z"/>
<path d="M453.9,163.3c-0.1-0.4-0.3-0.8-0.6-1c-2.9-1.6-5.8-3.1-8.7-4.7c-0.1,0.2-0.1,0.3-0.1,0.3c-0.2,3.7-0.2,3.7,3,5.4l6.7,3.5
	C454.1,165.4,454.1,164.4,453.9,163.3z"/>
<path d="M453.9,168.7c-0.1-0.2-0.2-0.4-0.4-0.5l-9-4.8c0,1.3-0.1,2.4,0,3.5c0.1,0.4,0.3,0.7,0.7,0.9c2.8,1.6,5.7,3.1,8.8,4.8
	C453.9,171.1,454,169.9,453.9,168.7z"/>
<path d="M453.9,174.1c-0.1-0.2-0.2-0.4-0.4-0.5l-9-4.8c0,1.3-0.1,2.4,0,3.5c0.1,0.4,0.3,0.7,0.7,0.9c2.8,1.6,5.7,3.1,8.8,4.8
	C453.9,176.5,453.9,175.3,453.9,174.1z"/>
<path d="M453.9,179.6c-0.1-0.2-0.2-0.4-0.4-0.5l-9-4.8c0,1.3-0.1,2.4,0,3.5c0.1,0.4,0.3,0.7,0.7,0.9c2.8,1.6,5.7,3.1,8.8,4.8
	C453.9,182.1,453.9,180.9,453.9,179.6z"/>
<path d="M453.7,156.1l-9.2-0.1l9.1,4.9C453.7,159.2,453.7,157.6,453.7,156.1z"/>
<path d="M444.5,184.4l9.2,0.1l-9.1-4.9C444.6,181.3,444.6,182.9,444.5,184.4z"/>
<path d="M454,118.3l-9.4-0.1c0,0.5,0,1,0,1.3h9.4C453.9,119.2,454,118.8,454,118.3z"/>
<rect x="446.1" y="182.2" transform="matrix(2.094442e-03 -1 1 2.094442e-03 259.7524 637.1224)" width="6" height="12.5"/>
<rect x="443.6" y="153.2" width="11.3" height="1.7"/>
<path d="M144.1,141.5c0.7,0.5,1.2,1.1,1.7,1.7c0.6,0.9,0.9,1.9,0.9,2.9v0.4c0.1-0.1,0.2-0.3,0.3-0.4c0.9-1.2,2.2-2,3.7-2.3
	c0.8-0.1,1.7-0.2,2.5-0.1c1.1,0.1,2.1,0.3,3.1,0.6c0.7,0.2,1.4,0.4,2,0.7l0.4,0.1v-0.1c0-0.3,0.1-0.6,0.1-0.9
	c0.2-0.8,0.6-1.5,1.2-2.1c0.6-0.5,1.3-0.9,2.1-1.2c0.8-0.2,1.7-0.4,2.6-0.5h0.1h-0.1l-9.8-3c0,0-0.1,0-0.1,0l0,0
	c-0.1,0.3-0.3,0.5-0.5,0.8c-0.4,0.6-1.1,0.9-1.8,0.8c-0.5,0-1-0.1-1.6-0.2c-0.2-0.1-0.4-0.1-0.6-0.2c-0.1,0-0.2-0.1-0.1-0.3
	c0-0.1,0-0.1,0-0.2c0.1-0.3,0.1-0.6,0.2-0.9s0.1-0.4,0.1-0.6v-0.1l-0.6,1c-0.4-0.2-0.8-0.3-1.3-0.4c0-0.4,0-0.8,0.1-1.2
	c0,0-0.1,0.1-0.1,0.1l-0.2,0.6l-0.4,1c0,0.1-0.2,0.2-0.3,0.2c-0.2,0-0.4-0.1-0.6-0.1c-0.4-0.2-0.8-0.4-1.2-0.6
	c-0.6-0.3-1-0.8-1.1-1.5c-0.1-0.4-0.1-0.8,0-1.1c0-0.1,0-0.1-0.1-0.1l-9.8-3h-0.1c0,0,0,0.1,0.1,0.1c0.5,0.4,1,0.9,1.5,1.4
	c0.6,0.6,1.1,1.4,1.4,2.2c0.4,1,0.3,2.1-0.1,3.1c-0.1,0.2-0.2,0.4-0.3,0.5l0,0l0.7,0.2c1.3,0.3,2.6,0.7,3.8,1.3
	C142.7,140.6,143.4,141,144.1,141.5z"/>
<path d="M165.9,127.1c-0.2-0.3-0.3-0.6-0.5-0.8v0.1l0.1,0.5c0.1,0.3,0.1,0.5,0.2,0.8c0,0.1,0,0.2-0.1,0.3c-0.1,0.1-0.3,0.1-0.5,0.2
	c-0.4,0.1-0.7,0.1-1.1,0.2c-0.5,0.1-1.1-0.1-1.4-0.5c-0.2-0.2-0.4-0.5-0.5-0.8c0,0-0.1,0-0.1,0c0,0,0,0,0,0l-8,2.4l0,0
	c0.6,0.1,1.1,0.1,1.6,0.3c0.7,0.2,1.4,0.4,2,0.9c0.7,0.5,1.2,1.3,1.3,2.2c0,0.2,0,0.3,0.1,0.5l0,0l0.5-0.2c1-0.4,2.1-0.7,3.2-0.9
	c0.7-0.1,1.3-0.2,2-0.1c0.7,0,1.3,0.2,1.9,0.4c0.7,0.3,1.4,0.9,1.9,1.5l0.2,0.3v-0.4c0.1-1.2,0.6-2.4,1.5-3.3
	c0.5-0.5,1.1-0.9,1.7-1.2c0.8-0.4,1.6-0.8,2.4-1c0.6-0.2,1.1-0.3,1.7-0.5l0.3-0.1v-0.1c-0.1-0.2-0.2-0.4-0.3-0.7
	c-0.2-0.6-0.3-1.3-0.1-2c0.2-0.6,0.5-1.2,0.9-1.8c0.5-0.6,1-1.1,1.6-1.5l0.1-0.1h-0.1l-8.1,2.4c0,0-0.1,0-0.1,0.1c0,0.2,0,0.5,0,0.7
	c0,0.6-0.3,1.1-0.9,1.4c-0.4,0.2-0.8,0.4-1.2,0.5c-0.2,0.1-0.3,0.1-0.5,0.1c-0.1,0-0.2,0-0.2-0.1c0-0.1-0.1-0.1-0.1-0.2l-0.3-0.7
	c-0.1-0.2-0.1-0.3-0.2-0.5v-0.1c0,0.3,0,0.7,0,1C166.5,126.7,166.2,126.9,165.9,127.1z"/>
<path d="M144.3,113c0.5,0.4,1,0.9,1.3,1.4c0.4,0.7,0.5,1.5,0.4,2.3c0,0.1-0.1,0.3-0.1,0.4h0.5c1,0,2,0.2,3,0.4
	c0.6,0.1,1.2,0.3,1.7,0.6c0.5,0.2,1,0.6,1.5,1c0.5,0.6,0.9,1.2,1.1,2c0,0.1,0,0.2,0.1,0.3c0.1-0.1,0.1-0.2,0.1-0.3
	c0.5-1,1.3-1.8,2.3-2.2c0.6-0.2,1.2-0.4,1.8-0.4c0.8-0.1,1.6-0.1,2.4,0c0.5,0,1.1,0.1,1.6,0.2c0.1,0,0.2,0,0.3,0l0,0
	c0-0.2,0-0.4,0-0.7c0-0.6,0.2-1.2,0.6-1.6c0.4-0.5,0.8-0.9,1.4-1.1c0.6-0.3,1.2-0.6,1.8-0.7l0,0l-7.6-0.7c-0.1,0-0.1,0-0.1,0.1
	c-0.1,0.2-0.1,0.4-0.3,0.6c-0.2,0.5-0.7,0.8-1.2,0.9c-0.4,0.1-0.8,0.1-1.2,0.1c-0.1,0-0.3,0-0.4-0.1c-0.1,0-0.1-0.1-0.1-0.2v-1.3
	c-0.1,0.3-0.2,0.6-0.3,0.8c-0.3-0.1-0.7-0.1-1-0.1c0-0.3-0.1-0.6-0.1-0.9c0,0,0,0.1,0,0.1s-0.1,0.3-0.1,0.4l-0.1,0.8
	c0,0.1-0.1,0.2-0.2,0.2c-0.1,0-0.3,0-0.4,0c-0.3-0.1-0.7-0.2-1-0.2c-0.5-0.1-0.9-0.5-1.1-0.9c-0.1-0.3-0.2-0.6-0.2-0.8
	c0-0.1,0-0.1-0.1-0.1l-7.6-0.7H143h0.1C143.5,112.5,143.9,112.7,144.3,113z"/>
<path d="M216.7,126.7l-14.4,6.6c-0.1,0-0.1,0.1-0.1,0.2c0.1,0.4,0.2,0.9,0.2,1.4c0.1,1.1-0.4,2.1-1.2,2.8c-0.6,0.5-1.3,1-2.1,1.3
	c-0.3,0.1-0.6,0.3-0.9,0.3c-0.2,0.1-0.3,0-0.4-0.2c-0.1-0.1-0.1-0.2-0.2-0.3c-0.2-0.4-0.5-0.8-0.7-1.3c-0.2-0.4-0.3-0.5-0.5-0.8
	l-0.1-0.1c0.1,0.6,0.2,1.2,0.3,1.8c-0.7,0.2-1.3,0.4-1.9,0.8l-1.2-1.5c0,0.1,0,0.2,0,0.3c0.1,0.3,0.2,0.6,0.3,0.9
	c0.2,0.5,0.4,1,0.5,1.5c0.1,0.2,0,0.4-0.2,0.5c-0.3,0.2-0.5,0.3-0.8,0.4c-0.7,0.2-1.3,0.4-2,0.6c-1,0.3-2.1,0.1-2.9-0.6
	c-0.5-0.4-0.9-0.8-1.2-1.3c-0.1-0.1-0.1-0.1-0.2-0.1l-14.4,6.6h-0.1c0,0,0.1,0,0.1,0c1-0.1,2.1,0,3.1,0.1c1.4,0.1,2.7,0.5,3.9,1.1
	c1.5,0.8,2.5,2.1,3,3.7c0.1,0.3,0.2,0.6,0.3,0.9l0,0l0.9-0.5c1.8-1,3.8-1.8,5.8-2.4c1.2-0.4,2.5-0.6,3.7-0.7c1.3-0.1,2.5,0,3.8,0.3
	c1.5,0.4,2.9,1.3,4,2.4l0.5,0.5c0-0.2,0-0.5-0.1-0.7c-0.2-2.3,0.5-4.6,1.9-6.4c0.8-1,1.8-1.9,2.8-2.7c1.3-1,2.8-1.8,4.3-2.5
	c1-0.5,2-0.9,3-1.3l0.6-0.2v-0.1c-0.3-0.4-0.5-0.8-0.7-1.2c-0.6-1.1-0.9-2.4-0.7-3.6c0.2-1.2,0.7-2.4,1.4-3.5
	C214.9,128.8,215.8,127.8,216.7,126.7l0.1,0l0,0L216.7,126.7z"/>
</svg>
