<?xml version="1.0" encoding="utf-8"?>
<!-- Generator: Adobe Illustrator 22.0.1, SVG Export Plug-In . SVG Version: 6.00 Build 0)  -->
<svg version="1.1" id="Layer_1" xmlns="http://www.w3.org/2000/svg" xmlns:xlink="http://www.w3.org/1999/xlink" x="0px" y="0px"
	 viewBox="0 0 500 300" style="enable-background:new 0 0 500 300;" xml:space="preserve">
<style type="text/css">
	.st0{fill:#2B2727;}
	.st1{fill:#FFFFFF;}
	.st2{font-family:'GeosansLight';}
	.st3{font-size:8.7492px;}
	.st4{font-family:'Astu-Lys';}
	.st5{font-size:9.5372px;}
</style>
<rect x="-528.8" y="-1.3" class="st0" width="505.9" height="305.2"/>
<title>undercon</title>
<path class="st1" d="M171.3,234.7h-3.8v-13.9l-6.5,13.9h-3.6l-6.9-14.2v14.2h-3.8v-22.6h3.9l8.6,17.6l8.2-17.6h3.9L171.3,234.7z"/>
<path class="st1" d="M186.8,232.1h-7.9l-0.9,2.6h-4.1l9-23.2l9,23.2h-4.1L186.8,232.1z M180.1,228.9h5.5l-2.7-7.8L180.1,228.9z"/>
<path class="st1" d="M206.1,234.7l-5.9-9.4H198v9.4h-3.8v-13.1h3.6l-3.6-5.7v-3.8h7.5c0,0,7.6,0,7.6,6.6c0,4-2.7,5.6-5,6.2l6.2,9.8
	H206.1L206.1,234.7z M202.3,221.5c1-0.1,3.3-0.6,3.3-2.8c0-2.8-3.8-2.8-3.8-2.8h-3L202.3,221.5z"/>
<path class="st1" d="M229.5,212.2l-9,23.5l-9-23.5H229.5z M220.6,225.5l3.5-9.6h-6.9L220.6,225.5z"/>
<path class="st1" d="M246.3,216h-15v-3.8h15V216z M246.3,225.3h-15v-3.8h15V225.3z M231.2,234.7V231h15v3.8h-15V234.7z"/>
<path class="st1" d="M262.9,231v3.8h-12.1v-22.6h3.8V231H262.9z"/>
<path class="st1" d="M293.6,212.2l-9,23.1l-9-23.1h4.1l4.9,13.3l5-13.3H293.6z"/>
<path class="st1" d="M295.3,228.5h3.8c0.1,1.9,1.6,2.8,3.3,2.8c1.7,0.1,3.1-1.1,3.3-2.8l0,0c-0.1-1.7-1.5-3.1-3.3-3.1
	c-1.1,0-2.4-0.3-3.4-0.8c-2.3-0.9-3.8-3.3-3.7-5.8c-0.1-3.8,2.9-6.9,6.7-7c0.1,0,0.2,0,0.4,0c3.9,0,6.9,2.6,7,6.5h-3.8
	c-0.1-1.9-1.5-2.7-3.2-2.7c-1.7-0.1-3.1,1.1-3.3,2.7c0,0.1,0,0.2,0,0.4c0,1.9,1.6,2.8,3.3,2.8c1.1,0,2.3,0.3,3.3,0.8
	c2.4,1.1,3.8,3.5,3.7,6c0,4.3-3.4,6.6-7,6.6C298.5,234.9,295.3,232.7,295.3,228.5z"/>
<path class="st1" d="M328.5,212.2c5.5,0,13.2,1.2,13.2,11.2c0,9.6-7.6,11.2-13.2,11.2h-3.8V212L328.5,212.2L328.5,212.2z
	 M337.8,223.5c0-9-9.3-7.6-9.3-7.6v15.2C328.5,231.1,337.8,232.4,337.8,223.5z"/>
<path class="st1" d="M361.8,228.8l2.6,2.6c-4.3,4.4-11.5,4.5-16.1,0.1c-4.5-4.4-4.5-11.5-0.1-16.1c2.2-2.2,5.1-3.4,8.2-3.4
	c3,0,5.9,1.1,7.9,3.3l-2.6,2.6c-2.9-2.9-7.6-2.9-10.6,0c-2.9,2.9-2.9,7.6,0,10.6C354.2,231.7,358.9,231.7,361.8,228.8z M356.4,220
	c-1.9,0-3.5,1.6-3.5,3.5s1.6,3.5,3.5,3.5s3.5-1.6,3.5-3.5l0,0C359.9,221.5,358.4,220,356.4,220L356.4,220z"/>
<path class="st1" d="M151.5,254.4h-4.1l-0.5,1.3h-2.1l4.5-11.8l4.6,11.8h-2.1L151.5,254.4z M148.1,252.8h2.7l-1.4-4L148.1,252.8z"/>
<path class="st1" d="M164.8,255.7h-1.9l-5.7-8.1v8.1h-1.9v-11.4h1.9l5.7,8.1v-8.1h1.9V255.7z"/>
<path class="st1" d="M178.7,252v-7.7h1.9v7.7c0.1,1.1,1.1,2,2.3,1.9h0.1c1.2,0,2.4-0.7,2.4-1.9v-7.7h1.9v7.7c0,2.5-1.9,3.9-4.3,3.9
	S178.7,254.4,178.7,252z"/>
<path class="st1" d="M199.3,255.7h-1.9l-5.7-8.1v8.1h-1.9v-11.4h1.9l5.7,8.1v-8.1h1.9V255.7z"/>
<path class="st1" d="M203.9,246.2v2.8h4.7v1.9h-4.7v2.8h5.7v1.9H202v-11.4h7.6v1.9L203.9,246.2z"/>
<path class="st1" d="M221,255.7h-1.9l-5.7-8.1v8.1h-1.9v-11.4h1.9l5.7,8.1v-8.1h1.9V255.7z"/>
<path class="st1" d="M225.6,244.3c2.7,0,6.7,0.7,6.7,5.8c0,4.9-3.9,5.8-6.7,5.8h-1.9v-11.4L225.6,244.3L225.6,244.3z M230.3,249.9
	c0-4.5-4.7-3.9-4.7-3.9v7.7C225.6,253.8,230.3,254.5,230.3,249.9L230.3,249.9z"/>
<path class="st1" d="M237,246v7.9h1.3v1.8h-4.6v-1.8h1.3V246h-1.3v-1.8h4.4v1.8H237z"/>
<path class="st1" d="M249.7,255.7h-1.9l-5.7-8.1v8.1h-1.9v-11.4h1.9l5.7,8.1v-8.1h1.9V255.7z"/>
<path class="st1" d="M262.5,249.2v6.6h-1.7l-0.1-1c-0.8,0.8-2.1,1.2-3.2,1.2c-3.1,0-5.5-2.2-5.5-5.9c-0.1-3.1,2.4-5.8,5.6-5.9l0,0
	h0.2c1.5,0,2.9,0.6,4.1,1.7l-1.3,1.3c-0.8-0.8-1.7-1.1-2.7-1.1c-2.1,0-3.8,1.6-3.8,3.6c0,0.1,0,0.2,0,0.4c0,2.8,1.7,4,3.8,4
	c1.1,0,2.1-0.5,2.8-1.3v-1.7h-1.9v-1.8L262.5,249.2z"/>
<path class="st1" d="M278.2,246.2v2.8h4.7v1.9h-4.7v2.8h5.7v1.9h-7.6v-11.4h7.6v1.9L278.2,246.2z"/>
<path class="st1" d="M298.2,255.7h-1.9v-7l-3.3,7h-1.8l-3.5-7.2v7.2h-1.9v-11.5h2l4.3,8.9l4.2-8.9h1.9L298.2,255.7L298.2,255.7z"/>
<path class="st1" d="M300.8,252v-7.7h1.9v7.7c0.1,1.1,1.1,2,2.3,1.9h0.1c1.2,0,2.4-0.7,2.4-1.9v-7.7h1.9v7.7c0,2.5-1.9,3.9-4.2,3.9
	S300.8,254.4,300.8,252z"/>
<path class="st1" d="M318.1,253.8v1.9H312v-11.4h1.9v9.5H318.1z"/>
<path class="st1" d="M318.9,255.7l4.5-11.8l4.5,11.8H318.9z M323.4,249.1l-1.8,4.7h3.5L323.4,249.1z"/>
<path class="st1" d="M334.9,246h-2.5v9.7h-1.9V246h-2.4v-1.8h6.7L334.9,246L334.9,246z"/>
<path class="st1" d="M339,246v7.9h1.3v1.8h-4.6v-1.8h1.3V246h-1.3v-1.8h4.4v1.8H339z"/>
<path class="st1" d="M347.4,255.9c-7.6,0-7.6-11.7,0-11.7S354.9,255.9,347.4,255.9z M347.4,246c-4.9,0-5,8,0,8S352.4,246,347.4,246z
	"/>
<path class="st1" d="M364.7,255.7h-1.9l-5.7-8.1v8.1h-1.9v-11.4h1.9l5.7,8.1v-8.1h1.9V255.7z"/>
<path class="st1" d="M206.9,277.5h-2v-9.7l-1.8,0.8l-0.7-1.4l2.7-1.5h1.7v11.8H206.9z"/>
<path class="st1" d="M208.9,274.2h2c-0.1,0.8,0.5,1.4,1.2,1.5l0,0h0.3c0.8,0.1,1.6-0.6,1.7-1.5l0,0V274c0-0.8-0.3-2-1.7-2H209v-6.4
	h6.4v1.9H211v2.7h1.4c2.5,0,3.7,1.5,3.7,3.9c0.1,2-1.5,3.6-3.4,3.6l0,0h-0.2c-1.8,0.1-3.4-1.2-3.5-3
	C208.9,274.5,208.9,274.4,208.9,274.2z"/>
<path class="st1" d="M221,266h-1.5v5.9h-1.1V266h-1.5v-1h4.1V266L221,266z"/>
<path class="st1" d="M227.2,264.9v7H226V269h-2.9v2.9H222v-7h1.1v2.8h2.9v-2.9L227.2,264.9z"/>
<path class="st1" d="M240.6,272.4h-6v-1.8h6V272.4z"/>
<path class="st1" d="M251.7,277.5h-2v-9.7l-1.8,0.7l-0.7-1.4l2.7-1.5h1.7v11.9H251.7z"/>
<path class="st1" d="M253.7,273l2.5-7.4h2.1l-1.9,5.3c0.3-0.1,0.6-0.2,0.9-0.2c1.8,0.1,3.1,1.6,3,3.4v0.1c0,1.9-1.6,3.5-3.5,3.5
	C254.5,277.7,253,275.3,253.7,273z M255.4,274.2c0,0.8,0.7,1.5,1.5,1.5s1.5-0.7,1.5-1.5s-0.7-1.5-1.5-1.5c-0.7,0-1.1,0.4-1.4,0.9
	C255.5,273.8,255.4,274,255.4,274.2L255.4,274.2z"/>
<path class="st1" d="M265.3,266h-1.4v5.9h-1.1V266h-1.4v-1h4.1L265.3,266L265.3,266z"/>
<path class="st1" d="M271.6,264.9v7h-1.1V269h-2.9v2.9h-1.1v-7h1.1v2.8h2.9v-2.9L271.6,264.9z"/>
<path class="st1" d="M281.7,267.6v3h5v2h-5v5h-2.1v-12h7.9v2H281.7z"/>
<path class="st1" d="M291.5,267.6v3h5v2h-5v3h6v2h-7.9v-12h7.9v2H291.5L291.5,267.6z"/>
<path class="st1" d="M307.7,274.1c0,3.3-3.3,3.4-4.2,3.4h-4v-11.9h4c0,0,4-0.1,4,3.4c0.1,1.2-0.8,2.4-2,2.6
	C306.8,271.8,307.7,272.9,307.7,274.1z M301.5,270.6h2c0,0,2,0,2-1.5s-2-1.5-2-1.5h-2V270.6z M305.6,274.1c0-1.6-2.2-1.5-2.2-1.5h-2
	v3h2C304.3,275.6,305.6,275.3,305.6,274.1L305.6,274.1z"/>
<path class="st1" d="M113.1,182.4c-3.7,2.6-8.1,4-13.5,4c-8,0-14.5-2.6-19.6-8s-7.6-12.4-7.6-21c0-8.8,2.5-15.9,7.3-21.1
	c4.8-5.3,11.3-7.9,19.4-7.9c5.6,0,10.1,1.2,13.7,3.8c3.6,2.5,6.1,6.3,7.8,11.5h7.5v-22.4h-7.8v6.7c-2.5-2.7-5.7-4.8-9.3-6
	c-4-1.4-8.2-2.2-12.5-2.1c-9.1,0-16.7,2.7-23,8.1c-2-1.7-3.9-3.4-5.9-4.9c-1.8-1.3-4.1-1.2-6.1-1.2c-9.9,0.1-19.9,0.3-29.8,0.5
	c-4.6,0.1-9.2,0.2-13.8,0.3c-0.3,0-0.6,0-1.1,0.1c1.1,0.8,2.1,1.6,3,2.2c2.5,1.8,5.5,3.2,8.4,4.2c1,0.3,2.2,0.4,3.2,0.6
	c0.4,0.1,0.8,0.2,1.2,0.5c2.3,1.9,4.6,3.5,7.7,3.8c0.3,0.1,0.6,0.2,0.8,0.5c1.8,2.4,4.6,3.6,7.6,3.4c2.5-0.1,5.1-0.1,7.6-0.2
	c1.4-0.1,2.7,0.5,3.6,1.7c0.9,1.2,2.1,2.5,3.2,3.8c-1.6,4.6-2.5,9.4-2.5,14.3c0,10.9,3.4,19.8,10.3,26.8
	c6.9,7.1,15.7,10.6,26.3,10.5c8,0,14.8-2.1,20.3-6.3s9.2-10.2,11-17.7h-8.9C119.6,175.9,116.8,179.9,113.1,182.4z M36.1,129.3
	c3.3-0.1,6.2-0.2,9.2-0.3c5.7-0.1,11.3-0.3,17-0.4c1.7,0,3.3,0.8,4.2,2.2l-2.1,2.9c-0.5-0.3-0.8-0.6-1.2-0.9c-1-0.9-2.5-1.4-3.9-1.2
	c-5.2,0.2-10.4,0.5-15.5,0.7C41,132.3,38.2,131.3,36.1,129.3z M58.8,135.9c-2.4,0-4.8,0.2-7.2,0.3c-2.6,0.2-5.4-0.8-7.2-2.7
	c5-0.1,9.8-0.2,14.6-0.4c1.8-0.1,3.5,0.7,4.6,2c-0.6,0.7-1,1.3-1.2,1.6C61.2,136.3,60,136.1,58.8,135.9L58.8,135.9z M65.4,141.1
	c-0.5-0.6-0.9-1-1.4-1.6c-0.8-0.8-0.8-1.3-0.1-2.3c1.6-2.2,3.1-4.4,4.6-6.7c-2-2.1-4.1-3.5-7.1-3.3c-3.8,0.2-7.6,0.3-11.5,0.4
	c-4.9,0.1-9.7,0.3-14.6,0.4c-3.5,0.2-6.9-0.8-9.8-2.8c-0.4-0.3-0.7-0.6-1.2-1l6.5-0.1c6-0.1,12-0.2,17.9-0.2c5.4,0,10.7,0,16.1,0
	c1.8,0,3.6,0.7,4.9,1.9c1.2,1.1,2.5,2.3,3.8,3.5c-0.5,0.8-1,1.4-1.4,2.1c-2.1,2.3-3.9,4.9-5.4,7.6L65.4,141.1z"/>
<path class="st1" d="M199.3,172.1c0-5.3-0.7-9.1-2-11.2c-1.3-2.2-3.8-3.8-7.4-4.7c4.3-1.9,7.5-4.2,9.4-6.9c2-2.9,3-6.4,2.9-9.9
	c0-6.1-2-10.7-5.9-13.6c-4-2.9-10-4.4-18.3-4.4h-30.9v7.3h7.8v57.6h-7.8v7.2h25.2v-7.2h-7.8v-26.7h11.6c5.3,0,8.9,0.9,10.8,2.7
	c1.9,1.8,2.9,5.6,2.9,11.3v19.8h17.4v-7.2h-7.9V172.1z M188.3,149.4c-2.7,1.9-7.3,2.8-13.4,2.8h-10.3v-23.7h10.3
	c6.4,0,11,0.9,13.6,2.7s4,4.8,4,9.2C192.4,144.5,191.1,147.5,188.3,149.4L188.3,149.4z"/>
<polygon class="st1" points="433.1,173.8 402.7,121.4 384.7,121.4 384.7,128.5 392.8,128.5 392.8,186.2 384.7,186.2 384.7,193.4 
	409.6,193.4 409.6,186.2 401.7,186.2 401.7,137.9 433.8,193.2 442,193.2 442,157.7 433.1,157.7 "/>
<path class="st1" d="M365.1,121.7h-63.8l2.8,8.5h12.4c-2.1,1.3-4.1,2.8-5.9,4.6c-2.9,2.9-5.2,6.4-6.8,10.3
	c-6.1,14.6-0.8,31.4,12.7,39.8h-12.4l-2.8,8.6h63.9l-2.8-8.6h-12.5c5.7-3.5,10.1-8.7,12.7-14.9c1.7-4,2.5-8.2,2.5-12.5
	c0.1-8.5-3.2-16.8-9.3-22.8c-1.8-1.8-3.7-3.3-5.9-4.6h12.4L365.1,121.7z M357.5,157.7c0.1,6.5-2.5,12.7-7.1,17.3
	c-9.3,9.4-24.5,9.6-34,0.3l0,0l-0.3-0.3c-9.4-9.5-9.4-25,0-34.6c9.3-9.4,24.5-9.5,33.9-0.3l0,0l0.3,0.3
	C355,145,357.6,151.2,357.5,157.7L357.5,157.7z"/>
<polygon class="st1" points="236.5,84.2 231.5,84.2 231.5,88.9 247.6,88.9 247.6,84.2 242.3,84.2 242.3,47 247.6,47 247.6,42.3 
	233.4,42.3 219.9,68.6 206.3,42.3 191.4,42.3 191.4,47 196.6,47 196.6,84.2 191.4,84.2 191.4,88.9 207.4,88.9 207.4,84.2 
	202.3,84.2 202.3,48.2 217.8,77.9 221.5,77.9 236.5,48.2 "/>
<polygon class="st1" points="273.8,84.2 268.7,84.2 268.7,47 273.8,47 273.8,42.3 257.5,42.3 257.5,47 262.5,47 262.5,84.2 
	257.5,84.2 257.5,88.9 273.8,88.9 "/>
<polygon class="st1" points="292.6,84.2 292.6,88.9 308.9,88.9 308.9,84.2 303.8,84.2 303.8,47 312.6,47 312.6,55.3 317.9,55.3 
	317.9,42.3 283.5,42.3 283.5,55.3 288.8,55.3 288.8,47 297.7,47 297.7,84.2 "/>
<path class="st1" d="M273,121.1c-10.2-2.2-17.7-7.7-22.3-17.3c-0.4-0.8-0.7-1.6-1-2.5c-4.7,11.5-13,18-24.8,19.9H222v7.3h7.8v57.6
	H222v7.2h55.7v-21.2h-8.5v14.1h-29.8v-26.8h25v-7.8h-25v-22.9h29.9V141h8.5v-19.5h-3.1C273.9,121.3,273.4,121.2,273,121.1z
	 M246.1,121.3c0.4-1,0.6-2.1,1-3.1c0.3-0.5,0.2-1.1-0.4-1.4l0,0l-0.1-0.1c-0.9-0.6-1.8-1.3-2.6-2l0.1-0.3c1,0,2-0.1,3,0
	s1.4-0.2,1.6-1.1c0.3-1,0.7-2.1,1.1-2.9c0.4,1,0.8,2.1,1,3.1c0.1,0.6,0.6,1,1.1,0.9h0.2c1-0.1,2.1,0,3.1,0l0.1,0.3
	c-0.8,0.7-1.6,1.2-2.5,1.8c-0.6,0.3-0.8,0.9-0.6,1.5l0,0l0.1,0.1c0.4,0.9,0.7,2,0.8,3H253c-0.8-0.6-1.7-1.1-2.5-1.8
	c-0.4-0.5-1-0.5-1.5-0.1l0,0l-0.1,0.1c-0.8,0.7-1.6,1.2-2.5,1.8h-0.6L246.1,121.3L246.1,121.3z"/>
<path class="st1" d="M421.5,119.3h31.7c0.1-9.5,0.1-19.3,0.2-29h-31.7C421.6,99.9,421.5,109.6,421.5,119.3z"/>
<path class="st1" d="M458.6,95.5c0-0.5,0.1-1-0.2-1.3c-0.9-1.2-2.1-2.5-3.2-3.7c0,9.7-0.1,19.2-0.2,29.1c0.8-0.9,1.6-1.9,2.5-2.8
	c0.8-0.8,1.1-1.8,1-2.8C458.6,107.8,458.6,101.6,458.6,95.5z"/>
<path class="st1" d="M419.7,119.3c0-9.7,0.1-19.2,0.1-29c-1,1.1-2,2-2.7,3c-0.5,0.6-0.7,1.2-0.8,1.9c-0.1,6.4-0.1,12.8-0.1,19.3
	c0,0.4,0,0.8,0.2,1C417.5,116.8,418.6,118,419.7,119.3z"/>
<path class="st1" d="M441.9,130c-0.1-0.4-0.3-0.8-0.6-0.9c-2.7-1.5-5.5-2.9-8.2-4.4c-0.1,0.2-0.1,0.3-0.1,0.3
	c-0.2,3.5-0.2,3.5,2.8,5.1l6.3,3.3C442.1,132,442.1,131.1,441.9,130z"/>
<path class="st1" d="M441.9,135.1c-0.1-0.2-0.2-0.4-0.4-0.5l-8.5-4.5c0,1.2-0.1,2.3,0,3.3c0.1,0.4,0.3,0.7,0.7,0.8
	c2.6,1.5,5.4,2.9,8.3,4.5C441.9,137.4,442,136.3,441.9,135.1z"/>
<path class="st1" d="M441.9,140.2c-0.1-0.2-0.2-0.4-0.4-0.5l-8.5-4.5c0,1.2-0.1,2.3,0,3.3c0.1,0.4,0.3,0.7,0.7,0.8
	c2.6,1.5,5.4,2.9,8.3,4.5C441.9,142.5,441.9,141.4,441.9,140.2z"/>
<path class="st1" d="M441.9,145.4c-0.1-0.2-0.2-0.4-0.4-0.5l-8.5-4.5c0,1.2-0.1,2.3,0,3.3c0.1,0.4,0.3,0.7,0.7,0.8
	c2.6,1.5,5.4,2.9,8.3,4.5C441.9,147.8,441.9,146.7,441.9,145.4z"/>
<path class="st1" d="M441.7,123.2l-8.7-0.1l8.6,4.6C441.7,126.2,441.7,124.7,441.7,123.2z"/>
<path class="st1" d="M433,150l8.7,0.1l-8.6-4.6C433.1,147,433.1,148.5,433,150z"/>
<path class="st1" d="M442,87.6l-8.9-0.1c0,0.5,0,0.9,0,1.2h8.9C441.9,88.4,442,88,442,87.6z"/>
<rect x="434.5" y="147.8" transform="matrix(2.094417e-03 -1 1 2.094417e-03 282.7626 590.7697)" class="st1" width="5.7" height="11.8"/>
<rect x="432.1" y="120.5" class="st1" width="10.7" height="1.6"/>
<path class="st1" d="M149.4,109.5c0.7,0.5,1.1,1,1.6,1.6c0.6,0.8,0.8,1.8,0.8,2.7v0.4c0.1-0.1,0.2-0.3,0.3-0.4
	c0.8-1.1,2.1-1.9,3.5-2.2c0.8-0.1,1.6-0.2,2.4-0.1c1,0.1,2,0.3,2.9,0.6c0.7,0.2,1.3,0.4,1.9,0.7l0.4,0.1v-0.1c0-0.3,0.1-0.6,0.1-0.8
	c0.2-0.8,0.6-1.4,1.1-2c0.6-0.5,1.2-0.8,2-1.1c0.8-0.2,1.6-0.4,2.5-0.5h0.1h-0.1l-9.3-2.8h-0.1l0,0c-0.1,0.3-0.3,0.5-0.5,0.8
	c-0.4,0.6-1,0.8-1.7,0.8c-0.5,0-0.9-0.1-1.5-0.2c-0.2-0.1-0.4-0.1-0.6-0.2c-0.1,0-0.2-0.1-0.1-0.3c0-0.1,0-0.1,0-0.2
	c0.1-0.3,0.1-0.6,0.2-0.8c0.1-0.3,0.1-0.4,0.1-0.6v-0.1l-0.6,0.9c-0.4-0.2-0.8-0.3-1.2-0.4c0-0.4,0-0.8,0.1-1.1l-0.1,0.1l-0.2,0.6
	l-0.4,0.9c0,0.1-0.2,0.2-0.3,0.2c-0.2,0-0.4-0.1-0.6-0.2c-0.4-0.2-0.8-0.4-1.1-0.6c-0.6-0.3-0.9-0.8-1-1.4c-0.1-0.4-0.1-0.8,0-1.1
	c0-0.1,0-0.1-0.1-0.1l-9.3-2.8h-0.1c0,0,0,0.1,0.1,0.1c0.5,0.4,0.9,0.8,1.4,1.3c0.6,0.6,1,1.3,1.3,2.1c0.4,0.9,0.3,2-0.1,2.9
	c-0.1,0.2-0.2,0.3-0.3,0.5l0,0l0.7,0.2c1.2,0.3,2.5,0.7,3.6,1.2C148.1,108.6,148.7,109,149.4,109.5z"/>
<path class="st1" d="M170,95.9c-0.2-0.3-0.3-0.6-0.5-0.8v0.1l0.1,0.5c0.1,0.3,0.1,0.5,0.2,0.8c0,0.1,0,0.2-0.1,0.3
	c-0.1,0.1-0.3,0.1-0.5,0.2c-0.4,0.1-0.7,0.1-1,0.2c-0.5,0.1-1-0.1-1.3-0.5c-0.2-0.2-0.4-0.5-0.5-0.8h-0.1l0,0l-7.6,2.3l0,0
	c0.6,0.1,1,0.1,1.5,0.3c0.7,0.2,1.3,0.4,1.9,0.8c0.7,0.5,1.1,1.2,1.2,2.1c0,0.2,0,0.3,0.1,0.5l0,0l0.5-0.2c0.9-0.4,2-0.7,3-0.8
	c0.7-0.1,1.2-0.2,1.9-0.1c0.7,0,1.2,0.2,1.8,0.4c0.7,0.3,1.3,0.8,1.8,1.4l0.2,0.3v-0.4c0.1-1.1,0.6-2.3,1.4-3.1
	c0.5-0.5,1-0.8,1.6-1.1c0.8-0.4,1.5-0.8,2.3-0.9c0.6-0.2,1-0.3,1.6-0.5l0.3-0.1v-0.1c-0.1-0.2-0.2-0.4-0.3-0.7
	c-0.2-0.6-0.3-1.2-0.1-1.9c0.2-0.6,0.5-1.1,0.8-1.7c0.5-0.6,0.9-1,1.5-1.4l0.1-0.1h-0.1l-7.6,2.3c0,0-0.1,0-0.1,0.1
	c0,0.2,0,0.5,0,0.7c0,0.6-0.3,1-0.8,1.3c-0.4,0.2-0.8,0.4-1.1,0.5c-0.2,0.1-0.3,0.1-0.5,0.1c-0.1,0-0.2,0-0.2-0.1s-0.1-0.1-0.1-0.2
	l-0.3-0.7c-0.1-0.2-0.1-0.3-0.2-0.5v-0.1c0,0.3,0,0.7,0,0.9C170.5,95.5,170.2,95.7,170,95.9z"/>
<path class="st1" d="M149.6,82.5c0.5,0.4,0.9,0.8,1.2,1.3c0.4,0.7,0.5,1.4,0.4,2.2c0,0.1-0.1,0.3-0.1,0.4h0.5c0.9,0,1.9,0.2,2.8,0.4
	c0.6,0.1,1.1,0.3,1.6,0.6c0.5,0.2,0.9,0.6,1.4,0.9c0.5,0.6,0.8,1.1,1,1.9c0,0.1,0,0.2,0.1,0.3c0.1-0.1,0.1-0.2,0.1-0.3
	c0.5-0.9,1.2-1.7,2.2-2.1c0.6-0.2,1.1-0.4,1.7-0.4c0.8-0.1,1.5-0.1,2.3,0c0.5,0,1,0.1,1.5,0.2c0.1,0,0.2,0,0.3,0l0,0
	c0-0.2,0-0.4,0-0.7c0-0.6,0.2-1.1,0.6-1.5c0.4-0.5,0.8-0.8,1.3-1c0.6-0.3,1.1-0.6,1.7-0.7l0,0l-7.2-0.7c-0.1,0-0.1,0-0.1,0.1
	c-0.1,0.2-0.1,0.4-0.3,0.6c-0.2,0.5-0.7,0.8-1.1,0.8c-0.4,0.1-0.8,0.1-1.1,0.1c-0.1,0-0.3,0-0.4-0.1c-0.1,0-0.1-0.1-0.1-0.2v-1.2
	c-0.1,0.3-0.2,0.6-0.3,0.8c-0.3-0.1-0.7-0.1-0.9-0.1c0-0.3-0.1-0.6-0.1-0.8v0.1c0,0-0.1,0.3-0.1,0.4l-0.1,0.8c0,0.1-0.1,0.2-0.2,0.2
	c-0.1,0-0.3,0-0.4,0c-0.3-0.1-0.7-0.2-0.9-0.2c-0.5-0.1-0.8-0.5-1-0.8c-0.1-0.3-0.2-0.6-0.2-0.8c0-0.1,0-0.1-0.1-0.1l-7.2-0.7l0,0
	h0.1C148.8,82.1,149.2,82.3,149.6,82.5z"/>
<path class="st1" d="M217.9,95.5l-13.6,6.2c-0.1,0-0.1,0.1-0.1,0.2c0.1,0.4,0.2,0.8,0.2,1.3c0.1,1-0.4,2-1.1,2.6
	c-0.6,0.5-1.2,0.9-2,1.2c-0.3,0.1-0.6,0.3-0.8,0.3c-0.2,0.1-0.3,0-0.4-0.2c-0.1-0.1-0.1-0.2-0.2-0.3c-0.2-0.4-0.5-0.8-0.7-1.2
	c-0.2-0.5-0.3-0.5-0.5-0.8l-0.1-0.1c0.1,0.6,0.2,1.1,0.3,1.7c-0.7,0.2-1.2,0.4-1.8,0.8l-1.1-1.4c0,0.1,0,0.2,0,0.3
	c0.1,0.3,0.2,0.6,0.3,0.8c0.2,0.5,0.4,0.9,0.5,1.4c0.1,0.2,0,0.4-0.2,0.5c-0.3,0.2-0.5,0.3-0.8,0.4c-0.7,0.2-1.2,0.4-1.9,0.6
	c-0.9,0.3-2,0.1-2.7-0.6c-0.5-0.4-0.8-0.8-1.1-1.2c-0.1-0.1-0.1-0.1-0.2-0.1l-13.6,6.2h-0.1h0.1c0.9-0.1,2,0,2.9,0.1
	c1.3,0.1,2.5,0.5,3.7,1c1.4,0.8,2.4,2,2.8,3.5c0.1,0.3,0.2,0.6,0.3,0.8l0,0l0.8-0.5c1.7-0.9,3.6-1.7,5.5-2.3
	c1.1-0.4,2.4-0.6,3.5-0.7c1.2-0.1,2.4,0,3.6,0.3c1.4,0.4,2.7,1.2,3.8,2.3l0.5,0.5c0-0.2,0-0.5-0.1-0.7c-0.2-2.2,0.5-4.3,1.8-6
	c0.8-0.9,1.7-1.8,2.6-2.5c1.2-0.9,2.6-1.7,4.1-2.4c0.9-0.5,1.9-0.8,2.8-1.2l0.6-0.2V106c-0.3-0.4-0.5-0.8-0.7-1.1
	c-0.6-1-0.8-2.3-0.7-3.4c0.2-1.1,0.7-2.3,1.3-3.3C216.2,97.5,217.1,96.5,217.9,95.5L217.9,95.5L217.9,95.5L217.9,95.5z"/>
<g>
	<g>
		<path class="st1" d="M149.4,66.5c-7.6,0-14.6-2.9-20-8.3s-8.3-12.4-8.3-20s2.9-14.6,8.3-20s12.4-8.3,20-8.3s14.6,2.9,20,8.3
			s8.3,12.4,8.3,20s-2.9,14.6-8.3,20S156.8,66.5,149.4,66.5z M149.4,12.3c-14.3,0-25.9,11.7-25.9,25.9s11.7,25.9,25.9,25.9
			s25.9-11.7,25.9-25.9S163.7,12.3,149.4,12.3z"/>
		<path class="st1" d="M161.1,50V26.7L150,37.8l-2.9-2.9l8.3-8.2h-4.1l-10.3,10.2V26.7h-3.1v17.3l7.3-7.1l2.9,2.9l-10.2,10.1h3.8
			l8.3-8.2l8.2,8.2l0,0h2.9V50z M152,39.8l6.1-6.1L158,45.8L152,39.8z"/>
	</g>
	<g>
		<text transform="matrix(1 0 0 1 121.9756 73.8135)" class="st1 st2 st3">kryptoadvisor.com</text>
	</g>
</g>
<text transform="matrix(1 0 0 1 180.3212 34.9208)" class="st1 st4 st5">presents</text>
</svg>
