<?xml version="1.0" encoding="utf-8"?>
<!-- Generator: Adobe Illustrator 22.0.1, SVG Export Plug-In . SVG Version: 6.00 Build 0)  -->
<svg version="1.1" id="Layer_1" xmlns="http://www.w3.org/2000/svg" xmlns:xlink="http://www.w3.org/1999/xlink" x="0px" y="0px"
	 viewBox="0 0 500 300" style="enable-background:new 0 0 500 300;" xml:space="preserve">
<style type="text/css">
	.st0{fill:#FFFFFF;}
</style>
<title>undercon</title>
<path class="st0" d="M167.3,232.2h-4v-14.7l-6.9,14.7h-3.8l-7.3-15v15h-4v-23.9h4.1l9.1,18.6l8.7-18.6h4.1L167.3,232.2z"/>
<path class="st0" d="M183.7,229.4h-8.4l-1,2.8H170l9.5-24.6l9.5,24.6h-4.3L183.7,229.4z M176.6,226h5.8l-2.9-8.3L176.6,226z"/>
<path class="st0" d="M204.2,232.2l-6.2-10h-2.3v10h-4v-13.9h3.8l-3.8-6v-4h7.9c0,0,8,0,8,7c0,4.2-2.9,5.9-5.3,6.6l6.6,10.4h-4.7
	V232.2z M200.2,218.2c1.1-0.1,3.5-0.6,3.5-3c0-3-4-3-4-3h-3.2L200.2,218.2z"/>
<path class="st0" d="M229,208.3l-9.5,24.9l-9.5-24.9H229z M219.5,222.4l3.7-10.2h-7.3L219.5,222.4z"/>
<path class="st0" d="M246.8,212.3h-15.9v-4h15.9V212.3z M246.8,222.2h-15.9v-4h15.9V222.2z M230.8,232.2v-4h15.9v4H230.8z"/>
<path class="st0" d="M264.3,228.2v4h-12.8v-23.9h4v19.9H264.3z"/>
<path class="st0" d="M296.8,208.3l-9.5,24.5l-9.5-24.5h4.3l5.2,14.1l5.3-14.1H296.8z"/>
<path class="st0" d="M298.6,225.6h4c0.1,2,1.7,3,3.5,3c1.8,0.1,3.3-1.2,3.5-3l0,0c-0.1-1.8-1.6-3.3-3.5-3.3c-1.2,0-2.5-0.3-3.6-0.8
	c-2.4-1-4-3.5-3.9-6.1c-0.1-4,3.1-7.3,7.1-7.4c0.1,0,0.2,0,0.4,0c4.1,0,7.3,2.8,7.4,6.9h-4c-0.1-2-1.6-2.9-3.4-2.9
	c-1.8-0.1-3.3,1.2-3.5,2.9c0,0.1,0,0.2,0,0.4c0,2,1.7,3,3.5,3c1.2,0,2.4,0.3,3.5,0.8c2.5,1.2,4,3.7,3.9,6.4c0,4.6-3.6,7-7.4,7
	C302,232.4,298.7,230,298.6,225.6z"/>
<path class="st0" d="M333.8,208.3c5.8,0,14,1.3,14,11.9c0,10.2-8,11.9-14,11.9h-4v-23.9h4V208.3z M343.7,220.3
	c0-9.5-9.9-8.1-9.9-8.1v16.1C333.8,228.3,343.7,229.7,343.7,220.3z"/>
<path class="st0" d="M369.1,225.9l2.8,2.8c-4.6,4.7-12.2,4.8-17,0.1s-4.8-12.2-0.1-17c2.3-2.3,5.4-3.6,8.7-3.6
	c3.2,0,6.2,1.2,8.4,3.5l-2.8,2.8c-3.1-3.1-8.1-3.1-11.2,0s-3.1,8.1,0,11.2C361,229,366,229,369.1,225.9z M363.4,216.6
	c-2,0-3.7,1.7-3.7,3.7s1.7,3.7,3.7,3.7s3.7-1.7,3.7-3.7l0,0C367.1,218.2,365.5,216.6,363.4,216.6L363.4,216.6z"/>
<path class="st0" d="M146.3,253H142l-0.5,1.4h-2.2l4.8-12.5l4.9,12.5h-2.2L146.3,253z M142.7,251.3h2.9l-1.5-4.2L142.7,251.3z"/>
<path class="st0" d="M160.4,254.4h-2l-6-8.6v8.6h-2v-12.1h2l6,8.6v-8.6h2V254.4z"/>
<path class="st0" d="M175.1,250.5v-8.2h2v8.2c0.1,1.2,1.2,2.1,2.4,2h0.1c1.3,0,2.5-0.7,2.5-2v-8.2h2v8.2c0,2.6-2,4.1-4.6,4.1
	S175.1,253,175.1,250.5z"/>
<path class="st0" d="M197,254.4h-2l-6-8.6v8.6h-2v-12.1h2l6,8.6v-8.6h2V254.4z"/>
<path class="st0" d="M201.8,244.3v3h5v2h-5v3h6v2h-8.1v-12.1h8.1v2L201.8,244.3z"/>
<path class="st0" d="M220,254.4h-2l-6-8.6v8.6h-2v-12.1h2l6,8.6v-8.6h2V254.4z"/>
<path class="st0" d="M224.8,242.3c2.9,0,7.1,0.7,7.1,6.1c0,5.2-4.1,6.1-7.1,6.1h-2v-12.1h2V242.3z M229.8,248.3c0-4.8-5-4.1-5-4.1
	v8.2C224.8,252.4,229.8,253.1,229.8,248.3L229.8,248.3z"/>
<path class="st0" d="M236.9,244.1v8.4h1.4v1.9h-4.9v-1.9h1.4v-8.4h-1.4v-1.9h4.7v1.9H236.9z"/>
<path class="st0" d="M250.4,254.4h-2l-6-8.6v8.6h-2v-12.1h2l6,8.6v-8.6h2V254.4z"/>
<path class="st0" d="M263.9,247.5v7h-1.8l-0.1-1.1c-0.9,0.9-2.2,1.3-3.4,1.3c-3.3,0-5.8-2.3-5.8-6.2c-0.1-3.3,2.5-6.1,5.9-6.2l0,0
	h0.2c1.6,0,3.1,0.6,4.3,1.8l-1.4,1.4c-0.8-0.8-1.8-1.2-2.9-1.2c-2.2,0-4,1.7-4,3.8c0,0.1,0,0.2,0,0.4c0,3,1.8,4.2,4,4.2
	c1.2,0,2.2-0.5,3-1.4v-1.8h-2v-1.9L263.9,247.5z"/>
<path class="st0" d="M280.5,244.3v3h5v2h-5v3h6v2h-8.1v-12.1h8.1v2L280.5,244.3z"/>
<path class="st0" d="M301.7,254.4h-2V247l-3.5,7.4h-1.9l-3.7-7.6v7.6h-2v-12.2h2.1l4.6,9.4l4.4-9.4h2V254.4z"/>
<path class="st0" d="M304.5,250.5v-8.2h2v8.2c0.1,1.2,1.2,2.1,2.4,2h0.1c1.3,0,2.5-0.7,2.5-2v-8.2h2v8.2c0,2.6-2,4.1-4.5,4.1
	S304.5,253,304.5,250.5z"/>
<path class="st0" d="M322.8,252.4v2h-6.5v-12.1h2v10.1H322.8z"/>
<path class="st0" d="M323.6,254.4l4.8-12.5l4.8,12.5H323.6z M328.4,247.4l-1.9,5h3.7L328.4,247.4z"/>
<path class="st0" d="M340.6,244.1H338v10.3h-2v-10.3h-2.5v-1.9h7.1V244.1z"/>
<path class="st0" d="M344.9,244.1v8.4h1.4v1.9h-4.9v-1.9h1.4v-8.4h-1.4v-1.9h4.7v1.9H344.9z"/>
<path class="st0" d="M353.8,254.6c-8,0-8-12.4,0-12.4S361.8,254.6,353.8,254.6z M353.8,244.1c-5.2,0-5.3,8.5,0,8.5
	S359.1,244.1,353.8,244.1z"/>
<path class="st0" d="M372.2,254.4h-2l-6-8.6v8.6h-2v-12.1h2l6,8.6v-8.6h2V254.4z"/>
<path class="st0" d="M205,277.5h-2.1v-10.3L201,268l-0.7-1.5l2.9-1.6h1.8V277.5z"/>
<path class="st0" d="M207.1,274h2.1c-0.1,0.8,0.5,1.5,1.3,1.6l0,0h0.3c0.9,0.1,1.7-0.6,1.8-1.6l0,0v-0.2c0-0.9-0.3-2.1-1.8-2.1h-3.6
	v-6.8h6.8v2h-4.7v2.9h1.5c2.7,0,3.9,1.6,3.9,4.1c0.1,2.1-1.6,3.8-3.6,3.8l0,0h-0.2c-1.9,0.1-3.6-1.3-3.7-3.2
	C207.1,274.3,207.1,274.2,207.1,274z"/>
<path class="st0" d="M220,265.3h-1.6v6.3h-1.2v-6.3h-1.6v-1.1h4.3v1.1H220z"/>
<path class="st0" d="M226.5,264.1v7.4h-1.2v-3.1h-3.1v3.1H221v-7.4h1.2v3h3.1V264L226.5,264.1z"/>
<path class="st0" d="M240.7,272.1h-6.4v-1.9h6.4V272.1z"/>
<path class="st0" d="M252.5,277.5h-2.1v-10.3l-1.9,0.7l-0.7-1.5l2.9-1.6h1.8V277.5z"/>
<path class="st0" d="M254.6,272.7l2.7-7.8h2.2l-2,5.6c0.3-0.1,0.6-0.2,1-0.2c1.9,0.1,3.3,1.7,3.2,3.6v0.1c0,2-1.7,3.7-3.7,3.7
	C255.4,277.7,253.9,275.2,254.6,272.7z M256.4,274c0,0.9,0.7,1.6,1.6,1.6s1.6-0.7,1.6-1.6s-0.7-1.6-1.6-1.6c-0.7,0-1.2,0.4-1.5,1
	C256.5,273.6,256.4,273.8,256.4,274L256.4,274z"/>
<path class="st0" d="M266.9,265.3h-1.5v6.3h-1.2v-6.3h-1.5v-1.1h4.3L266.9,265.3L266.9,265.3z"/>
<path class="st0" d="M273.5,264.1v7.4h-1.2v-3.1h-3.1v3.1H268v-7.4h1.2v3h3.1V264L273.5,264.1z"/>
<path class="st0" d="M284.2,267v3.2h5.3v2.1h-5.3v5.3H282v-12.7h8.4v2.1H284.2z"/>
<path class="st0" d="M294.6,267v3.2h5.3v2.1h-5.3v3.2h6.4v2.1h-8.4v-12.7h8.4v2.1L294.6,267L294.6,267z"/>
<path class="st0" d="M311.8,273.9c0,3.5-3.5,3.6-4.4,3.6h-4.2v-12.6h4.2c0,0,4.2-0.1,4.2,3.6c0.1,1.3-0.8,2.5-2.1,2.8
	C310.8,271.4,311.8,272.6,311.8,273.9z M305.2,270.2h2.1c0,0,2.1,0,2.1-1.6s-2.1-1.6-2.1-1.6h-2.1V270.2z M309.6,273.9
	c0-1.7-2.3-1.6-2.3-1.6h-2.1v3.2h2.1C308.2,275.5,309.6,275.2,309.6,273.9L309.6,273.9z"/>
<path class="st0" d="M105.7,176.8c-3.9,2.8-8.6,4.2-14.3,4.2c-8.5,0-15.4-2.8-20.8-8.5s-8-13.1-8-22.2c0-9.3,2.6-16.8,7.7-22.3
	c5.1-5.6,12-8.4,20.6-8.4c5.9,0,10.7,1.3,14.5,4s6.5,6.7,8.3,12.2h7.9v-23.7h-8.3v7.1c-2.7-2.9-6-5.1-9.8-6.4
	c-4.2-1.5-8.7-2.3-13.2-2.2c-9.6,0-17.7,2.9-24.4,8.6c-2.1-1.8-4.1-3.6-6.3-5.2c-1.9-1.4-4.3-1.3-6.5-1.3
	c-10.5,0.1-21.1,0.3-31.6,0.5c-4.9,0.1-9.7,0.2-14.6,0.3c-0.3,0-0.6,0-1.2,0.1c1.2,0.9,2.2,1.7,3.2,2.3c2.7,1.9,5.8,3.4,8.9,4.4
	c1.1,0.3,2.3,0.4,3.4,0.6c0.4,0.1,0.9,0.2,1.3,0.5c2.4,2,4.9,3.7,8.2,4c0.3,0.1,0.6,0.2,0.8,0.5c1.9,2.5,4.9,3.8,8.1,3.6
	c2.7-0.1,5.4-0.1,8.1-0.2c1.5-0.1,2.9,0.5,3.8,1.8c1,1.3,2.2,2.6,3.4,4c-1.7,4.9-2.6,10-2.6,15.1c0,11.5,3.6,21,10.9,28.4
	c7.3,7.5,16.6,11.2,27.9,11.1c8.5,0,15.7-2.2,21.5-6.7s9.7-10.8,11.7-18.8h-9.4C112.6,169.9,109.6,174.1,105.7,176.8z M24.1,120.5
	c3.5-0.1,6.6-0.2,9.7-0.3c6-0.1,12-0.3,18-0.4c1.8,0,3.5,0.8,4.5,2.3l-2.2,3.1c-0.5-0.3-0.9-0.6-1.3-1c-1.1-1-2.6-1.5-4.1-1.3
	c-5.5,0.2-11,0.5-16.4,0.7C29.3,123.7,26.3,122.6,24.1,120.5z M48.2,127.5c-2.5,0-5.1,0.2-7.6,0.3c-2.8,0.2-5.7-0.8-7.6-2.9
	c5.3-0.1,10.4-0.2,15.5-0.4c1.9-0.1,3.7,0.7,4.9,2.1c-0.6,0.7-1.1,1.4-1.3,1.7C50.7,127.9,49.4,127.7,48.2,127.5L48.2,127.5z
	 M55.1,133c-0.5-0.6-1-1.1-1.5-1.7c-0.9-0.8-0.9-1.4-0.1-2.4c1.7-2.3,3.3-4.7,4.9-7.1c-2.1-2.2-4.3-3.7-7.5-3.5
	c-4,0.2-8.1,0.3-12.2,0.4c-5.2,0.1-10.3,0.3-15.5,0.4c-3.7,0.2-7.3-0.8-10.4-3c-0.4-0.3-0.7-0.6-1.3-1.1l6.9-0.1
	c6.4-0.1,12.7-0.2,19-0.2c5.7,0,11.3,0,17,0c1.9,0,3.8,0.7,5.2,2c1.3,1.2,2.7,2.4,4,3.7c-0.5,0.8-1.1,1.5-1.5,2.2
	c-2.2,2.4-4.1,5.2-5.7,8.1L55.1,133z"/>
<path class="st0" d="M197,165.9c0-5.6-0.7-9.6-2.1-11.9s-4-4-7.8-5c4.6-2,7.9-4.5,10-7.3c2.1-3.1,3.2-6.8,3.1-10.5
	c0-6.5-2.1-11.3-6.3-14.4s-10.6-4.7-19.4-4.7h-32.7v7.7h8.3v61h-8.3v7.6h26.7v-7.6h-8.3v-28.3h12.3c5.6,0,9.4,1,11.4,2.9
	s3.1,5.9,3.1,12v21h18.4v-7.6H197V165.9z M185.3,141.8c-2.9,2-7.7,3-14.2,3h-10.9v-25.1h10.9c6.8,0,11.6,1,14.4,2.9
	c2.8,1.9,4.2,5.1,4.2,9.7C189.7,136.6,188.3,139.8,185.3,141.8L185.3,141.8z"/>
<polygon class="st0" points="444.6,167.6 412.4,112.1 393.3,112.1 393.3,119.7 401.9,119.7 401.9,180.8 393.3,180.8 393.3,188.4 
	419.7,188.4 419.7,180.8 411.3,180.8 411.3,129.6 445.4,188.2 454,188.2 454,150.6 444.6,150.6 "/>
<path class="st0" d="M372.6,112.5H305l3,9h13.1c-2.2,1.4-4.3,3-6.2,4.9c-3.1,3.1-5.5,6.8-7.2,10.9c-6.5,15.5-0.8,33.3,13.4,42.2H308
	l-3,9.1h67.7l-3-9.1h-13.2c6-3.7,10.7-9.2,13.4-15.8c1.8-4.2,2.7-8.7,2.6-13.2c0.1-9-3.4-17.8-9.9-24.1c-1.9-1.9-3.9-3.5-6.2-4.9
	h13.1L372.6,112.5z M364.5,150.6c0.1,6.9-2.6,13.5-7.5,18.3c-9.8,10-26,10.2-36,0.3l0,0l-0.3-0.3c-10-10.1-10-26.5,0-36.6
	c9.8-10,25.9-10.1,35.9-0.3l0,0l0.3,0.3C361.9,137.1,364.6,143.7,364.5,150.6L364.5,150.6z"/>
<polygon class="st0" points="236.4,72.8 231.1,72.8 231.1,77.7 248.1,77.7 248.1,72.8 242.5,72.8 242.5,33.3 248.1,33.3 248.1,28.4 
	233.1,28.4 218.8,56.2 204.4,28.4 188.6,28.4 188.6,33.3 194.1,33.3 194.1,72.8 188.6,72.8 188.6,77.7 205.6,77.7 205.6,72.8 
	200.2,72.8 200.2,34.6 216.6,66.1 220.5,66.1 236.4,34.6 "/>
<polygon class="st0" points="275.9,72.8 270.5,72.8 270.5,33.3 275.9,33.3 275.9,28.4 258.6,28.4 258.6,33.3 263.9,33.3 263.9,72.8 
	258.6,72.8 258.6,77.7 275.9,77.7 "/>
<polygon class="st0" points="295.8,72.8 295.8,77.7 313.1,77.7 313.1,72.8 307.7,72.8 307.7,33.3 317,33.3 317,42.1 322.6,42.1 
	322.6,28.4 286.2,28.4 286.2,42.1 291.8,42.1 291.8,33.3 301.2,33.3 301.2,72.8 "/>
<path class="st0" d="M275,111.8c-10.8-2.3-18.8-8.2-23.6-18.3c-0.4-0.8-0.7-1.7-1.1-2.6c-5,12.2-13.8,19.1-26.3,21.1h-3.1v7.7h8.3
	v61h-8.3v7.6h59v-22.5h-9v14.9h-31.6v-28.4h26.5V144h-26.5v-24.3H271v13h9V112h-3.3C276,112,275.5,111.9,275,111.8z M246.5,112
	c0.4-1.1,0.6-2.2,1.1-3.3c0.3-0.5,0.2-1.2-0.4-1.5l0,0l-0.1-0.1c-1-0.6-1.9-1.4-2.8-2.1l0.1-0.3c1.1,0,2.1-0.1,3.2,0
	s1.5-0.2,1.7-1.2c0.3-1.1,0.7-2.2,1.2-3.1c0.4,1.1,0.8,2.2,1.1,3.3c0.1,0.6,0.6,1.1,1.2,1h0.2c1.1-0.1,2.2,0,3.3,0l0.1,0.3
	c-0.9,0.7-1.7,1.3-2.6,1.9c-0.6,0.3-0.9,1-0.6,1.6l0,0l0.1,0.1c0.4,1,0.7,2.1,0.8,3.2H254c-0.9-0.6-1.8-1.2-2.6-1.9
	c-0.4-0.5-1.1-0.5-1.6-0.1l0,0l-0.1,0.1c-0.8,0.7-1.7,1.3-2.6,1.9h-0.6L246.5,112L246.5,112z"/>
<path class="st0" d="M432.3,109.9h33.6c0.1-10.1,0.1-20.4,0.2-30.7h-33.6C432.4,89.4,432.3,99.7,432.3,109.9z"/>
<path class="st0" d="M471.6,84.7c0-0.5,0.1-1.1-0.2-1.4c-1-1.3-2.2-2.6-3.4-3.9c0,10.3-0.1,20.3-0.2,30.8c0.8-1,1.7-2,2.6-3
	c0.8-0.8,1.2-1.9,1.1-3C471.6,97.7,471.6,91.2,471.6,84.7z"/>
<path class="st0" d="M430.4,109.9c0-10.3,0.1-20.3,0.1-30.7c-1.1,1.2-2.1,2.1-2.9,3.2c-0.5,0.6-0.7,1.3-0.8,2
	c-0.1,6.8-0.1,13.6-0.1,20.4c0,0.4,0,0.9,0.2,1.1C428.1,107.3,429.2,108.6,430.4,109.9z"/>
<path class="st0" d="M453.9,121.3c-0.1-0.4-0.3-0.8-0.6-1c-2.9-1.6-5.8-3.1-8.7-4.7c-0.1,0.2-0.1,0.3-0.1,0.3
	c-0.2,3.7-0.2,3.7,3,5.4l6.7,3.5C454.1,123.4,454.1,122.4,453.9,121.3z"/>
<path class="st0" d="M453.9,126.7c-0.1-0.2-0.2-0.4-0.4-0.5l-9-4.8c0,1.3-0.1,2.4,0,3.5c0.1,0.4,0.3,0.7,0.7,0.9
	c2.8,1.6,5.7,3.1,8.8,4.8C453.9,129.1,454,127.9,453.9,126.7z"/>
<path class="st0" d="M453.9,132.1c-0.1-0.2-0.2-0.4-0.4-0.5l-9-4.8c0,1.3-0.1,2.4,0,3.5c0.1,0.4,0.3,0.7,0.7,0.9
	c2.8,1.6,5.7,3.1,8.8,4.8C453.9,134.5,453.9,133.3,453.9,132.1z"/>
<path class="st0" d="M453.9,137.6c-0.1-0.2-0.2-0.4-0.4-0.5l-9-4.8c0,1.3-0.1,2.4,0,3.5c0.1,0.4,0.3,0.7,0.7,0.9
	c2.8,1.6,5.7,3.1,8.8,4.8C453.9,140.1,453.9,138.9,453.9,137.6z"/>
<path class="st0" d="M453.7,114.1l-9.2-0.1l9.1,4.9C453.7,117.2,453.7,115.6,453.7,114.1z"/>
<path class="st0" d="M444.5,142.4l9.2,0.1l-9.1-4.9C444.6,139.3,444.6,140.9,444.5,142.4z"/>
<path class="st0" d="M454,76.3l-9.4-0.1c0,0.5,0,1,0,1.3h9.4C453.9,77.2,454,76.8,454,76.3z"/>
<rect x="446.2" y="140.2" transform="matrix(2.094427e-03 -1 1 2.094427e-03 301.7929 595.2938)" class="st0" width="6" height="12.5"/>
<rect x="443.6" y="111.2" class="st0" width="11.3" height="1.7"/>
<path class="st0" d="M144.1,99.5c0.7,0.5,1.2,1.1,1.7,1.7c0.6,0.9,0.9,1.9,0.9,2.9v0.4c0.1-0.1,0.2-0.3,0.3-0.4
	c0.9-1.2,2.2-2,3.7-2.3c0.8-0.1,1.7-0.2,2.5-0.1c1.1,0.1,2.1,0.3,3.1,0.6c0.7,0.2,1.4,0.4,2,0.7l0.4,0.1V103c0-0.3,0.1-0.6,0.1-0.9
	c0.2-0.8,0.6-1.5,1.2-2.1c0.6-0.5,1.3-0.9,2.1-1.2c0.8-0.2,1.7-0.4,2.6-0.5h0.1h-0.1l-9.8-3h-0.1l0,0c-0.1,0.3-0.3,0.5-0.5,0.8
	c-0.4,0.6-1.1,0.9-1.8,0.8c-0.5,0-1-0.1-1.6-0.2c-0.2-0.1-0.4-0.1-0.6-0.2c-0.1,0-0.2-0.1-0.1-0.3c0-0.1,0-0.1,0-0.2
	c0.1-0.3,0.1-0.6,0.2-0.9s0.1-0.4,0.1-0.6v-0.1l-0.6,1c-0.4-0.2-0.8-0.3-1.3-0.4c0-0.4,0-0.8,0.1-1.2l-0.1,0.1l-0.2,0.6l-0.4,1
	c0,0.1-0.2,0.2-0.3,0.2c-0.2,0-0.4-0.1-0.6-0.2c-0.4-0.2-0.8-0.4-1.2-0.6c-0.6-0.3-1-0.8-1.1-1.5c-0.1-0.4-0.1-0.8,0-1.2
	c0-0.1,0-0.1-0.1-0.1l-9.8-3h-0.1c0,0,0,0.1,0.1,0.1c0.5,0.4,1,0.9,1.5,1.4c0.6,0.6,1.1,1.4,1.4,2.2c0.4,1,0.3,2.1-0.1,3.1
	c-0.1,0.2-0.2,0.3-0.3,0.5l0,0l0.7,0.2c1.3,0.3,2.6,0.7,3.8,1.3C142.7,98.6,143.4,99,144.1,99.5z"/>
<path class="st0" d="M165.9,85.1c-0.2-0.3-0.3-0.6-0.5-0.8v0.1l0.1,0.5c0.1,0.3,0.1,0.5,0.2,0.8c0,0.1,0,0.2-0.1,0.3
	c-0.1,0.1-0.3,0.1-0.5,0.2c-0.4,0.1-0.7,0.1-1.1,0.2c-0.5,0.1-1.1-0.1-1.4-0.5c-0.2-0.2-0.4-0.5-0.5-0.8H162l0,0l-8,2.4l0,0
	c0.6,0.1,1.1,0.1,1.6,0.3c0.7,0.2,1.4,0.4,2,0.9c0.7,0.5,1.2,1.3,1.3,2.2c0,0.2,0,0.3,0.1,0.5l0,0l0.5-0.2c1-0.4,2.1-0.7,3.2-0.9
	c0.7-0.1,1.3-0.2,2-0.1c0.7,0,1.3,0.2,1.9,0.4c0.7,0.3,1.4,0.9,1.9,1.5l0.2,0.3V92c0.1-1.2,0.6-2.4,1.5-3.3c0.5-0.5,1.1-0.9,1.7-1.2
	c0.8-0.4,1.6-0.8,2.4-1c0.6-0.2,1.1-0.3,1.7-0.5l0.3-0.1v-0.1c-0.1-0.2-0.2-0.4-0.3-0.7c-0.2-0.6-0.3-1.3-0.1-2
	c0.2-0.6,0.5-1.2,0.9-1.8c0.5-0.6,1-1.1,1.6-1.5l0.1-0.1h-0.1l-8.1,2.4c0,0-0.1,0-0.1,0.1c0,0.2,0,0.5,0,0.7c0,0.6-0.3,1.1-0.9,1.4
	c-0.4,0.2-0.8,0.4-1.2,0.5c-0.2,0.1-0.3,0.1-0.5,0.1c-0.1,0-0.2,0-0.2-0.1s-0.1-0.1-0.1-0.2l-0.3-0.7c-0.1-0.2-0.1-0.3-0.2-0.5v-0.1
	c0,0.3,0,0.7,0,1C166.5,84.7,166.2,84.9,165.9,85.1z"/>
<path class="st0" d="M144.3,71c0.5,0.4,1,0.9,1.3,1.4c0.4,0.7,0.5,1.5,0.4,2.3c0,0.1-0.1,0.3-0.1,0.4h0.5c1,0,2,0.2,3,0.4
	c0.6,0.1,1.2,0.3,1.7,0.6c0.5,0.2,1,0.6,1.5,1c0.5,0.6,0.9,1.2,1.1,2c0,0.1,0,0.2,0.1,0.3c0.1-0.1,0.1-0.2,0.1-0.3
	c0.5-1,1.3-1.8,2.3-2.2c0.6-0.2,1.2-0.4,1.8-0.4c0.8-0.1,1.6-0.1,2.4,0c0.5,0,1.1,0.1,1.6,0.2c0.1,0,0.2,0,0.3,0l0,0
	c0-0.2,0-0.4,0-0.7c0-0.6,0.2-1.2,0.6-1.6c0.4-0.5,0.8-0.9,1.4-1.1c0.6-0.3,1.2-0.6,1.8-0.7l0,0l-7.6-0.7c-0.1,0-0.1,0-0.1,0.1
	c-0.1,0.2-0.1,0.4-0.3,0.6c-0.2,0.5-0.7,0.8-1.2,0.9c-0.4,0.1-0.8,0.1-1.2,0.1c-0.1,0-0.3,0-0.4-0.1c-0.1,0-0.1-0.1-0.1-0.2V72
	c-0.1,0.3-0.2,0.6-0.3,0.8c-0.3-0.1-0.7-0.1-1-0.1c0-0.3-0.1-0.6-0.1-0.9v0.1c0,0-0.1,0.3-0.1,0.4l-0.1,0.8c0,0.1-0.1,0.2-0.2,0.2
	c-0.1,0-0.3,0-0.4,0c-0.3-0.1-0.7-0.2-1-0.2c-0.5-0.1-0.9-0.5-1.1-0.9c-0.1-0.3-0.2-0.6-0.2-0.8c0-0.1,0-0.1-0.1-0.1l-7.6-0.7l0,0
	h0.1C143.5,70.5,143.9,70.7,144.3,71z"/>
<path class="st0" d="M216.7,84.7l-14.4,6.6c-0.1,0-0.1,0.1-0.1,0.2c0.1,0.4,0.2,0.9,0.2,1.4c0.1,1.1-0.4,2.1-1.2,2.8
	c-0.6,0.5-1.3,1-2.1,1.3c-0.3,0.1-0.6,0.3-0.9,0.3c-0.2,0.1-0.3,0-0.4-0.2c-0.1-0.1-0.1-0.2-0.2-0.3c-0.2-0.4-0.5-0.8-0.7-1.3
	s-0.3-0.5-0.5-0.8l-0.1-0.1c0.1,0.6,0.2,1.2,0.3,1.8c-0.7,0.2-1.3,0.4-1.9,0.8l-1.2-1.5c0,0.1,0,0.2,0,0.3c0.1,0.3,0.2,0.6,0.3,0.9
	c0.2,0.5,0.4,1,0.5,1.5c0.1,0.2,0,0.4-0.2,0.5c-0.3,0.2-0.5,0.3-0.8,0.4c-0.7,0.2-1.3,0.4-2,0.6c-1,0.3-2.1,0.1-2.9-0.6
	c-0.5-0.4-0.9-0.8-1.2-1.3c-0.1-0.1-0.1-0.1-0.2-0.1l-14.4,6.6h-0.1h0.1c1-0.1,2.1,0,3.1,0.1c1.4,0.1,2.7,0.5,3.9,1.1
	c1.5,0.8,2.5,2.1,3,3.7c0.1,0.3,0.2,0.6,0.3,0.9l0,0l0.9-0.5c1.8-1,3.8-1.8,5.8-2.4c1.2-0.4,2.5-0.6,3.7-0.7c1.3-0.1,2.5,0,3.8,0.3
	c1.5,0.4,2.9,1.3,4,2.4l0.5,0.5c0-0.2,0-0.5-0.1-0.7c-0.2-2.3,0.5-4.6,1.9-6.4c0.8-1,1.8-1.9,2.8-2.7c1.3-1,2.8-1.8,4.3-2.5
	c1-0.5,2-0.9,3-1.3l0.6-0.2V96c-0.3-0.4-0.5-0.8-0.7-1.2c-0.6-1.1-0.9-2.4-0.7-3.6s0.7-2.4,1.4-3.5
	C214.9,86.8,215.8,85.8,216.7,84.7h0.1l0,0H216.7z"/>
</svg>
