<svg id="Layer_1" data-name="Layer 1" xmlns="http://www.w3.org/2000/svg" viewBox="0 0 465.92 161.4"><title>logoheaderblack</title><path d="M105.7,218.8A23.73,23.73,0,0,1,91.4,223c-8.5,0-15.4-2.8-20.8-8.5s-8-13.1-8-22.2c0-9.3,2.6-16.8,7.7-22.3s12-8.4,20.6-8.4c5.9,0,10.7,1.3,14.5,4s6.5,6.7,8.3,12.2h7.9V154.1h-8.3v7.1a23.89,23.89,0,0,0-9.8-6.4,37,37,0,0,0-13.2-2.2c-9.6,0-17.7,2.9-24.4,8.6a74,74,0,0,0-6.3-5.1c-1.9-1.4-4.3-1.3-6.5-1.3-10.5.1-21.1.3-31.6.5l-14.6.3a6.25,6.25,0,0,0-1.2.1c1.2.9,2.2,1.7,3.2,2.3a33.57,33.57,0,0,0,8.9,4.4c1.1.3,2.3.4,3.4.6a3.49,3.49,0,0,1,1.3.5c2.4,2,4.9,3.7,8.2,4a1.37,1.37,0,0,1,.8.5,9.3,9.3,0,0,0,8.1,3.6c2.7-.1,5.4-.1,8.1-.2a4.16,4.16,0,0,1,3.8,1.8c1,1.3,2.2,2.6,3.4,4a46.1,46.1,0,0,0-2.6,15.1c0,11.5,3.6,21,10.9,28.4s16.6,11.2,27.9,11.1c8.5,0,15.7-2.2,21.5-6.7s9.7-10.8,11.7-18.8h-9.4C112.6,211.9,109.6,216.1,105.7,218.8ZM24.1,162.5l9.7-.3c6-.1,12-.3,18-.4a5.33,5.33,0,0,1,4.5,2.3l-2.2,3.1a6.42,6.42,0,0,1-1.3-1,5.11,5.11,0,0,0-4.1-1.3c-5.5.2-11,.5-16.4.7A11.38,11.38,0,0,1,24.1,162.5Zm24.1,7c-2.5,0-5.1.2-7.6.3a9.39,9.39,0,0,1-7.6-2.9c5.3-.1,10.4-.2,15.5-.4a6,6,0,0,1,4.9,2.1,19.65,19.65,0,0,0-1.3,1.7,33.89,33.89,0,0,0-3.9-.8Zm6.9,5.5c-.5-.6-1-1.1-1.5-1.7-.9-.8-.9-1.4-.1-2.4,1.7-2.3,3.3-4.7,4.9-7.1-2.1-2.2-4.3-3.7-7.5-3.5-4,.2-8.1.3-12.2.4-5.2.1-10.3.3-15.5.4a16.26,16.26,0,0,1-10.4-3c-.4-.3-.7-.6-1.3-1.1h6.9c6.4-.1,12.7-.2,19-.2h17a7.69,7.69,0,0,1,5.2,2c1.3,1.2,2.7,2.4,4,3.7-.5.8-1.1,1.5-1.5,2.2a42.15,42.15,0,0,0-5.7,8.1Z" transform="translate(-5.7 -70.4)"/><path d="M197,207.9c0-5.6-.7-9.6-2.1-11.9s-4-4-7.8-5c4.6-2,7.9-4.5,10-7.3a18,18,0,0,0,3.1-10.5q0-9.75-6.3-14.4c-4.2-3.1-10.6-4.7-19.4-4.7H141.8v7.7h8.3v61h-8.3v7.6h26.7v-7.6h-8.3V194.5h12.3c5.6,0,9.4,1,11.4,2.9s3.1,5.9,3.1,12v21h18.4v-7.6H197Zm-11.7-24.1c-2.9,2-7.7,3-14.2,3H160.2V161.7h10.9c6.8,0,11.6,1,14.4,2.9s4.2,5.1,4.2,9.7c0,4.3-1.4,7.5-4.4,9.5Z" transform="translate(-5.7 -70.4)"/><polygon points="438.9 139.2 406.7 83.7 387.6 83.7 387.6 91.3 396.2 91.3 396.2 152.4 387.6 152.4 387.6 160 414 160 414 152.4 405.6 152.4 405.6 101.2 439.7 159.8 448.3 159.8 448.3 122.2 438.9 122.2 438.9 139.2"/><path d="M372.6,154.5H305l3,9h13.1a36.1,36.1,0,0,0-6.2,4.9,33.41,33.41,0,0,0-7.2,10.9,34.15,34.15,0,0,0,13.4,42.2H308l-3,9.1h67.7l-3-9.1H356.5a33.39,33.39,0,0,0,13.4-15.8,31.75,31.75,0,0,0,2.6-13.2,33.07,33.07,0,0,0-9.9-24.1,32.63,32.63,0,0,0-6.2-4.9h13.1Zm-8.1,38.1a25.06,25.06,0,0,1-7.5,18.3,25.44,25.44,0,0,1-36,.3h0l-.3-.3a26.08,26.08,0,0,1,0-36.6,25.41,25.41,0,0,1,35.9-.3h0l.3.3a24.76,24.76,0,0,1,7.6,18.3Z" transform="translate(-5.7 -70.4)"/><polygon points="230.7 44.4 225.4 44.4 225.4 49.3 242.4 49.3 242.4 44.4 236.8 44.4 236.8 4.9 242.4 4.9 242.4 0 227.4 0 213.1 27.8 198.7 0 182.9 0 182.9 4.9 188.4 4.9 188.4 44.4 182.9 44.4 182.9 49.3 199.9 49.3 199.9 44.4 194.5 44.4 194.5 6.2 210.9 37.7 214.8 37.7 230.7 6.2 230.7 44.4"/><polygon points="270.2 44.4 264.8 44.4 264.8 4.9 270.2 4.9 270.2 0 252.9 0 252.9 4.9 258.2 4.9 258.2 44.4 252.9 44.4 252.9 49.3 270.2 49.3 270.2 44.4"/><polygon points="290.1 44.4 290.1 49.3 307.4 49.3 307.4 44.4 302 44.4 302 4.9 311.3 4.9 311.3 13.7 316.9 13.7 316.9 0 280.5 0 280.5 13.7 286.1 13.7 286.1 4.9 295.5 4.9 295.5 44.4 290.1 44.4"/><path d="M275,153.8c-10.8-2.3-18.8-8.2-23.6-18.3-.4-.8-.7-1.6-1.1-2.6-5,12.2-13.8,19.1-26.3,21.1h-3.1v7.7h8.3v61h-8.3v7.6h59V207.8h-9v14.9H239.3V194.3h26.5V186H239.3V161.7H271v13h9V154h-3.3A7.93,7.93,0,0,1,275,153.8Zm-28.5.2c.4-1.1.6-2.2,1.1-3.3a1,1,0,0,0-.4-1.5h0l-.1-.1c-1-.6-1.9-1.4-2.8-2l.1-.3c1.1,0,2.1-.1,3.2,0s1.5-.2,1.7-1.2a14.28,14.28,0,0,1,1.2-3.1c.4,1.1.8,2.2,1.1,3.3a1.11,1.11,0,0,0,1.2,1h.2c1.1-.1,2.2,0,3.3,0l.1.3c-.9.7-1.7,1.3-2.6,1.9a1.2,1.2,0,0,0-.6,1.6h0l.1.1a11.56,11.56,0,0,1,.8,3.2H254a24.76,24.76,0,0,1-2.6-1.9,1.12,1.12,0,0,0-1.6-.1h0l-.1.1a24.76,24.76,0,0,1-2.6,1.9h-.6Z" transform="translate(-5.7 -70.4)"/><path d="M432.3,151.9h33.6c.1-10.1.1-20.4.2-30.6H432.5C432.4,131.4,432.3,141.7,432.3,151.9Z" transform="translate(-5.7 -70.4)"/><path d="M471.6,126.7c0-.5.1-1.1-.2-1.4-1-1.3-2.2-2.6-3.4-3.9,0,10.3-.1,20.3-.2,30.8.8-1,1.7-2,2.6-3a3.77,3.77,0,0,0,1.1-3C471.6,139.6,471.6,133.2,471.6,126.7Z" transform="translate(-5.7 -70.4)"/><path d="M430.4,151.9c0-10.3.1-20.3.1-30.7a40,40,0,0,0-2.9,3.2,3.86,3.86,0,0,0-.8,2c-.1,6.8-.1,13.6-.1,20.4,0,.4,0,.9.2,1.1C428.1,149.3,429.2,150.6,430.4,151.9Z" transform="translate(-5.7 -70.4)"/><path d="M453.9,163.3a1.7,1.7,0,0,0-.6-1c-2.9-1.6-5.8-3.1-8.7-4.7a.77.77,0,0,0-.1.3c-.2,3.7-.2,3.7,3,5.4l6.7,3.5A32.74,32.74,0,0,0,453.9,163.3Z" transform="translate(-5.7 -70.4)"/><path d="M453.9,168.7a1,1,0,0,0-.4-.5l-9-4.8c0,1.3-.1,2.4,0,3.5a1.27,1.27,0,0,0,.7.9c2.8,1.6,5.7,3.1,8.8,4.8C453.9,171.1,454,169.9,453.9,168.7Z" transform="translate(-5.7 -70.4)"/><path d="M453.9,174.1a1,1,0,0,0-.4-.5l-9-4.8c0,1.3-.1,2.4,0,3.5a1.27,1.27,0,0,0,.7.9c2.8,1.6,5.7,3.1,8.8,4.8C453.9,176.5,453.9,175.3,453.9,174.1Z" transform="translate(-5.7 -70.4)"/><path d="M453.9,179.6a1,1,0,0,0-.4-.5l-9-4.8c0,1.3-.1,2.4,0,3.5a1.27,1.27,0,0,0,.7.9c2.8,1.6,5.7,3.1,8.8,4.8C453.9,182.1,453.9,180.9,453.9,179.6Z" transform="translate(-5.7 -70.4)"/><path d="M453.7,156.1l-9.2-.1,9.1,4.9C453.7,159.2,453.7,157.6,453.7,156.1Z" transform="translate(-5.7 -70.4)"/><path d="M444.5,184.4l9.2.1-9.1-4.9C444.6,181.3,444.6,182.9,444.5,184.4Z" transform="translate(-5.7 -70.4)"/><path d="M454,118.3l-9.4-.1v1.3H454A4.74,4.74,0,0,1,454,118.3Z" transform="translate(-5.7 -70.4)"/><rect x="446.14" y="182.17" width="6" height="12.5" transform="translate(254.09 566.76) rotate(-89.88)"/><rect x="437.9" y="82.8" width="11.3" height="1.7"/><path d="M144.1,141.5a9.12,9.12,0,0,1,1.7,1.7,5.21,5.21,0,0,1,.9,2.9v.4c.1-.1.2-.3.3-.4a6.05,6.05,0,0,1,3.7-2.3,10.48,10.48,0,0,1,2.5-.1,15.47,15.47,0,0,1,3.1.6,11.76,11.76,0,0,1,2,.7l.4.1V145c0-.3.1-.6.1-.9A4.45,4.45,0,0,1,160,142a7.19,7.19,0,0,1,2.1-1.2,20,20,0,0,1,2.6-.5h0l-9.8-3h-.1a3.51,3.51,0,0,1-.5.8,1.84,1.84,0,0,1-1.8.8,10,10,0,0,1-1.6-.2c-.2-.1-.4-.1-.6-.2s-.2-.1-.1-.3V138c.1-.3.1-.6.2-.9a1.49,1.49,0,0,0,.1-.6v-.1l-.6,1a5,5,0,0,0-1.3-.4,4.87,4.87,0,0,1,.1-1.2l-.1.1-.2.6-.4,1c0,.1-.2.2-.3.2s-.4-.1-.6-.1l-1.2-.6a1.92,1.92,0,0,1-1.1-1.5,2,2,0,0,1,0-1.1c0-.1,0-.1-.1-.1l-9.8-3h-.1a.1.1,0,0,0,.1.1,19.2,19.2,0,0,1,1.5,1.4,6.36,6.36,0,0,1,1.4,2.2,4.16,4.16,0,0,1-.1,3.1,2.19,2.19,0,0,1-.3.5h0l.7.2a17.06,17.06,0,0,1,3.8,1.3C142.7,140.6,143.4,141,144.1,141.5Z" transform="translate(-5.7 -70.4)"/><path d="M165.9,127.1a5.58,5.58,0,0,0-.5-.8v.1l.1.5c.1.3.1.5.2.8a.37.37,0,0,1-.1.3c-.1.1-.3.1-.5.2-.4.1-.7.1-1.1.2a1.47,1.47,0,0,1-1.4-.5,2.18,2.18,0,0,1-.5-.8H162l-8,2.4h0a7.58,7.58,0,0,1,1.6.3,5.15,5.15,0,0,1,2,.9,3.16,3.16,0,0,1,1.3,2.2.9.9,0,0,0,.1.5h0l.5-.2a16.81,16.81,0,0,1,3.2-.9,6.73,6.73,0,0,1,2-.1,5.85,5.85,0,0,1,1.9.4,5.5,5.5,0,0,1,1.9,1.5l.2.3V134a5.3,5.3,0,0,1,1.5-3.3,6.57,6.57,0,0,1,1.7-1.2,12.23,12.23,0,0,1,2.4-1c.6-.2,1.1-.3,1.7-.5l.3-.1v-.1a4.88,4.88,0,0,1-.3-.7,3.38,3.38,0,0,1-.1-2,6,6,0,0,1,2.5-3.3l.1-.1h-.1l-8.1,2.4a.1.1,0,0,0-.1.1v.7a1.51,1.51,0,0,1-.9,1.4,6.12,6.12,0,0,1-1.2.5.9.9,0,0,1-.5.1c-.1,0-.2,0-.2-.1s-.1-.1-.1-.2l-.3-.7c-.1-.2-.1-.3-.2-.5v.9A3.24,3.24,0,0,1,165.9,127.1Z" transform="translate(-5.7 -70.4)"/><path d="M144.3,113a5.71,5.71,0,0,1,1.3,1.4,3.66,3.66,0,0,1,.4,2.3c0,.1-.1.3-.1.4h.5a15.44,15.44,0,0,1,3,.4,4.92,4.92,0,0,1,1.7.6,6.53,6.53,0,0,1,1.5,1,4.9,4.9,0,0,1,1.1,2,.17.17,0,1,0,.2,0,4.48,4.48,0,0,1,2.3-2.2,5.84,5.84,0,0,1,1.8-.4,9.64,9.64,0,0,1,2.4,0,8.75,8.75,0,0,1,1.6.2h.3V118a2.27,2.27,0,0,1,.6-1.6,3,3,0,0,1,1.4-1.1,6.7,6.7,0,0,1,1.8-.7h0l-7.6-.7c-.1,0-.1,0-.1.1s-.1.4-.3.6a1.59,1.59,0,0,1-1.2.9,4.87,4.87,0,0,1-1.2.1.6.6,0,0,1-.4-.1c-.1,0-.1-.1-.1-.2V114a6.89,6.89,0,0,1-.3.8,3.4,3.4,0,0,0-1-.1c0-.3-.1-.6-.1-.9v.1a2.27,2.27,0,0,0-.1.4l-.1.8a.22.22,0,0,1-.2.2H153a3.55,3.55,0,0,0-1-.2,1.67,1.67,0,0,1-1.1-.9,3.09,3.09,0,0,1-.2-.8c0-.1,0-.1-.1-.1l-7.6-.7h.1A1.47,1.47,0,0,1,144.3,113Z" transform="translate(-5.7 -70.4)"/><path d="M216.7,126.7l-14.4,6.6c-.1,0-.1.1-.1.2a5.9,5.9,0,0,1,.2,1.4,3.33,3.33,0,0,1-1.2,2.8,7.43,7.43,0,0,1-2.1,1.3,3.18,3.18,0,0,1-.9.3c-.2.1-.3,0-.4-.2s-.1-.2-.2-.3c-.2-.4-.5-.8-.7-1.3a5.58,5.58,0,0,0-.5-.8l-.1-.1.3,1.8a6.39,6.39,0,0,0-1.9.8l-1.2-1.5v.3l.3.9a8.8,8.8,0,0,1,.5,1.5.37.37,0,0,1-.2.5,3,3,0,0,1-.8.4c-.7.2-1.3.4-2,.6a3.06,3.06,0,0,1-2.9-.6,4.89,4.89,0,0,1-1.2-1.3c-.1-.1-.1-.1-.2-.1l-14.4,6.6h0a16.08,16.08,0,0,1,3.1.1,10.32,10.32,0,0,1,3.9,1.1,6.15,6.15,0,0,1,3,3.7l.3.9h0l.9-.5a29.53,29.53,0,0,1,5.8-2.4,16.09,16.09,0,0,1,3.7-.7,12.22,12.22,0,0,1,3.8.3,9.15,9.15,0,0,1,4,2.4l.5.5a1.7,1.7,0,0,0-.1-.7,9.18,9.18,0,0,1,1.9-6.4,17.89,17.89,0,0,1,2.8-2.7,23,23,0,0,1,4.3-2.5c1-.5,2-.9,3-1.3l.6-.2V138a7.46,7.46,0,0,1-.7-1.2,5.72,5.72,0,0,1-.7-3.6,9.54,9.54,0,0,1,1.4-3.5c.8-.9,1.7-1.9,2.6-3h0Z" transform="translate(-5.7 -70.4)"/></svg>