<?xml version="1.0" encoding="utf-8"?>
<!-- Generator: Adobe Illustrator 22.0.1, SVG Export Plug-In . SVG Version: 6.00 Build 0)  -->
<svg version="1.1" id="Layer_1" xmlns="http://www.w3.org/2000/svg" xmlns:xlink="http://www.w3.org/1999/xlink" x="0px" y="0px"
	 viewBox="0 0 500 300" style="enable-background:new 0 0 500 300;" xml:space="preserve">
<style type="text/css">
	.st0{opacity:0.25;fill:#231F20;enable-background:new    ;}
	.st1{fill:#E7E7E9;}
	.st2{fill:#FFFFFF;}
	.st3{fill:#3B002D;}
	.st4{stroke:#1D1D1B;stroke-width:0.471;stroke-miterlimit:10;}
</style>
<title>undercon</title>
<g>
	<g>
		<path class="st0" d="M379.8,134.9c-1.2-16.3-13.5-29.8-30.5-33.4c-2.1-0.5-4.1-0.7-6-1.1c0-0.1-0.1-0.4-0.1-0.5
			c-2.7-14-10.7-23.6-23.4-27.6c-6.5-2.1-14-3.5-22.7-4.5c-20.3-2.2-33.6-6.3-42.1-21l-4.9-8.4l-4.9,8.4c-8.6,14.7-22,18.8-42.1,21
			c-8.8,1-16.2,2.4-22.7,4.5c-12.7,4-20.7,13.5-23.4,27.6c0,0.1-0.1,0.4-0.1,0.5c-1.9,0.2-4,0.6-6,1.1c-17,3.6-29.2,17.1-30.5,33.4
			c-0.2,2.8-0.2,5.4,0,8c-0.2,2.5-0.2,5.3,0,8c1.2,16.3,13.5,29.8,30.5,33.4c2.1,0.5,4.1,0.7,6,1.1c0,0.1,0.1,0.4,0.1,0.5
			c2.7,14,10.7,23.6,23.4,27.6c6.5,2.1,14,3.5,22.7,4.5c20.3,2.2,33.5,6.3,42.1,21l4.9,8.4l4.9-8.4c8.6-14.7,22-18.8,42.1-21
			c8.8-1,16.2-2.4,22.7-4.5c12.7-4,20.7-13.5,23.4-27.6c0-0.1,0.1-0.4,0.1-0.5c1.9-0.2,4-0.6,6-1.1c17-3.6,29.2-17.1,30.5-33.4
			c0.2-2.8,0.2-5.4,0-8C380,140.3,380,137.7,379.8,134.9z"/>
		<path class="st0" d="M401.7,126.2c-1.4-19.1-15.8-34.7-35.7-39.1c-2.4-0.5-4.8-0.8-7.1-1.2c0-0.2-0.1-0.4-0.1-0.6
			c-3.1-16.4-12.5-27.6-27.4-32.3c-7.6-2.4-16.3-4.1-26.5-5.2c-23.6-2.5-39.3-7.4-49.2-24.6l-5.8-9.9l-5.8,9.9
			c-9.8,17.4-25.4,22.2-49.1,24.7c-10.3,1.1-18.9,2.8-26.5,5.2c-14.8,4.7-24.2,15.8-27.4,32.3c0,0.2-0.1,0.4-0.1,0.6
			c-2.3,0.4-4.7,0.7-7.1,1.2c-19.9,4.3-34.1,20-35.7,39.1c-0.2,3.3-0.2,6.4,0,9.4c-0.2,3-0.2,6.2,0,9.4
			c1.4,19.1,15.8,34.7,35.7,39.1c2.4,0.5,4.8,0.8,7.1,1.2c0,0.2,0.1,0.4,0.1,0.6c3.1,16.4,12.5,27.6,27.4,32.3
			c7.6,2.4,16.3,4.1,26.5,5.2c23.6,2.5,39.3,7.4,49.2,24.6l5.8,9.9l5.8-9.9c10-17.2,25.6-22.1,49.2-24.6c10.3-1.1,18.9-2.8,26.5-5.2
			c14.8-4.7,24.2-15.8,27.4-32.3c0-0.2,0.1-0.4,0.1-0.6c2.3-0.4,4.7-0.7,7.1-1.2c19.9-4.3,34.1-20,35.7-39.1c0.2-3.3,0.2-6.4,0-9.4
			C402,132.6,402.1,129.5,401.7,126.2z"/>
		<g>
			<g>
				<path class="st1" d="M379.8,132.6c0.2-2.5,0.2-5.3,0-8c-1.2-16.3-13.5-29.8-30.5-33.4c-2.1-0.5-4.1-0.7-6-1.1
					c0-0.1-0.1-0.4-0.1-0.5c-2.7-14-10.7-23.6-23.4-27.6c-6.5-2.1-14-3.5-22.7-4.5c-20.3-2.2-33.6-6.3-42.1-21l-4.9-8.4l-4.9,8.4
					c-8.6,14.7-22,18.8-42.1,21c-8.8,1-16.2,2.4-22.7,4.5c-12.7,4-20.7,13.5-23.4,27.6c0,0.1-0.1,0.4-0.1,0.5c-1.9,0.2-4,0.6-6,1.1
					c-17,3.6-29.2,17.1-30.5,33.4c-0.2,2.8-0.2,5.4,0,8c-0.2,2.5-0.2,5.3,0,8c1.2,16.3,13.5,29.8,30.5,33.4c2.1,0.5,4.1,0.7,6,1.1
					c0,0.1,0.1,0.4,0.1,0.5c2.7,14,10.7,23.6,23.4,27.6c6.5,2.1,14,3.5,22.7,4.5c20.3,2.2,33.5,6.3,42.1,21l4.9,8.4l4.9-8.4
					c8.6-14.7,22-18.8,42.1-21c8.8-1,16.2-2.4,22.7-4.5c12.7-4,20.7-13.5,23.4-27.6c0-0.1,0.1-0.4,0.1-0.5c1.9-0.2,4-0.6,6-1.1
					c17-3.6,29.2-17.1,30.5-33.4C380,137.9,380,135.3,379.8,132.6z"/>
				<path class="st2" d="M250,222.8c-10-15.6-25.2-20.1-46.3-22.3c-8.2-0.8-15.2-2.3-21.3-4.2c-10.1-3.3-16.3-10.6-18.5-22.1
					l-1.1-5.5l-5.1-0.7c-1.8-0.2-3.7-0.6-5.5-1c-13.9-3-23.8-13.7-24.8-26.9c-0.1-2.3-0.2-4.6,0-6.9v-0.6V132
					c-0.1-2.3-0.1-4.6,0-6.9c1-13.1,11-23.9,24.8-26.9c1.9-0.4,3.7-0.7,5.5-1l5.1-0.7l1.1-5.5c2.2-11.5,8.3-18.8,18.5-22.1
					c6-1.9,13-3.3,21.3-4.2c21-2.3,36.2-6.9,46.3-22.3c10,15.6,25.2,20.1,46.3,22.3c8.2,0.8,15.2,2.3,21.3,4.2
					c10.1,3.3,16.3,10.6,18.5,22.1c0,0.1,1.1,5.5,1.1,5.5l5.1,0.7c1.8,0.2,3.7,0.6,5.5,1c13.9,3,23.8,13.7,24.8,26.9
					c0.1,2.3,0.2,4.6,0,6.9v0.6v0.6c0.1,2.3,0.1,4.6,0,6.9c-1,13.1-11,23.9-24.8,26.9c-1.9,0.4-3.7,0.7-5.5,1l-5.1,0.7l-1.1,5.5
					c-2.2,11.5-8.3,18.8-18.5,22.1c-6,1.9-13,3.3-21.3,4.2C275.2,202.7,260,207.3,250,222.8z"/>
			</g>
			<g>
				<g>
					<path class="st3" d="M323.6,162.8c-0.8,0-1.6-0.1-2.4-0.2c-3.4-0.8-5.4-3.4-5.7-6.9c-0.4-4.2,2.3-6.4,4.9-6.9
						c2.9-0.4,5.7,1.2,6.2,3.7c0.1,0.8-0.4,1.7-1.2,1.8c-0.8,0.1-1.7-0.4-1.8-1.2c-0.2-1-1.6-1.4-2.7-1.3c-0.7,0.1-2.5,0.6-2.3,3.5
						c0.2,2.8,1.9,3.7,3.4,4.1c2.7,0.7,6.5-0.5,8.4-3.4c1.8-2.9,1.4-4.9,1-7.7c-0.4-2.3-0.8-4.8-0.1-8.2c0.8-3.6,2.9-6.4,5.8-7.8
						c2.8-1.4,6.2-1.4,9-0.1c2.8,1.3,4.5,3.6,4.3,6.3c0,2.4-1.4,4.6-3.9,5.7c-4.1,1.8-6.8-0.4-7.6-1.7c-0.5-0.7-0.2-1.7,0.6-2.2
						c0.7-0.5,1.7-0.2,2.2,0.5c0.2,0.2,1.2,1.6,3.6,0.5c1.2-0.6,2.1-1.6,2.1-2.8c0-1.3-1-2.7-2.7-3.4c-2.1-1-4.3-0.8-6.4,0.1
						c-1.4,0.7-3.4,2.3-4.1,5.8c-0.6,2.8-0.2,4.9,0.1,7c0.5,3,1.1,6.2-1.4,10C331,160.8,327.2,162.8,323.6,162.8z"/>
					<path class="st3" d="M341.8,134.2c-1.6,0-3.3-0.4-4.7-1.1c-2.9-1.4-5.1-4.2-5.8-7.8c-0.7-3.4-0.2-5.9,0.1-8.2
						c0.5-2.9,0.8-4.9-1-7.7c-1.9-3-5.8-4.1-8.4-3.4c-1.4,0.4-3.1,1.3-3.4,4.1c-0.2,2.9,1.6,3.4,2.3,3.5c1.1,0.1,2.5-0.4,2.7-1.3
						c0.1-0.8,1-1.3,1.8-1.2s1.3,1,1.2,1.8c-0.5,2.5-3.3,4.1-6.2,3.7c-2.7-0.4-5.3-2.7-4.9-6.9c0.2-3.5,2.4-6,5.7-6.9
						c4.3-1.1,9.4,1,11.8,4.7c2.5,3.9,1.9,7,1.4,10c-0.4,2.1-0.7,4.3-0.1,7c0.7,3.4,2.7,5.1,4.1,5.8c1.9,1,4.3,1,6.4,0.1
						c1.7-0.7,2.7-2.1,2.7-3.4c0-1.2-0.7-2.3-2.1-2.8c-2.5-1.2-3.5,0.4-3.6,0.5c-0.5,0.7-1.3,1-2.2,0.6c-0.7-0.5-1-1.3-0.6-2.2
						c0.8-1.4,3.5-3.6,7.6-1.7c2.3,1.1,3.9,3.3,3.9,5.7c0,2.7-1.7,4.9-4.3,6.3C344.8,133.8,343.2,134.2,341.8,134.2z"/>
				</g>
				<g>
					<path class="st3" d="M176.4,162.8c-3.6,0-7.5-1.9-9.4-5.1c-2.5-3.9-1.9-7-1.4-10c0.4-2.1,0.7-4.3,0.1-7
						c-0.7-3.4-2.7-5.1-4.1-5.8c-1.9-1-4.3-1-6.4-0.1c-1.7,0.7-2.7,2.1-2.7,3.4c0,1.2,0.7,2.3,2.1,2.8c2.4,1.1,3.4-0.2,3.6-0.5
						c0.5-0.7,1.4-1,2.2-0.5c0.7,0.5,1,1.3,0.5,2.1c-0.8,1.4-3.5,3.6-7.6,1.7c-2.3-1.1-3.9-3.3-3.9-5.7c0-2.7,1.7-4.9,4.3-6.3
						c2.9-1.3,6.3-1.3,9,0.1c2.9,1.4,5.1,4.2,5.8,7.8c0.7,3.4,0.2,5.9-0.1,8.2c-0.5,2.9-0.8,4.9,1,7.7c1.9,3,5.8,4.1,8.4,3.4
						c1.4-0.4,3.1-1.3,3.4-4.1c0.2-2.9-1.6-3.4-2.3-3.5c-1.1-0.1-2.5,0.4-2.7,1.3c-0.1,0.8-1,1.3-1.8,1.2c-0.8-0.1-1.3-1-1.2-1.8
						c0.5-2.5,3.3-4.1,6.2-3.7c2.7,0.4,5.3,2.7,4.9,6.9c-0.2,3.5-2.4,6-5.7,6.9C178,162.6,177.3,162.8,176.4,162.8z"/>
					<path class="st3" d="M158.2,134.2c-1.4,0-3-0.4-4.3-1c-2.8-1.3-4.5-3.6-4.3-6.3c0-2.4,1.4-4.6,3.9-5.7c4.1-1.8,6.8,0.4,7.6,1.7
						c0.5,0.7,0.2,1.7-0.6,2.2c-0.7,0.5-1.7,0.2-2.2-0.5c-0.2-0.2-1.2-1.6-3.6-0.5c-1.2,0.6-1.9,1.6-2.1,2.8c0,1.3,1,2.7,2.7,3.4
						c2.1,1,4.3,0.8,6.4-0.1c1.4-0.7,3.4-2.3,4.1-5.8c0.6-2.8,0.2-4.9-0.1-7c-0.5-3-1.1-6.2,1.4-10c2.4-3.7,7.6-5.8,11.8-4.7
						c3.4,0.8,5.4,3.4,5.7,6.9c0.4,4.2-2.3,6.4-4.9,6.9c-2.9,0.4-5.7-1.2-6.2-3.7c-0.1-0.8,0.4-1.7,1.2-1.8c0.8-0.1,1.7,0.4,1.8,1.2
						c0.2,1,1.6,1.4,2.7,1.3c0.7-0.1,2.5-0.6,2.3-3.5c-0.2-2.8-1.9-3.7-3.4-4.1c-2.7-0.7-6.5,0.5-8.4,3.4c-1.8,2.9-1.4,4.9-1,7.7
						c0.4,2.3,0.8,4.8,0.1,8.2c-0.8,3.6-2.9,6.4-5.8,7.8C161.5,133.8,159.9,134.2,158.2,134.2z"/>
				</g>
			</g>
		</g>
	</g>
	<g>
		<path class="st4" d="M217.3,91.5c0.7,0.7,1.9,1.9,2.7,2.9c0.7,1,1.4,2.3,1.7,3.6c0.2,1.3,0.2,2.9-0.2,4.7
			c-0.6,2.4-2.9,4.1-5.4,4.7c-2.7,0.5-5.3-0.2-6.6-2.7c-0.2-0.5-0.5-1.2-0.6-1.7c-0.1-0.5-0.2-1.3-0.2-1.8c0-0.4-0.1-1.4-0.1-1.7V98
			c0-0.6,0.5-1.1,1.1-1.1c0.6,0,1.1,0.5,1.1,1.1v0.5c0,2.5,0.2,4.2,0.8,5.2c0.7,1.4,2.4,1.9,4.2,1.6c1.8-0.4,3.3-1.6,3.7-3
			c0.2-1.3,0.4-2.5,0.1-3.5s-0.8-2.1-1.3-2.9c-0.2-0.4-0.7-0.8-1.1-1.2l-1.2-1.2c-0.4-0.4-0.8-0.7-1.4-1.2l-0.7-0.5
			c-1.7-1.4-2.3-1.8-3.6-3.4c-1.4-1.6-1.9-2.5-2.4-4.3c-0.1-0.8-0.2-1.8,0-2.8c0.8-5.1,4.5-8.1,8.2-8c4,0.2,6.5,4,5.7,9.5
			c0,0.6-0.7,1-1.3,1s-1-0.7-1-1.3c0.7-4.5-1.2-6.8-3.6-7c-2.5-0.1-5.2,1.9-5.8,6c-0.2,1.8,0,3.3,1.3,4.7c1.3,1.6,1.9,2.2,4.1,4
			c0.1,0.1,0.2,0.2,0.4,0.4L217.3,91.5z"/>
		<path class="st4" d="M226.4,106.7c-0.4-8,0-16.6,1.1-26.3c0.2-2.2,0.7-4,1.4-5.4c1.2-2.5,3.5-3.4,5.5-0.5
			c2.4,3.4,2.7,8.6,2.4,17.1c-0.2,8.4,0,12.7,1.7,14.6c0.5,0.5,0.4,1.2-0.1,1.6c-0.5,0.5-1.2,0.4-1.6-0.1c-2.4-2.7-2.4-7.4-2.3-16
			c0-0.4,0-0.8,0-1.1c0-0.7-0.5-1-1.2-1c-0.6,0-1.2,0.1-2.1,0.2c-0.6,0-1.2,0-1.7,0.1c-0.6,0-1,0.5-1,1.2
			c-0.4,5.4-0.4,10.6-0.1,15.6c0,0.6-0.5,1.2-1.1,1.2S226.4,107.3,226.4,106.7z M233.6,87.1c0.7,0,1.1-0.4,1.1-1.1
			c0-3.6-0.2-7.8-2.1-10.3c-1-1.3-1.1-1.2-1.7,0.1c-1,2.3-1.4,6.4-1.7,10.5c0,0.8,0.4,1.2,1,1.1c0.4,0,0.7-0.1,1.2-0.1
			c1.6-0.1,2.7-0.2,3.1-0.4h-1V87.1z"/>
		<path class="st4" d="M246.9,89.8c-0.6,0.4-0.8,0.6-0.8,0.8c-0.1,7,0,12.4,0.6,16.4c0,0.7-0.4,1.2-1,1.3c-0.7,0-1.2-0.4-1.3-1
			c-0.6-4-0.8-9.6-0.6-16.8c0.1-7.1,0.1-12.2-0.1-15.4c0-0.6-0.4-0.8-0.6-1.4c0-0.1,0-0.1,0-0.2c0-0.6,0.5-1.2,1.1-1.2
			c3.9-0.1,7.4,2.2,8.8,5.8c0.7,1.8,0.7,3.7,0.1,5.7c-0.5,1.7-1.6,3.1-3,4.1c-0.7,0.6-1.4,1-1.9,1.3L246.9,89.8z M247.6,86.8
			c1.8-1.1,2.9-2.3,3.5-3.9c1.1-3.4-0.7-6.6-3.7-8c-0.8-0.4-1.3,0.1-1.2,1c0.1,2.7,0.1,5.9,0.1,10C246.1,86.9,246.7,87.4,247.6,86.8
			z"/>
		<path class="st4" d="M258.1,106.7c-0.4-8,0-16.6,1.1-26.3c0.2-2.2,0.7-4,1.4-5.4c1.2-2.5,3.5-3.4,5.5-0.5
			c2.4,3.4,2.7,8.6,2.4,17.1c-0.2,8.4,0,12.7,1.7,14.6c0.5,0.5,0.4,1.2-0.1,1.6c-0.5,0.5-1.2,0.4-1.6-0.1c-2.4-2.7-2.4-7.4-2.3-16
			c0-0.4,0-0.8,0-1.1c0-0.7-0.5-1-1.2-1c-0.6,0-1.2,0.1-2.1,0.2c-0.6,0-1.2,0-1.7,0.1c-0.6,0-1,0.5-1,1.2
			c-0.4,5.4-0.4,10.6-0.1,15.6c0,0.6-0.5,1.2-1.1,1.2S258.1,107.3,258.1,106.7z M265.3,87.1c0.7,0,1.1-0.4,1.1-1.1
			c0-3.6-0.2-7.8-2.1-10.3c-1-1.3-1.1-1.2-1.7,0.1c-1,2.3-1.4,6.4-1.7,10.5c0,0.8,0.4,1.2,1,1.1c0.4,0,0.7-0.1,1.2-0.1
			c1.6-0.1,2.7-0.2,3.1-0.4h-1V87.1z"/>
		<path class="st4" d="M286.2,89.3c0.5,1,1.3,3,1.2-0.4c0-2.1,0-4.2,0-6.5c0.1-3.5,0.1-6.2-0.2-8.6c0-0.6,0.2-1.2,0.8-1.3
			c0.6-0.1,1.2,0.2,1.3,0.8c0.5,2.5,0.5,5.7,0.2,9.2c0,1.8-0.1,3.1,0,4c0.1,3.9,0.7,17.4,1,20c0,0.6-0.4,1.2-1,1.2
			c-0.6,0-1.2-0.4-1.2-1c-0.2-2.7-0.5-5.7-0.6-8.8c0-0.5-0.1-0.8-0.4-1.3l-8-15.4l0.8,1.6c-0.5-1-1.3-2.7-1.3,0.2
			c0,4,0,7.6-0.1,13.9c-0.1,3.9-0.1,6.9-0.1,8.8c0,0.6-0.5,1.1-1.1,1.1s-1.1-0.5-1.1-1.1c0-4,0.2-14.5,0.4-15.8
			c0-6.4,0-11.6-0.5-15.7c0-0.1,0-0.2,0-0.4c0-0.2,0-0.5,0.2-1c0.1-0.2,0.4-0.5,0.8-0.5c0.6,0,1.2,0.4,1.3,1
			c0.1,1.1,0.7,2.5,1.1,3.3c0.1,0.4,0.5,1,0.8,1.8c0.5,0.8,0.7,1.4,0.8,1.7L286.2,89.3z"/>
		<path class="st4" d="M211.9,142.9c0.5-2.2,1.1-5.2,1.7-9.2c0.6-3.9,1.1-6.5,1.3-8c0.1-0.5,0.4-1.6,0.8-3.3
			c0.2-1.3,0.5-2.3,0.6-3.1c0-0.6,0.6-1,1.3-1c0.6,0,1,0.6,1,1.3c-0.1,0.8-0.4,1.9-0.7,3.3c-0.4,1.6-0.7,2.5-0.7,3.1
			c-0.2,1.3-0.7,4-1.4,8c-0.7,4-1.2,7-1.7,9.2c-0.6,2.4-1,4.3-1.3,6c0,0.5-0.1,0.7-0.1,0.7v0.5c0,1.6-1.3,2.1-2.1,1.6l-0.2-0.2
			c0,0,0-0.1-0.1-0.1c0,0,0-0.1,0-0.2c0,0,0-0.2-0.1-0.4l-0.4-1.2l-1-4c-0.8-3.5-1.4-5.8-1.6-6.8c0-0.4-0.2-1.1-0.5-2.2l-1-4l-1-4.2
			c-0.7-2.8-1.1-4.8-1.4-6.2c-0.4-1.9-0.5-3.3-0.5-3.9c0.1-0.6,0.7-1,1.3-0.8s1,0.7,0.8,1.3c0,0,0,0.4,0,0.8c0,0.6,0.2,1.3,0.4,2.2
			c0.6,3,1.6,7.1,2.4,10.3l1,4c0.2,1.1,0.5,1.8,0.6,2.2c0.1,0.8,0.7,2.9,1.4,6c0.4,0.7,0.7,0.8,1-1.4L211.9,142.9z M210.4,143.3
			c0,0.2,0.1,0.7,0.2,1L210.4,143.3z"/>
		<path class="st4" d="M226.1,130.9c0,0.7,0.4,1.1,1.1,1.1c0.1,0,0.2,0,0.5,0c0.7,0,1.1,0,1.4,0c0.6,0,1.2,0.5,1.2,1.1
			c0,0.6-0.5,1.2-1.1,1.2c-0.2,0-0.7,0-1.4,0c-0.4,0-0.6,0-0.8,0c-0.5,0-0.8,0.4-0.8,1.1c0,1.4,0,3.1,0,4.9c0,2.3,0,3.6,0,4
			c0,0,0,0.6,0,1.4s0,1.7,0,2.3c0,0.8,0,1.6,0,2.1v-0.8c0,0.7,0.1,1.1,0.5,1.1c0.6,0,1.4,0,2.4,0c0.7,0,1.6,0,2.7,0c1,0,1.6,0,1.7,0
			c0.6,0,1.1,0.5,1.1,1.1c0,0.6-0.5,1.1-1.1,1.1c-0.1,0-0.7,0-1.7,0c-1,0-1.8,0-2.5,0c-1.1,0-2.1,0-2.7,0c-0.4,0-0.7,0-1,0
			c0,0-0.1,0-0.2,0s-0.4,0-0.8-0.4c-0.1-0.1-0.2-0.4-0.4-0.6c0-0.1,0-0.2-0.1-0.4c0-0.2,0-0.5-0.1-0.8c0-0.6,0-1.3,0-2.3
			c0-0.6,0-1.4,0-2.3c0-0.8,0-1.4,0-1.4s0-1.7,0-5.1s0-6.3,0-8.6c0-3.4,0-6.2,0.2-8.1c0-1.2,0.1-2.2,0.2-2.9c0-0.7,0.2-1.6,0.8-1.9
			c0.5-0.2,1.2-0.4,2.2-0.4c1.4,0,3.3,0,5.5,0c1.1,0,1.7,0.1,1.9,0.1c0.6,0,1.1,0.5,1.1,1.1c0,0.6-0.5,1.1-1.1,1.1
			c-0.2,0-0.8,0-2.1-0.1c-2.3-0.1-4-0.1-5.3,0c-0.1,0-0.2,0-0.5,0c-0.2,0-0.5,0.5-0.5,0.5c-0.1,0.6-0.2,1.4-0.2,2.5
			c-0.1,1.9-0.1,4.6-0.1,8V130.9z"/>
		<path class="st4" d="M250.8,143.2l0.1,2.4c0,1.1,0.5,2.7,0.8,3.6c0,0.1,0.1,0.2,0.1,0.2c0.1,0.1,0.7-0.2,0.7-0.2
			c0.4-0.5,1.1-0.6,1.6-0.1s0.6,1.1,0.1,1.6c-1.4,1.7-3.4,1.9-4.6-0.5c-0.6-1.3-1-3.3-1.1-4.5c0-0.6-0.1-1.4-0.2-2.7
			c0-1.1-0.1-1.8-0.1-2.3c-0.1-3-0.7-4.9-2.1-6.3c-0.5-0.5-0.8-0.5-1.3-0.4c-0.6,0.2-0.8,0.7-0.8,1.3c-0.1,9-0.2,14.2-0.2,15.4
			c0,0.6-0.5,1.1-1.1,1.1s-1.1-0.5-1.1-1.1c0-2.5,0-6,0.1-10.5c0.2-8.6,0.4-11.8,0.1-19.8c0-1.7-1.1-1-1.1-1c-0.5,0.2-1.2,0-1.4-0.6
			c-0.2-0.6,0-1.2,0.6-1.4c3-1.3,6.6-1,9.5,0.6c3.1,1.6,4.9,4.7,4.3,8.4c-0.5,2.3-1.8,4.1-4,5.5c-0.2,0.1-0.6,0.2-0.8,0.5
			c-0.5,0.4-0.5,0.7-0.1,1.3c1,1.6,1.7,3.9,1.9,6.8L250.8,143.2z M245.7,131.9c3.1-1.2,5.4-2.7,5.9-5.5c0.5-2.7-0.7-4.7-3.1-6
			c-1-0.6-2.1-0.8-3.1-1c-0.7-0.1-1.2,0.4-1.1,1.1c0.1,3.1,0.1,6.6,0.1,10.6C244.3,131.8,244.8,132.2,245.7,131.9z"/>
		<path class="st4" d="M273.3,118.6c0,0,0.1-0.1,0.2-0.4s0.4-0.5,0.5-0.6c0.4-0.4,0.8-0.4,1.3-0.1c0.2,0.1,0.4,0.2,0.6,0.5
			c0,0.1,0,0.1,0.1,0.2c0,0.2,0.1,0.7,0.2,1c0,0,0,0,0,0.1c0,0.6,0.1,1.3,0.1,2.3c0,0.4,0.1,1.6,0.2,3.7c0.1,2.7,0.2,5.3,0.4,8
			c0.2,7,0.5,11.7,1.2,17.4c0,0.6-0.4,1.2-1,1.2c-0.7,0-1.2-0.4-1.3-1c-0.6-5.4-0.8-10.5-1.2-17.5c0-2.5-0.1-5.2-0.4-8.1
			c-0.1-2.2-0.1-3.4-0.2-3.7c0-0.1,0-0.2,0-0.4c0-0.1-0.7,0.5-1.3,1.4c-0.7,1-1.6,2.3-2.4,3.7l-0.4,0.5c-0.2,0.6-0.2,1.1,0.1,1.6
			c1,1.3,1.8,2.4,2.4,3.3c0.2,0.5,0.1,1.2-0.4,1.6s-1.2,0.2-1.6-0.2c-0.4-0.6-0.8-1.3-1.4-2.1c-0.5-0.7-1.1-0.6-1.6,0.1
			c-0.6,0.8-1.2,1.7-1.7,2.4c-0.4,0.5-1.1,0.6-1.6,0.2c-0.5-0.4-0.6-1.1-0.2-1.6c0.7-0.8,1.3-1.9,2.2-3.1c0.4-0.6,0.2-1.1-0.1-1.6
			c-1.1-1.3-1.6-2.1-2.4-3.4c-0.6-0.8-1.2-0.6-1.2,0.5c0,0.5,0,0.8,0,1.3c0,2.1,0,5.1-0.1,9c-0.1,4-0.2,7.1-0.2,9c0,0.5,0,1.1,0,1.8
			c0,0.8,0,1.4,0,1.8c0,1,0,2.4,0.2,3.4c0.1,0.6-0.1,1.2-0.8,1.3c-0.4,0-0.8,0-1.1-0.2c-0.4-0.4-0.4-0.7-0.5-1.2
			c-0.2-1.3-0.2-2.7-0.2-4.8c0-1.2,0-1.9,0-2.2c0-2.1,0-5.1,0.2-9c0.1-4,0.1-7.1,0.1-9c0-2.5-0.1-4.6-0.2-6.2l0,0
			c0,0-0.1-0.2-0.1-0.5c-0.5-1.6,1.2-2.7,2.5-1.4c0,0,0,0.1,0.1,0.1c0,0.1,0.1,0.2,0.2,0.4c0.6,0.6,1.2,1.6,1.9,2.9
			c1.1,2.2,1.6,2.9,2.4,3.9c0.5,0.7,1,0.8,1.2,0.5C270.3,122.5,271.8,120.2,273.3,118.6L273.3,118.6z"/>
		<path class="st4" d="M282.7,151.2c-0.4-8,0-16.6,1.1-26.3c0.2-2.2,0.7-4,1.4-5.4c1.2-2.5,3.5-3.4,5.5-0.5
			c2.4,3.4,2.7,8.6,2.4,17.1c-0.2,8.4,0,12.7,1.7,14.6c0.5,0.5,0.4,1.2-0.1,1.6c-0.5,0.5-1.2,0.4-1.6-0.1c-2.4-2.7-2.4-7.4-2.3-16
			c0-0.4,0-0.8,0-1.1c0-0.7-0.5-1-1.2-1c-0.6,0-1.2,0.1-2.1,0.2c-0.6,0-1.2,0-1.7,0.1c-0.6,0-1,0.5-1,1.2
			c-0.4,5.4-0.4,10.6-0.1,15.6c0,0.6-0.5,1.2-1.1,1.2S282.7,151.8,282.7,151.2z M289.9,131.6c0.7,0,1.1-0.4,1.1-1.1
			c0-3.6-0.2-7.8-2.1-10.3c-1-1.3-1.1-1.2-1.7,0.1c-1,2.3-1.4,6.4-1.7,10.5c0,0.8,0.4,1.2,1,1.1c0.4,0,0.7-0.1,1.2-0.1
			c1.6-0.1,2.7-0.2,3.1-0.4h-1V131.6z"/>
		<path class="st4" d="M223.7,162.9c-0.2,4.9-0.2,10.5-0.1,17.5c0,3.5,0,6.3,0,8.1c0,2.3,0,3.6,0,4c0,0.8,0.1,1.6,0.2,2.1
			c0,0.1,0,0.1,0,0.2c0,0.1,0.4,0.4,0.8,0.4c0.6,0,1.2,0.1,2.1,0c1.9-0.1,3.3,0,4,0.1c0.6,0.1,1,0.7,0.8,1.3c-0.1,0.6-0.7,1-1.3,0.8
			c-0.5-0.1-1.6-0.1-3.3,0c-1.8,0-3.3-0.1-4.1-0.5c-1.2-0.6-1.4-2.4-1.6-4.5c0-0.4,0-1.8,0-4.1c0-1.8,0-4.5,0-8.1
			c-0.1-7.1-0.1-12.4,0.1-17.6c0-0.6,0.6-1.1,1.2-1.1C223.3,161.7,223.7,162.3,223.7,162.9z"/>
		<path class="st4" d="M241,162.8c0.1,4.6,0.1,10.9-0.2,18.8c0,1.8,0,4.2,0.1,7.4c0.1,3.9,0.2,6.4,0.2,7.6c0,0.6-0.5,1.1-1.1,1.1
			s-1.1-0.5-1.1-1.1c0-1.1-0.1-3.5-0.2-7.5c-0.1-3.1-0.1-5.7-0.1-7.6c0.2-8.1,0.4-14.4,0.2-18.6c0-0.6,0.5-1.2,1.1-1.2
			S241,162.1,241,162.8z"/>
		<path class="st4" d="M253.1,187.2c0.1-0.8,0.2-2.3,0.6-4.6c0.5-4.6,0.7-5.9,1.2-9.6c0.6-3.7,1.2-6.8,2.2-9.6
			c0.1-0.6,0.8-1,1.4-0.8c0.6,0.2,1,0.8,0.7,1.4c-0.8,2.9-1.4,5.8-2.1,9.4c-0.6,3.6-0.8,5.1-1.3,9.6c-0.5,4.6-1,8.6-1.1,9.5
			c-0.1,1-0.2,1.7-0.5,2.3c-0.1,0.7-0.4,1.1-0.6,1.3c-0.4,0.2-0.7,0.4-1.1,0.4c-0.2,0-0.6-0.4-0.7-0.4l-0.1-0.4c0,0,0-0.1-0.1-0.2
			c0-0.1-0.1-0.4-0.2-0.7c-0.1-0.5-0.4-1.2-0.5-2.1c-0.5-1.9-0.8-3.4-1-4.5c-1.6-9.3-2.4-14.2-2.7-15.1c-0.1-0.8-0.2-1.8-0.4-3.3
			c-0.4-2.8-0.7-4.6-1.2-6.8c-0.1-0.6,0.1-1.2,0.8-1.3c0.7-0.1,1.2,0.1,1.3,0.8c0.6,2.1,1,4.2,1.3,7.1c0.1,1.4,0.2,2.4,0.4,3.1
			c0.1,0.8,1,5.8,2.7,15c0,0.4,0.1,0.8,0.2,1.6c0.4,1.2,0.6-0.6,0.6-0.6V187.2z"/>
		<path class="st4" d="M268.7,163c-0.6,0-1,0-1,0c-0.1,0.2-0.1,0.6-0.2,1c-0.1,1.7,0,4,0.2,6.9c0.1,1.4,0.1,2.3,0.1,2.5
			c0,0.4,0,1,0,1.9c0,0.8,0.4,1.2,1.1,1.2c0.6,0,1,0,1.4,0c0.6,0,1.2,0.5,1.2,1.1c0,0.6-0.5,1.2-1.1,1.2c-0.5,0-1.1,0-1.7,0
			c-0.7,0-1.1,0.4-1.2,1.1c-0.1,5.2-0.2,9.5,0,12.5c0,1,0.1,1.7,0.2,2.2c0,0,0,0.1,0,0.2c0,0.1,0.2,0.2,0.8,0.4
			c1.2,0.1,2.5,0,4.2-0.1c0.8,0,1.4-0.1,1.8-0.1c0.6,0,1.1,0.5,1.1,1.1s-0.5,1.1-1.1,1.1c-0.4,0-0.8,0-1.7,0.1c-1,0-1.7,0.1-2.2,0.1
			c-1.8,0.1-3.3,0-4.2-0.5c-0.7-0.2-1-1-1.2-1.8c-0.1-0.6-0.2-1.4-0.4-2.5c-0.2-3.4-0.1-8.3,0-12.1c0-1.8,0.1-3.4,0.1-4.7
			c0-1.2,0-2.1,0-2.5c0-0.2,0-1-0.1-2.4c-0.2-3.1-0.4-5.5-0.2-7.4c0.1-1.2,0.4-2.3,1.2-2.8c0.2-0.1,0.6-0.2,1-0.2h3.6
			c2.7,0.1,4.1,0.1,4.3,0.1c0.7,0,1.2,0.4,1.2,1c0,0.4,0,0.6-0.2,0.8c-0.2,0.2-0.5,0.4-0.8,0.4c-0.2,0-1.8,0-4.7-0.1h-1.7V163z"/>
	</g>
</g>
<g>
	<path class="st2" d="M142.3,272c0-0.4,0-0.7-0.1-0.9c-0.3-0.7-0.6-1.2-1-1.5c-0.3-0.2-0.6-0.2-1-0.1c-1.7,0.7-2.9,2.5-3.3,5.8
		c-0.2,1.7-0.3,3.5-0.2,5.3c0,0.1,0,0.1,0,0.2c0,0.1,0.1,0,0.2-0.2c1.7-2.6,3.3-3.8,4.8-3.1c1.2,0.5,2,2.2,2.1,4.1
		c0.2,2.1-0.1,4-0.8,5.5c-0.8,1.8-2.3,2.7-4.3,2.1c-2.3-0.8-3.3-4.3-3.6-8.6c-0.2-3.8,0.3-7.9,1.3-9.5c0.9-1.6,2-2.6,3.1-3
		c1.5-0.6,2.9,0.2,3.7,2.3c0.1,0.3,0.2,0.8,0.2,1.3v0.5c0,0.3,0,0.5,0,0.6c0,0.4-0.2,0.7-0.6,0.8c-0.4,0-0.7-0.2-0.8-0.6
		c0-0.1,0-0.2,0-0.4c0-0.1,0-0.3,0-0.4V272z M137.2,284.2c0,0.2,0.9,3.4,2.1,3.8c1.1,0.4,2-0.1,2.6-1.3c0.7-1.3,0.9-2.9,0.7-4.8
		c-0.1-0.9-0.3-1.6-0.5-2.1c-0.4-1-1-1.2-1.9-0.7c-1.2,0.9-2.8,3.2-3,4.6C137.2,283.8,137.2,283.8,137.2,284.2z"/>
	<path class="st2" d="M146.9,278.3c-0.3,0.2-0.5,0.3-0.5,0.5c-0.1,4.3,0,7.7,0.4,10.1c0,0.4-0.2,0.8-0.6,0.8c-0.4,0-0.8-0.2-0.8-0.6
		c-0.3-2.5-0.5-5.9-0.4-10.3c0.1-4.4,0.1-7.5-0.1-9.5c0-0.3-0.2-0.5-0.3-0.9c0-0.1,0-0.1,0-0.2c0-0.4,0.3-0.7,0.7-0.7
		c2.3-0.1,4.6,1.3,5.4,3.6c0.4,1.1,0.4,2.3,0.1,3.5c-0.3,1.1-1,1.9-1.9,2.6c-0.4,0.3-0.9,0.6-1.2,0.8L146.9,278.3z M147.3,276.6
		c1.1-0.7,1.8-1.4,2.1-2.4c0.7-2.1-0.4-4.1-2.3-4.9c-0.5-0.2-0.8,0.1-0.8,0.6c0.1,1.6,0.1,3.7,0.1,6.2
		C146.5,276.6,146.8,276.9,147.3,276.6z"/>
	<path class="st2" d="M160.4,268.7c0,0,0.1-0.1,0.1-0.2c0.1-0.2,0.2-0.3,0.3-0.3c0.2-0.2,0.5-0.2,0.8-0.1c0.1,0.1,0.2,0.2,0.3,0.3
		c0,0.1,0,0.1,0.1,0.2c0,0.1,0.1,0.4,0.1,0.6c0,0,0,0,0,0.1c0,0.3,0.1,0.8,0.1,1.4c0,0.2,0.1,1,0.1,2.3c0.1,1.6,0.2,3.2,0.2,4.9
		c0.1,4.3,0.3,7.2,0.7,10.7c0,0.4-0.2,0.7-0.6,0.8c-0.4,0-0.8-0.2-0.8-0.6c-0.4-3.3-0.6-6.4-0.7-10.7c0-1.6-0.1-3.2-0.2-4.9
		c-0.1-1.3-0.1-2.1-0.1-2.3c0-0.1,0-0.2,0-0.2c0-0.1-0.4,0.3-0.8,0.9c-0.4,0.6-1,1.4-1.5,2.3l-0.2,0.3c-0.2,0.3-0.2,0.7,0.1,1
		c0.6,0.8,1.1,1.5,1.5,2c0.2,0.3,0.1,0.7-0.2,0.9c-0.3,0.2-0.7,0.1-1-0.2c-0.2-0.4-0.6-0.8-0.9-1.3c-0.3-0.4-0.7-0.4-1,0.1
		c-0.3,0.6-0.7,1-1,1.5c-0.2,0.3-0.7,0.4-1,0.1c-0.3-0.2-0.4-0.7-0.1-1c0.4-0.6,0.8-1.2,1.3-1.9c0.2-0.3,0.2-0.7-0.1-1
		c-0.7-0.8-1-1.3-1.5-2.1c-0.3-0.5-0.8-0.3-0.7,0.3c0,0.3,0,0.6,0,0.8c0,1.2,0,3.1-0.1,5.6c-0.1,2.5-0.1,4.4-0.1,5.6
		c0,0.3,0,0.7,0,1.1c0,0.5,0,0.9,0,1.1c0,0.6,0,1.5,0.2,2.1c0.1,0.4-0.1,0.8-0.5,0.8c-0.2,0-0.5,0-0.7-0.1c-0.2-0.2-0.2-0.4-0.3-0.7
		c-0.1-0.8-0.2-1.7-0.1-3c0-0.8,0-1.2,0-1.3c0-1.2,0-3.1,0.1-5.6c0.1-2.5,0.1-4.4,0.1-5.6c0-1.6-0.1-2.8-0.2-3.8v0
		c0,0-0.1-0.1-0.1-0.3c-0.3-1,0.8-1.6,1.6-0.9c0,0,0,0.1,0.1,0.1c0,0.1,0.1,0.2,0.2,0.2c0.4,0.4,0.8,1,1.2,1.8
		c0.7,1.3,1,1.8,1.5,2.4c0.3,0.4,0.6,0.5,0.8,0.3C158.5,271.1,159.5,269.6,160.4,268.7L160.4,268.7z"/>
	<path class="st2" d="M177.4,269.3c0.1,0.6,0.1,1.5,0.2,2.6c0,1.1,0,1.8,0.1,2c0.3,4.4,0.5,9.3,0.5,14.6c0,0.4-0.3,0.7-0.7,0.7
		c-0.4,0-0.7-0.3-0.7-0.7c0-4.9-0.2-9.7-0.5-14.5c0-0.3,0-1,0-2.1c0-1-0.1-1.8-0.2-2.3c0-0.4,0.2-0.8,0.6-0.8
		C177,268.7,177.3,268.9,177.4,269.3z"/>
	<path class="st2" d="M193.2,268.9c0,0.9,0.1,2.5,0.2,5c0.1,2.3,0.2,4,0.1,5.1c-0.2,3.9-0.3,7-0.3,9.3c0,0,0,0.1,0,0.1
		c0,0.1,0.2,0.1,0.7,0.1c0.7,0,1.3,0,1.8,0c0.4,0,0.7,0.3,0.7,0.7c0,0.4-0.3,0.7-0.7,0.7c-0.7,0-1.7,0-3,0c-1.3,0-2.4,0-3,0
		c-0.4,0-0.7-0.3-0.7-0.7c0-0.4,0.3-0.7,0.7-0.7c0.6,0,1.3,0,2.2,0c0-0.1,0-0.1,0-0.2c0-2.5,0.1-5.6,0.3-9.4c0.1-1.2,0-2.9-0.1-5
		c0-1-0.1-2.1-0.1-2.3c0-1.5-0.5-0.8-0.9-0.2c-0.1,0.1-0.1,0.2-0.2,0.2c-0.2,0.3-0.7,0.4-1,0.2c-0.3-0.2-0.4-0.6-0.2-0.9
		c0.6-0.9,1.3-1.8,2.2-2.7c0.1-0.1,0.3-0.2,0.5-0.2c0.2,0,0.3,0.1,0.5,0.2c0,0,0,0.1,0.1,0.1C193,268.5,193.2,268.7,193.2,268.9
		C193.2,268.9,193.2,268.9,193.2,268.9z"/>
	<path class="st2" d="M204.4,268c0,0,0.1,0,0.2-0.1c0.4-0.1,0.8,0,1,0.3c0.1,0.1,0.1,0.2,0.1,0.4v0.2c0,0.1,0,0.1,0,0.2
		c0,0.2-0.1,0.4-0.2,0.6l-0.6,1.7l-1,2.8c-0.4,1.1-0.8,2.5-1.3,4.2c-0.6,2.3-1,3.8-1.2,4.3l-1.2,3.5c-0.5,1.4-0.8,2.5-1.1,3.4
		c-0.1,0.4-0.4,0.6-0.8,0.5c-0.4-0.1-0.6-0.4-0.5-0.8c0.2-0.9,0.6-2.1,1.1-3.5c1.4-3.9,1-2.7,2.4-7.7c0.4-1.7,0.9-3.1,1.3-4.3l1-2.8
		c0.1-0.3,0.2-0.6,0.3-0.8c0.2-0.4,0.4-0.8-0.6-0.8c-0.8,0-1.9,0-2.3-0.1c-0.8,0-1.4,0-1.9,0h0c-0.4,0-0.6,0-0.6,0
		c0,0.2,0,0.4,0,0.7c0,0.4,0.1,0.9,0.3,1.4c0.1,0.4-0.1,0.8-0.4,0.9c-0.4,0.1-0.8-0.1-0.9-0.4c-0.4-1.2-0.4-2.2-0.3-2.8
		c0.1-0.5,0.3-0.9,0.7-1.1c0.2-0.1,0.4-0.1,0.6-0.1h0.7c0.4,0,1.1,0,2,0c0.3,0,0.8,0,1.3,0c0.5,0,1,0,1.3,0
		C204.1,268,204.3,268,204.4,268L204.4,268z"/>
	<path class="st2" d="M215.3,268.7c0,0.4-0.3,0.7-0.7,0.7c-0.7,0-1.6,0-2.9,0c-0.5,0-0.7,0.2-0.7,0.7c0.1,0.8,0.1,1.6,0.1,2.6
		c0,0.7,0,1.2,0,1.4c0,0.9,0,2.4-0.1,4.4c-0.2,4-0.2,7.1,0.2,9.6c0,0.4-0.2,0.8-0.6,0.8c-0.4,0-0.8-0.2-0.8-0.6
		c-0.4-2.6-0.4-5.8-0.2-9.9c0.1-2,0.1-3.5,0.1-4.3c0-0.3,0-0.8,0-1.5c0-0.6,0-1.1,0-1.5c0,0.9-0.2-0.7-0.2-1c0-0.4-0.2-0.7-0.7-0.7
		c-0.7,0-1.3,0-1.8,0.1c-0.4,0-0.7-0.2-0.8-0.7c0-0.4,0.2-0.7,0.6-0.7c0.9-0.1,2.2-0.1,3.9,0c1.8,0.1,3,0.1,3.7,0
		C215,268.1,215.3,268.4,215.3,268.7z"/>
	<path class="st2" d="M219.4,278.3c-0.4,0-0.7,0.2-0.7,0.7c0,0.7,0,1.6,0.1,2.6c0.1,2.9,0.2,5.1,0.2,7.2c0,0.4-0.3,0.7-0.7,0.7
		c-0.4,0-0.7-0.3-0.7-0.7c0-1.5,0-3.6-0.1-6.3c-0.2-5.4-0.2-5.6-0.1-9.4c0.1-1.9,0.1-3.2,0-4.1c0-0.4,0.3-0.7,0.7-0.7
		c0.4,0,0.7,0.3,0.7,0.7c0,1,0,2.4,0,4.3c0,1.3-0.1,2.3-0.1,3.1c0,0.4,0.2,0.7,0.7,0.7h3.2c0.4,0,0.7-0.2,0.7-0.7c0-1.1,0-1.8,0-2.4
		c0-0.3,0-0.7,0-1.2c0-0.5,0-1,0-1.3c0-0.6-0.1-1.6-0.3-2.1c-0.1-0.4,0.1-0.8,0.4-0.9c0.3-0.1,0.7,0.1,0.9,0.4
		c0.3,0.8,0.4,1.9,0.4,2.6c0,0.4,0,0.8,0,1.4c0,0.6,0,0.9,0,1.1c0,0.7,0,1.9-0.1,3.7c-0.1,1.8-0.1,3.1-0.1,4c0,3.4,0.1,5.7,0.4,7.1
		c0.1,0.4-0.1,0.7-0.5,0.8c-0.4,0.1-0.7-0.1-0.8-0.5c-0.4-1.5-0.5-3.9-0.5-7.5c0-0.7,0.1-1.5,0.1-2.4c0-0.5-0.2-0.7-0.7-0.7H219.4z"
		/>
	<path class="st2" d="M238.7,269.2c-0.4,0-0.7,0-0.7,0.1l-0.1,1.4c0,0.3,0,0.6,0,1c0,0.4,0,0.7,0,0.9c0,0.2,0,0.4,0,0.5
		c-0.1,1-0.1,2-0.2,3.1c0,0.4,0.2,0.7,0.7,0.7c0.3,0,0.6,0,0.9,0c0.4,0,0.7,0.3,0.7,0.7c0,0.4-0.3,0.7-0.7,0.7c-0.4,0-0.7,0-1,0.1
		c-0.4,0-0.6,0.3-0.6,0.7c0,0.4,0,1,0,1.7c0.1,4.8,0.2,7.4,0.2,7.7c0,0.4-0.3,0.7-0.7,0.7c-0.4,0-0.7-0.3-0.7-0.7
		c0-0.4-0.1-2.9-0.2-7.7c-0.1-3.1,0-5.7,0.1-7.8c0-0.1,0-0.2,0-0.5c0-0.2,0-0.6,0-0.9c0-0.4,0-0.7,0-1c0-0.6,0.1-1.1,0.1-1.5
		c0-0.2,0-0.4,0.1-0.6c0,0,0-0.1,0-0.1c0-0.1,0.1-0.3,0.2-0.4l0,0l0.3-0.2h0.2c0.1,0,0.1,0,0.2,0h0.7c1,0,4.5-0.1,5.4-0.1
		c0.4,0,0.7,0.3,0.7,0.7s-0.3,0.7-0.7,0.7c-0.9,0-4.4,0.1-5.3,0.1H238.7z"/>
	<path class="st2" d="M247,276.3c0,0.4,0.2,0.7,0.7,0.7c0.1,0,0.2,0,0.3,0c0.4,0,0.7,0,0.9,0c0.4,0,0.7,0.3,0.7,0.7
		s-0.3,0.7-0.7,0.7c-0.2,0-0.4,0-0.9,0c-0.2,0-0.3,0-0.5,0c-0.3,0-0.5,0.2-0.5,0.7c0,0.9,0,1.9,0,3c0,1.4,0,2.2,0,2.4
		c0,0,0,0.3,0,0.9c0,0.6,0,1,0,1.4c0,0.6,0,1,0,1.3v-0.5c0,0.4,0.1,0.7,0.3,0.7c0.4,0,0.9,0,1.5,0c0.4,0,1,0,1.6,0c0.6,0,1,0,1,0
		c0.4,0,0.7,0.3,0.7,0.7c0,0.4-0.3,0.7-0.7,0.7c-0.1,0-0.4,0-1,0c-0.6,0-1.1,0-1.6,0c-0.7,0-1.2,0-1.6,0c-0.2,0-0.4,0-0.6,0
		c0,0-0.1,0-0.1,0c-0.1,0-0.2,0-0.5-0.2c-0.1-0.1-0.2-0.2-0.2-0.4c0-0.1,0-0.1-0.1-0.2c0-0.1,0-0.3-0.1-0.6c0-0.3,0-0.8,0-1.4
		c0-0.4,0-0.9,0-1.4c0-0.6,0-0.9,0-0.9c0,0,0-1.1,0-3.1c0-2.1,0-3.8,0-5.3c0-2.1,0-3.8,0.1-5c0-0.7,0.1-1.3,0.2-1.8
		c0-0.4,0.2-1,0.6-1.2c0.3-0.2,0.8-0.2,1.3-0.2c0.9,0,2,0,3.4,0c0.7,0,1.1,0.1,1.2,0.1c0.4,0,0.7,0.3,0.7,0.7c0,0.4-0.3,0.7-0.7,0.7
		c-0.1,0-0.6,0-1.2-0.1c-1.4-0.1-2.5-0.1-3.3,0c-0.1,0-0.2,0-0.3,0c-0.2,0-0.3,0.3-0.3,0.3c-0.1,0.4-0.1,0.9-0.2,1.6
		c-0.1,1.2-0.1,2.8-0.1,4.9V276.3z"/>
	<path class="st2" d="M255,267.7c2.1-0.6,3.4,0.5,4.1,2.3c0.5,1.3,0.7,2.9,0.5,4.8c-0.1,0.8-0.3,1.4-0.7,2c-0.2,0.3-0.2,0.6,0.1,0.9
		c1.3,1,2.5,3.1,2.7,4.8c0.2,1.9-0.4,3.7-1.6,5.2c-0.6,0.8-1.3,1.3-2.2,1.7c-0.4,0.2-1,0.3-1.7,0.5c-0.7,0.1-0.9,0.2-1.2,0
		c-0.1-0.1-0.2-0.1-0.2-0.2c-0.1-0.2-0.2-0.7-0.2-0.7c0-0.7,0-2.9,0.1-6.7c0.1-3.7,0.1-5.9,0-6.7c0-0.1,0-0.7-0.1-1.6
		c-0.1-1.8-0.1-2.1-0.1-3.5c0-0.5,0.1-0.9,0.1-1.3c0.1-0.3-0.1-0.6-0.1-0.9c0-0.1,0-0.2,0.1-0.4C254.7,267.8,254.9,267.7,255,267.7z
		 M256.1,277.1c0,0,0.1-0.1,0.1-0.1c0,0,0,0,0.1,0l0.1,0c0.1,0,0.1,0,0.2-0.1c0.1-0.1,0.2-0.1,0.5-0.3c0.2-0.1,0.3-0.2,0.4-0.3
		c0.4-0.4,0.7-1,0.8-1.7c0.1-1.6,0-3-0.4-4.2c-0.2-0.7-0.5-1.1-0.9-1.3c-0.1-0.1-0.2-0.1-0.4-0.2c-0.2-0.1-0.5,0.2-0.6,0.6
		c-0.1,0.9-0.2,1.9-0.1,2.5c0,0.4,0,1,0.1,1.9c0,0.9,0.1,1.5,0.1,1.7L256.1,277.1z M257.6,278.5c0,0-0.2,0-0.4,0c-0.2,0-0.4,0-0.6,0
		c-0.3,0-0.5,0-0.5,0.5c0,1.2,0,2.7-0.1,4.6c-0.1,1.8-0.1,3.1-0.1,4.1c0,0.5,0.3,0.7,0.8,0.6c0.2,0,0.4-0.1,0.6-0.2
		c2.7-1.2,3.9-5.1,2.3-7.5c-0.7-1.1-1.3-1.8-1.9-2.1H257.6z"/>
	<path class="st2" d="M275.7,269.3c0.1,0.6,0.1,1.5,0.2,2.6c0,1.1,0,1.8,0.1,2c0.3,4.4,0.5,9.3,0.5,14.6c0,0.4-0.3,0.7-0.7,0.7
		c-0.4,0-0.7-0.3-0.7-0.7c0-4.9-0.2-9.7-0.5-14.5c0-0.3,0-1,0-2.1c0-1-0.1-1.8-0.2-2.3c0-0.4,0.2-0.8,0.6-0.8
		C275.3,268.7,275.6,268.9,275.7,269.3z"/>
	<path class="st2" d="M296.2,268.7c0,0,0.1-0.1,0.1-0.2c0.1-0.2,0.2-0.3,0.3-0.3c0.2-0.2,0.5-0.2,0.8-0.1c0.1,0.1,0.2,0.2,0.3,0.3
		c0,0.1,0,0.1,0.1,0.2c0,0.1,0.1,0.4,0.1,0.6c0,0,0,0,0,0.1c0,0.3,0.1,0.8,0.1,1.4c0,0.2,0.1,1,0.1,2.3c0.1,1.6,0.2,3.2,0.2,4.9
		c0.1,4.3,0.3,7.2,0.7,10.7c0,0.4-0.2,0.7-0.6,0.8c-0.4,0-0.8-0.2-0.8-0.6c-0.4-3.3-0.6-6.4-0.7-10.7c0-1.6-0.1-3.2-0.2-4.9
		c-0.1-1.3-0.1-2.1-0.1-2.3c0-0.1,0-0.2,0-0.2c0-0.1-0.4,0.3-0.8,0.9c-0.4,0.6-1,1.4-1.5,2.3l-0.2,0.3c-0.2,0.3-0.2,0.7,0.1,1
		c0.6,0.8,1.1,1.5,1.5,2c0.2,0.3,0.1,0.7-0.2,0.9c-0.3,0.2-0.7,0.1-1-0.2c-0.2-0.4-0.6-0.8-0.9-1.3c-0.3-0.4-0.7-0.4-1,0.1
		c-0.3,0.6-0.7,1-1,1.5c-0.2,0.3-0.7,0.4-1,0.1c-0.3-0.2-0.4-0.7-0.1-1c0.4-0.6,0.8-1.2,1.3-1.9c0.2-0.3,0.2-0.7-0.1-1
		c-0.7-0.8-1-1.3-1.5-2.1c-0.3-0.5-0.8-0.3-0.7,0.3c0,0.3,0,0.6,0,0.8c0,1.2,0,3.1-0.1,5.6c-0.1,2.5-0.1,4.4-0.1,5.6
		c0,0.3,0,0.7,0,1.1c0,0.5,0,0.9,0,1.1c0,0.6,0,1.5,0.2,2.1c0.1,0.4-0.1,0.8-0.5,0.8c-0.2,0-0.5,0-0.7-0.1c-0.2-0.2-0.2-0.4-0.3-0.7
		c-0.1-0.8-0.2-1.7-0.1-3c0-0.8,0-1.2,0-1.3c0-1.2,0-3.1,0.1-5.6c0.1-2.5,0.1-4.4,0.1-5.6c0-1.6-0.1-2.8-0.2-3.8v0
		c0,0-0.1-0.1-0.1-0.3c-0.3-1,0.8-1.6,1.6-0.9c0,0,0,0.1,0.1,0.1c0,0.1,0.1,0.2,0.2,0.2c0.4,0.4,0.8,1,1.2,1.8
		c0.7,1.3,1,1.8,1.5,2.4c0.3,0.4,0.6,0.5,0.8,0.3C294.3,271.1,295.3,269.6,296.2,268.7L296.2,268.7z"/>
	<path class="st2" d="M300.4,268.6c1.1-0.2,2.2-0.2,4.1-0.2c0.9,0,1.5,0,1.7,0c0.4,0,0.7,0.3,0.7,0.7c0,0.4-0.3,0.7-0.7,0.7
		c-0.2,0-0.6,0-1.3,0c-0.5,0-0.7,0.2-0.7,0.7c0.1,1.6,0.2,3.5,0.2,5.6c0,0.7,0,1.8,0,3.2c0,1.5,0,2.7,0,3.5c0,0.3,0,0.8,0,1.6
		c0,1.6,0,2.5,0.1,3.4c0,0.1,0,0.1,0,0.2c0,0.1,0.2,0.2,0.7,0.2c0.3,0,0.5,0,0.8,0c0.4,0,0.7,0.3,0.7,0.7s-0.3,0.7-0.7,0.7
		c-1.9-0.1-3.7-0.1-5.4,0c-0.4,0-0.7-0.3-0.7-0.7s0.3-0.7,0.7-0.7c0.9,0,1.8-0.1,2.7-0.1c0,0,0-0.1,0-0.1c-0.1-1.1-0.2-2-0.1-3.7
		c0-0.8,0-1.3,0-1.5c0-0.8,0-1.9,0-3.5c0-1.5,0-2.6,0-3.2c0-2.2-0.1-4.1-0.2-5.7c0-0.4-0.3-0.7-0.7-0.7c-0.5,0-1,0.1-1.5,0.2
		c-0.4,0-0.7-0.2-0.8-0.6C299.8,269.1,300,268.7,300.4,268.6z"/>
	<path class="st2" d="M308.2,268.3c0.6,0,3,0,7.2,0c0.4,0,0.7,0.3,0.7,0.7s-0.3,0.7-0.7,0.7c-0.4,0-1,0-1.8,0c-0.2,0-0.5,0-0.7,0
		c-0.4,0-0.7,0.2-0.7,0.7c-0.1,3.6-0.1,7.1-0.1,12.3c0,2.8,0,4.7,0,5.8c0,0.4-0.3,0.7-0.7,0.7c-0.4,0-0.7-0.3-0.7-0.7
		c0-1.1,0-3,0-5.8c0-5.2,0-8.7,0.1-12.3c0-0.4-0.2-0.7-0.7-0.7c-0.7,0-1.3,0-1.9,0c-0.4,0-0.7-0.3-0.7-0.7S307.8,268.3,308.2,268.3z
		"/>
	<path class="st2" d="M318.6,287.6c1.7,1.1,1.3,2.9,0.6,4.9c-0.1,0.3-0.5,0.6-0.9,0.4c-0.3-0.1-0.6-0.5-0.4-0.9
		c0.7-1.8,0.8-2.8-0.1-3.4c-0.3-0.2-0.3-0.7-0.1-1C317.9,287.5,318.3,287.4,318.6,287.6z"/>
	<path class="st2" d="M333.1,278.3c-0.3,0.2-0.5,0.3-0.5,0.5c-0.1,4.3,0,7.7,0.4,10.1c0,0.4-0.2,0.8-0.6,0.8c-0.4,0-0.8-0.2-0.8-0.6
		c-0.3-2.5-0.5-5.9-0.4-10.3c0.1-4.4,0.1-7.5-0.1-9.5c0-0.3-0.2-0.5-0.3-0.9c0-0.1,0-0.1,0-0.2c0-0.4,0.3-0.7,0.7-0.7
		c2.3-0.1,4.6,1.3,5.4,3.6c0.4,1.1,0.4,2.3,0.1,3.5c-0.3,1.1-1,1.9-1.9,2.6c-0.4,0.3-0.9,0.6-1.2,0.8L333.1,278.3z M333.5,276.6
		c1.1-0.7,1.8-1.4,2.1-2.4c0.7-2.1-0.4-4.1-2.3-4.9c-0.5-0.2-0.8,0.1-0.8,0.6c0.1,1.6,0.1,3.7,0.1,6.2
		C332.6,276.6,333,276.9,333.5,276.6z"/>
	<path class="st2" d="M339.8,268.6c-0.2,1.9-0.2,4.6,0,8c0.2,4.1,0.2,6.8,0.1,8.2c-0.1,1.3,0,2.3,0.2,2.9c0.2,0.7,0.6,1,1.5,0.9
		c1-0.1,1.5-0.8,1.9-2.2c0.2-0.7,0.3-1.8,0.3-2.5c0-0.3,0-0.8,0-1.5c0-0.6,0-1.1,0-1.3c0-0.5,0-1.9,0.1-4.3c0-2.3,0-3.8,0-4.3
		c0-0.3-0.1-0.9-0.1-1.8c-0.1-0.8-0.1-1.5-0.1-1.9c0-0.4,0.3-0.7,0.7-0.7s0.7,0.3,0.7,0.7c0,0.4,0,1,0.1,1.8
		c0.1,0.9,0.1,1.6,0.2,1.9c0.1,0.5,0.1,1.9,0,4.3c-0.1,2.4-0.1,3.8-0.1,4.4c0,0.2,0,0.6,0,1.3c0,0.7,0,1.1,0,1.5
		c0,0.8-0.1,2-0.4,2.9c-0.5,1.7-1.3,2.9-3,3.1c-1.6,0.2-2.6-0.5-3-1.9c-0.2-0.7-0.3-1.9-0.2-3.4c0.1-1.2,0-3.9-0.1-8.1
		c-0.1-3.5-0.1-6.3,0-8.2c0-0.4,0.3-0.7,0.8-0.6C339.6,267.9,339.8,268.2,339.8,268.6z"/>
	<path class="st2" d="M352.8,283.6c0-0.9,0-2.4-0.1-4.7c-0.1-4.5-0.1-7.5,0.3-10.6c0-0.4,0.4-0.6,0.8-0.6c0.4,0,0.6,0.4,0.6,0.8
		c-0.4,2.9-0.4,5.9-0.3,10.3c0.1,2.2,0.1,3.8,0.1,4.7v2.7c0,0.6,0,1.1-0.1,1.5c0,0.2-0.1,0.3-0.1,0.5c-0.1,0.3-0.2,0.5-0.5,0.7
		c-0.3,0.1-0.6,0-0.8-0.1c0,0-0.1-0.1-0.1-0.1c0,0-0.1-0.1-0.1-0.3c0-0.1-0.1-0.2-0.1-0.4l-0.4-1.2l-0.9-2.8c-0.5-1.5-1-3.4-1.6-5.8
		c-0.3-1.2-0.5-2.2-0.7-3.1c-0.1-0.6-0.7-2-0.7-2c0,1-0.1,1.8-0.1,2.3c0,0.9,0,2.4-0.1,4.5c-0.1,2.1-0.1,3.6-0.1,4.6
		c0,1,0.1,2.5,0.2,4.3c0,0.4-0.2,0.8-0.6,0.8c-0.4,0-0.8-0.2-0.8-0.6c-0.2-1.2-0.2-2.6-0.2-4.1c0-1.6,0-3.4,0.1-5.3
		c0.1-1.9,0.1-3.3,0.1-4.1c0-0.5,0-1.3,0.1-2.4c0-1,0.1-1.8,0.1-2.3v-1.6c0,0,0,0,0-0.1c0,0,0-0.1-0.1-0.2c0-0.4,0-0.7,0.4-1
		c0.2-0.1,0.4-0.1,0.6,0c0.4,0.1,0.6,0.4,0.7,0.8c0,0.1,0,0.2,0,0.3c0,0,0,0,0,0.1c0,0,0,0.2,0.1,0.4c0.1,0.2,0.2,0.6,0.3,1
		c0.2,0.6,0.4,1.1,0.5,1.5c0.1,0.4,2,8.6,2.9,11.5l-0.3-1c0.2,0.7,0.7,1.7,0.7,1.6V283.6z"/>
	<path class="st2" d="M358.1,268.6c-0.4,0-0.6,0-0.6,0c-0.1,0.1-0.1,0.3-0.1,0.6c-0.1,1.1,0,2.4,0.1,4.3c0.1,0.9,0.1,1.4,0.1,1.6
		c0,0.2,0,0.6,0,1.2c0,0.5,0.2,0.7,0.7,0.7c0.3,0,0.6,0,0.9,0c0.4,0,0.7,0.3,0.7,0.7c0,0.4-0.3,0.7-0.7,0.7c-0.3,0-0.7,0-1,0
		c-0.4,0-0.7,0.2-0.7,0.7c-0.1,3.2-0.2,5.8,0,7.7c0,0.6,0.1,1,0.2,1.3c0,0,0,0.1,0,0.1c0,0.1,0.2,0.2,0.6,0.2c0.7,0.1,1.6,0,2.6-0.1
		c0.5,0,0.9-0.1,1.1-0.1c0.4,0,0.7,0.3,0.7,0.7c0,0.4-0.3,0.7-0.7,0.7c-0.2,0-0.6,0-1,0.1c-0.6,0-1.1,0.1-1.3,0.1
		c-1.1,0.1-2,0-2.6-0.3c-0.4-0.2-0.6-0.6-0.7-1.1c-0.1-0.4-0.2-0.9-0.2-1.6c-0.1-2.1-0.1-5.1,0-7.4c0-1.1,0.1-2.1,0.1-2.9
		c0-0.8,0-1.3,0-1.6c0-0.1,0-0.6-0.1-1.5c-0.2-1.9-0.2-3.4-0.1-4.5c0.1-0.7,0.2-1.4,0.8-1.7c0.1-0.1,0.3-0.1,0.6-0.2h2.2
		c1.7,0.1,2.6,0.1,2.7,0.1c0.4,0,0.7,0.2,0.8,0.6c0,0.2,0,0.4-0.1,0.5c-0.1,0.1-0.3,0.2-0.5,0.2c-0.2,0-1.1,0-2.9-0.1H358.1
		L358.1,268.6z"/>
</g>
</svg>
